<svg id="Layer_1" data-name="Layer 1" xmlns="http://www.w3.org/2000/svg" xmlns:xlink="http://www.w3.org/1999/xlink" viewBox="0 0 3000 2000"><defs><style>.cls-1{fill:none;}.cls-2{fill:#fff;}.cls-3{fill:#ebf2f9;}.cls-4{fill:#dceaf9;}.cls-5{fill:#d5e7f7;}.cls-6{fill:#c4d9ed;}.cls-7{fill:#adc9e0;}.cls-8{fill:#f1a34f;}.cls-9{fill:#e88f46;opacity:0.5;}.cls-10{fill:#e59545;}.cls-11{fill:#1c2948;}.cls-12{fill:#a8d29f;}.cls-13{fill:#2d3a62;}.cls-14{fill:#98bdf4;}.cls-15{fill:#82b378;}.cls-16{clip-path:url(#clip-path);}.cls-17{fill:#163560;}.cls-18{clip-path:url(#clip-path-2);}.cls-19{fill:#b64c41;}.cls-20{fill:#d6716b;}.cls-21{fill:#d68d5d;}.cls-22{fill:#233862;}.cls-23{fill:#2b501e;}.cls-24{fill:#36572a;}.cls-25{fill:#2b478b;}.cls-26{fill:#e49963;}.cls-27{fill:#80bdcc;}.cls-28{fill:#5f9aa8;}.cls-29{fill:#e58638;}.cls-30{fill:#b84c42;}.cls-31{fill:#aa3e39;}.cls-32{fill:#699ff0;}.cls-33{fill:#4a75cb;}.cls-34{fill:#ee9849;}.cls-35{fill:#ffb27d;}.cls-36{fill:#ab7041;}.cls-37{fill:#ed985f;}.cls-38{fill:#bfbfbf;}.cls-39{opacity:0.6;}</style><clipPath id="clip-path"><path class="cls-1" d="M2519.85,1333h-172a11.17,11.17,0,0,1-11.17-11.17V1153.17a11.17,11.17,0,0,1,11.17-11.17h108.44a11.18,11.18,0,0,1,10.46,7.23l63.57,168.66A11.16,11.16,0,0,1,2519.85,1333Z"/></clipPath><clipPath id="clip-path-2"><path class="cls-1" d="M2570.87,1136.73h-74.21a6.31,6.31,0,0,0-5.79,8.85l78.86,180.6a14.93,14.93,0,0,0,11.33,8.77l54.61,8.72Z"/></clipPath></defs><rect class="cls-2" width="3000" height="2000"/><path class="cls-3" d="M2314,917.58c-337.86,70.51-139.77-709.16-600-378.22-183,131.61-446.61-27.65-699,59.4C783.12,678.7,840.22,941,862.65,1026.85c45.31,173.37-180.33,104.23-311.12,178.72-205.16,116.84-25.19,587.91,168.62,589.87s1733.77-3.91,1733.77-3.91,84.58-66.17,129.49-202.55C2675.48,1309.4,2611.47,855.5,2314,917.58Z"/><rect class="cls-4" x="2238.38" y="1611.74" width="87.53" height="180.39"/><polygon class="cls-5" points="1036.24 1105.92 1036.24 1027.08 1060.17 1027.08 1060.17 891.53 1188.49 891.53 1188.49 1027.08 1308.45 1027.08 1308.45 841.28 1440.83 791.17 1440.83 949.59 1471.02 949.59 1471.02 738.62 1603.4 782.49 1603.4 1099.36 1770.83 1099.36 1770.83 1286.53 1833.38 1286.53 1833.38 1333.68 1977.07 1333.68 1977.07 1252.49 2059.57 1252.49 2059.57 1031.86 2161.48 1031.86 2161.48 1439.13 2263.39 1439.13 2263.39 1793.53 2161.48 1793.53 2074.13 1793.53 2059.57 1793.53 1977.07 1793.53 1930.44 1793.53 1855.75 1793.53 1833.38 1793.53 1770.83 1793.53 1712.06 1793.53 1603.4 1793.53 1570.13 1793.53 1503.92 1793.53 1471.02 1793.53 1440.83 1793.53 1371.54 1793.53 1324.37 1793.53 1308.45 1793.53 1188.49 1793.53 1062.31 1793.53 1060.17 1793.53 1036.24 1793.53 934 1793.53 934 1105.92 1036.24 1105.92"/><rect class="cls-6" x="1494.32" y="798.54" width="89.3" height="32.7" transform="translate(3077.94 1629.78) rotate(180)"/><rect class="cls-6" x="1494.32" y="859.97" width="89.3" height="32.7" transform="translate(3077.94 1752.65) rotate(180)"/><rect class="cls-6" x="1494.32" y="915.25" width="89.3" height="32.7" transform="translate(3077.94 1863.19) rotate(180)"/><rect class="cls-6" x="2057.68" y="1180.5" width="103.8" height="50.48"/><rect class="cls-6" x="2058.67" y="1335.45" width="102.81" height="50.48"/><rect class="cls-6" x="2058.67" y="1411.7" width="102.81" height="50.48"/><rect class="cls-6" x="2060.35" y="1491.48" width="102.8" height="50.48" transform="translate(4223.5 3033.45) rotate(180)"/><rect class="cls-6" x="2060.35" y="1569.61" width="102.8" height="50.48"/><rect class="cls-6" x="2060.35" y="1649.39" width="102.8" height="50.48" transform="translate(4223.5 3349.27) rotate(180)"/><rect class="cls-6" x="1329.47" y="915.25" width="93.93" height="32.7"/><rect class="cls-6" x="1329.47" y="860.47" width="93.93" height="32.7"/><rect class="cls-6" x="1329.47" y="978.84" width="256.42" height="32.7"/><rect class="cls-6" x="1329.47" y="1028.01" width="256.42" height="32.7"/><rect class="cls-6" x="1329.47" y="1076.85" width="256.42" height="31.45"/><rect class="cls-6" x="2058.67" y="1259.19" width="102.81" height="50.48"/><rect class="cls-6" x="1722.75" y="1130.04" width="22.44" height="31.63"/><rect class="cls-6" x="1680.78" y="1130.04" width="22.44" height="31.63"/><rect class="cls-6" x="1639.75" y="1130.04" width="22.44" height="31.63"/><rect class="cls-6" x="1600.86" y="1130.04" width="22.44" height="31.63"/><rect class="cls-6" x="1561.21" y="1130.04" width="22.44" height="31.63"/><rect class="cls-6" x="1521.11" y="1130.04" width="22.44" height="31.63"/><rect class="cls-6" x="1479.14" y="1130.04" width="22.44" height="31.63"/><rect class="cls-6" x="1438.11" y="1130.04" width="22.44" height="31.63"/><rect class="cls-6" x="1399.22" y="1130.04" width="22.44" height="31.63"/><rect class="cls-6" x="1359.57" y="1130.04" width="22.44" height="31.63"/><rect class="cls-6" x="1318.25" y="1130.04" width="22.44" height="31.63"/><rect class="cls-6" x="1276.29" y="1130.04" width="22.44" height="31.63"/><rect class="cls-6" x="1235.26" y="1130.04" width="22.44" height="31.63"/><rect class="cls-6" x="1196.36" y="1130.04" width="22.44" height="31.63"/><rect class="cls-6" x="1156.71" y="1130.04" width="22.44" height="31.63"/><rect class="cls-6" x="1074.65" y="1130.04" width="22.44" height="31.63"/><rect class="cls-6" x="1033.62" y="1130.04" width="22.44" height="31.63"/><rect class="cls-6" x="994.72" y="1130.04" width="22.44" height="31.63"/><rect class="cls-6" x="955.07" y="1130.04" width="22.44" height="31.63"/><rect class="cls-6" x="1722.75" y="1185.86" width="22.44" height="31.63"/><rect class="cls-6" x="1680.78" y="1185.86" width="22.44" height="31.63"/><rect class="cls-6" x="1639.75" y="1185.86" width="22.44" height="31.63"/><rect class="cls-6" x="1600.86" y="1185.86" width="22.44" height="31.63"/><rect class="cls-6" x="1561.21" y="1185.86" width="22.44" height="31.63"/><rect class="cls-6" x="1521.11" y="1185.86" width="22.44" height="31.63"/><rect class="cls-6" x="1479.14" y="1185.86" width="22.44" height="31.63"/><rect class="cls-6" x="1438.11" y="1185.86" width="22.44" height="31.63"/><rect class="cls-6" x="1399.22" y="1185.86" width="22.44" height="31.63"/><rect class="cls-6" x="1359.57" y="1185.86" width="22.44" height="31.63"/><rect class="cls-6" x="1318.25" y="1185.86" width="22.44" height="31.63"/><rect class="cls-6" x="1276.29" y="1185.86" width="22.44" height="31.63"/><rect class="cls-6" x="1235.26" y="1185.86" width="22.44" height="31.63"/><rect class="cls-6" x="1196.36" y="1185.86" width="22.44" height="31.63"/><rect class="cls-6" x="1156.71" y="1185.86" width="22.44" height="31.63"/><rect class="cls-6" x="1116.61" y="1185.86" width="22.44" height="31.63"/><rect class="cls-6" x="1074.65" y="1185.86" width="22.44" height="31.63"/><rect class="cls-6" x="1033.62" y="1185.86" width="22.44" height="31.63"/><rect class="cls-6" x="994.72" y="1185.86" width="22.44" height="31.63"/><rect class="cls-6" x="955.07" y="1185.86" width="22.44" height="31.63"/><rect class="cls-6" x="1722.75" y="1240.82" width="22.44" height="31.63"/><rect class="cls-6" x="1680.78" y="1240.82" width="22.44" height="31.63"/><rect class="cls-6" x="1639.75" y="1240.82" width="22.44" height="31.63"/><rect class="cls-6" x="1600.86" y="1240.82" width="22.44" height="31.63"/><rect class="cls-6" x="1561.21" y="1240.82" width="22.44" height="31.63"/><rect class="cls-6" x="1521.11" y="1240.82" width="22.44" height="31.63"/><rect class="cls-6" x="1479.14" y="1240.82" width="22.44" height="31.63"/><rect class="cls-6" x="1438.11" y="1240.82" width="22.44" height="31.63"/><rect class="cls-6" x="1399.22" y="1240.82" width="22.44" height="31.63"/><rect class="cls-6" x="1359.57" y="1240.82" width="22.44" height="31.63"/><rect class="cls-6" x="1318.25" y="1240.82" width="22.44" height="31.63"/><rect class="cls-6" x="1276.29" y="1240.82" width="22.44" height="31.63"/><rect class="cls-6" x="1235.26" y="1240.82" width="22.44" height="31.63"/><rect class="cls-6" x="1196.36" y="1240.82" width="22.44" height="31.63"/><rect class="cls-6" x="1156.71" y="1240.82" width="22.44" height="31.63"/><rect class="cls-6" x="1116.61" y="1240.82" width="22.44" height="31.63"/><rect class="cls-6" x="1074.65" y="1240.82" width="22.44" height="31.63"/><rect class="cls-6" x="1033.62" y="1240.82" width="22.44" height="31.63"/><rect class="cls-6" x="994.72" y="1240.82" width="22.44" height="31.63"/><rect class="cls-6" x="955.07" y="1240.82" width="22.44" height="31.63"/><rect class="cls-6" x="1722.75" y="1299.22" width="22.44" height="31.63"/><rect class="cls-6" x="1680.78" y="1299.22" width="22.44" height="31.63"/><rect class="cls-6" x="1639.75" y="1299.22" width="22.44" height="31.63"/><rect class="cls-6" x="1600.86" y="1299.22" width="22.44" height="31.63"/><rect class="cls-6" x="1561.21" y="1299.22" width="22.44" height="31.63"/><rect class="cls-6" x="1521.11" y="1299.22" width="22.44" height="31.63"/><rect class="cls-6" x="1479.14" y="1299.22" width="22.44" height="31.63"/><rect class="cls-6" x="1438.11" y="1299.22" width="22.44" height="31.63"/><rect class="cls-6" x="1399.22" y="1299.22" width="22.44" height="31.63"/><rect class="cls-6" x="1359.57" y="1299.22" width="22.44" height="31.63"/><rect class="cls-6" x="1318.25" y="1299.22" width="22.44" height="31.63"/><rect class="cls-6" x="1276.29" y="1299.22" width="22.44" height="31.63"/><rect class="cls-6" x="1235.26" y="1299.22" width="22.44" height="31.63"/><rect class="cls-6" x="1196.36" y="1299.22" width="22.44" height="31.63"/><rect class="cls-6" x="1156.71" y="1299.22" width="22.44" height="31.63"/><rect class="cls-6" x="1116.61" y="1299.22" width="22.44" height="31.63"/><rect class="cls-6" x="1074.65" y="1299.22" width="22.44" height="31.63"/><rect class="cls-6" x="1033.62" y="1299.22" width="22.44" height="31.63"/><rect class="cls-6" x="994.72" y="1299.22" width="22.44" height="31.63"/><rect class="cls-6" x="955.07" y="1299.22" width="22.44" height="31.63"/><rect class="cls-6" x="1722.75" y="1355.04" width="22.44" height="31.63"/><rect class="cls-6" x="1680.78" y="1355.04" width="22.44" height="31.63"/><rect class="cls-6" x="1639.75" y="1355.04" width="22.44" height="31.63"/><rect class="cls-6" x="1600.86" y="1355.04" width="22.44" height="31.63"/><rect class="cls-6" x="1561.21" y="1355.04" width="22.44" height="31.63"/><rect class="cls-6" x="1521.11" y="1355.04" width="22.44" height="31.63"/><rect class="cls-6" x="1479.14" y="1355.04" width="22.44" height="31.63"/><rect class="cls-6" x="1438.11" y="1355.04" width="22.44" height="31.63"/><rect class="cls-6" x="1399.22" y="1355.04" width="22.44" height="31.63"/><rect class="cls-6" x="1359.57" y="1355.04" width="22.44" height="31.63"/><rect class="cls-6" x="1318.25" y="1355.04" width="22.44" height="31.63"/><rect class="cls-6" x="1276.29" y="1355.04" width="22.44" height="31.63"/><rect class="cls-6" x="1235.26" y="1355.04" width="22.44" height="31.63"/><rect class="cls-6" x="1196.36" y="1355.04" width="22.44" height="31.63"/><rect class="cls-6" x="1156.71" y="1355.04" width="22.44" height="31.63"/><rect class="cls-6" x="1116.61" y="1355.04" width="22.44" height="31.63"/><rect class="cls-6" x="1074.65" y="1355.04" width="22.44" height="31.63"/><rect class="cls-6" x="994.72" y="1355.04" width="22.44" height="31.63"/><rect class="cls-6" x="1033.62" y="1355.04" width="22.44" height="31.63"/><rect class="cls-6" x="955.07" y="1355.04" width="22.44" height="31.63"/><rect class="cls-6" x="1722.75" y="1410" width="22.44" height="31.63"/><rect class="cls-6" x="1680.78" y="1410" width="22.44" height="31.63"/><rect class="cls-6" x="1639.75" y="1410" width="22.44" height="31.63"/><rect class="cls-6" x="1600.86" y="1410" width="22.44" height="31.63"/><rect class="cls-6" x="1561.21" y="1410" width="22.44" height="31.63"/><rect class="cls-6" x="1521.11" y="1410" width="22.44" height="31.63"/><rect class="cls-6" x="1479.14" y="1410" width="22.44" height="31.63"/><rect class="cls-6" x="1438.11" y="1410" width="22.44" height="31.63"/><rect class="cls-6" x="1399.22" y="1410" width="22.44" height="31.63"/><rect class="cls-6" x="1359.57" y="1410" width="22.44" height="31.63"/><rect class="cls-6" x="1318.25" y="1410" width="22.44" height="31.63"/><rect class="cls-6" x="1276.29" y="1410" width="22.44" height="31.63"/><rect class="cls-6" x="1235.26" y="1410" width="22.44" height="31.63"/><rect class="cls-6" x="1196.36" y="1410" width="22.44" height="31.63"/><rect class="cls-6" x="1156.71" y="1410" width="22.44" height="31.63"/><rect class="cls-6" x="1116.61" y="1410" width="22.44" height="31.63"/><rect class="cls-6" x="1074.65" y="1410" width="22.44" height="31.63"/><rect class="cls-6" x="994.72" y="1410" width="22.44" height="31.63"/><rect class="cls-6" x="955.07" y="1410" width="22.44" height="31.63"/><rect class="cls-6" x="717.02" y="1347.47" width="49.93" height="337.76"/><rect class="cls-7" x="766.95" y="1552.83" width="53.6" height="234.61" transform="translate(1587.49 3340.26) rotate(180)"/><polygon class="cls-6" points="1940.57 1252.35 1940.57 1186.55 1937.86 1186.55 1937.86 1252.35 1900.84 1252.35 1900.84 1333.54 1977.09 1333.54 1977.09 1252.35 1940.57 1252.35"/><polygon class="cls-6" points="2161.48 1082.43 2161.48 1031.95 2140.03 1031.95 2140.03 1009.99 2137.32 1009.99 2137.32 1031.95 2059.11 1031.95 2057.68 1031.95 2042.89 1031.95 2042.89 1009.99 2040.18 1009.99 2040.18 1031.95 2021.2 1031.95 2021.2 1252.56 2059.11 1252.56 2059.11 1157.51 2161.48 1157.51 2161.48 1107.03 2059.11 1107.03 2059.11 1082.43 2161.48 1082.43"/><polygon class="cls-5" points="1053.23 1396.63 1053.23 1681.36 766.95 1681.36 766.95 1347.47 1053.23 1396.63"/><rect class="cls-5" x="696.09" y="1551.94" width="357.14" height="240.19" transform="translate(1749.32 3344.07) rotate(180)"/><rect class="cls-6" x="696.09" y="1409.8" width="357.14" height="78.07" transform="translate(1749.32 2897.66) rotate(180)"/><rect class="cls-6" x="1010.57" y="1617.07" width="18.34" height="25.85"/><rect class="cls-6" x="976.27" y="1617.07" width="18.34" height="25.85"/><rect class="cls-6" x="942.74" y="1617.07" width="18.34" height="25.85"/><rect class="cls-6" x="910.94" y="1617.07" width="18.34" height="25.85"/><rect class="cls-6" x="878.54" y="1617.07" width="18.34" height="25.85"/><rect class="cls-6" x="845.76" y="1617.07" width="18.34" height="25.85"/><rect class="cls-6" x="811.46" y="1617.07" width="18.34" height="25.85"/><rect class="cls-6" x="777.93" y="1617.07" width="18.34" height="25.85"/><rect class="cls-6" x="746.14" y="1617.07" width="18.34" height="25.85"/><rect class="cls-6" x="713.73" y="1617.07" width="18.34" height="25.85"/><rect class="cls-6" x="1010.57" y="1662.69" width="18.34" height="25.85"/><rect class="cls-6" x="976.27" y="1662.69" width="18.34" height="25.85"/><rect class="cls-6" x="942.74" y="1662.69" width="18.34" height="25.85"/><rect class="cls-6" x="910.94" y="1662.69" width="18.34" height="25.85"/><rect class="cls-6" x="878.54" y="1662.69" width="18.34" height="25.85"/><rect class="cls-6" x="845.76" y="1662.69" width="18.34" height="25.85"/><rect class="cls-6" x="811.46" y="1662.69" width="18.34" height="25.85"/><rect class="cls-6" x="777.93" y="1662.69" width="18.34" height="25.85"/><rect class="cls-6" x="746.14" y="1662.69" width="18.34" height="25.85"/><rect class="cls-6" x="713.73" y="1662.69" width="18.34" height="25.85"/><rect class="cls-6" x="1010.57" y="1525.14" width="18.34" height="25.85"/><rect class="cls-6" x="976.27" y="1525.14" width="18.34" height="25.85"/><rect class="cls-6" x="942.74" y="1525.14" width="18.34" height="25.85"/><rect class="cls-6" x="910.94" y="1525.14" width="18.34" height="25.85"/><rect class="cls-6" x="878.54" y="1525.14" width="18.34" height="25.85"/><rect class="cls-6" x="845.76" y="1525.14" width="18.34" height="25.85"/><rect class="cls-6" x="811.46" y="1525.14" width="18.34" height="25.85"/><rect class="cls-6" x="777.93" y="1525.14" width="18.34" height="25.85"/><rect class="cls-6" x="1010.57" y="1570.76" width="18.34" height="25.85"/><rect class="cls-6" x="976.27" y="1570.76" width="18.34" height="25.85"/><rect class="cls-6" x="942.74" y="1570.76" width="18.34" height="25.85"/><rect class="cls-6" x="910.94" y="1570.76" width="18.34" height="25.85"/><rect class="cls-6" x="878.54" y="1570.76" width="18.34" height="25.85"/><rect class="cls-6" x="845.76" y="1570.76" width="18.34" height="25.85"/><rect class="cls-6" x="811.46" y="1570.76" width="18.34" height="25.85"/><rect class="cls-6" x="777.93" y="1570.76" width="18.34" height="25.85"/><rect class="cls-6" x="746.14" y="1570.76" width="18.34" height="25.85"/><rect class="cls-6" x="713.73" y="1570.76" width="18.34" height="25.85"/><rect class="cls-6" x="1010.57" y="1707.62" width="18.34" height="25.85"/><rect class="cls-6" x="976.27" y="1707.62" width="18.34" height="25.85"/><rect class="cls-6" x="942.74" y="1707.62" width="18.34" height="25.85"/><rect class="cls-6" x="910.94" y="1707.62" width="18.34" height="25.85"/><rect class="cls-6" x="878.54" y="1707.62" width="18.34" height="25.85"/><rect class="cls-6" x="845.76" y="1707.62" width="18.34" height="25.85"/><rect class="cls-6" x="811.46" y="1707.62" width="18.34" height="25.85"/><rect class="cls-6" x="777.93" y="1707.62" width="18.34" height="25.85"/><rect class="cls-6" x="746.14" y="1707.62" width="18.34" height="25.85"/><rect class="cls-6" x="713.73" y="1707.62" width="18.34" height="25.85"/><rect class="cls-6" x="1010.57" y="1747.62" width="18.34" height="25.85"/><rect class="cls-6" x="976.27" y="1747.62" width="18.34" height="25.85"/><rect class="cls-6" x="942.74" y="1747.62" width="18.34" height="25.85"/><rect class="cls-6" x="910.94" y="1747.62" width="18.34" height="25.85"/><rect class="cls-6" x="878.54" y="1747.62" width="18.34" height="25.85"/><rect class="cls-6" x="845.76" y="1747.62" width="18.34" height="25.85"/><rect class="cls-6" x="811.46" y="1747.62" width="18.34" height="25.85"/><rect class="cls-6" x="777.93" y="1747.62" width="18.34" height="25.85"/><rect class="cls-6" x="746.14" y="1747.62" width="18.34" height="25.85"/><rect class="cls-6" x="713.73" y="1747.62" width="18.34" height="25.85"/><rect class="cls-5" x="786.15" y="1293.85" width="5.29" height="67.7"/><rect class="cls-5" x="1010.57" y="1431.73" width="15.41" height="26.67"/><rect class="cls-5" x="857.55" y="1431.73" width="15.41" height="26.67"/><rect class="cls-5" x="735.82" y="1431.73" width="15.41" height="26.67"/><rect class="cls-6" x="1479.36" y="1491.48" width="513.97" height="300.65"/><polygon class="cls-6" points="1816.27 1505.21 1923.52 1505.21 1923.52 1411.7 1816.27 1452.77 1816.27 1505.21"/><polygon class="cls-6" points="1287.67 1792.13 1042.23 1792.13 1042.23 1525.14 1287.67 1610.11 1287.67 1792.13"/><rect class="cls-5" x="1048.71" y="1618.95" width="232.48" height="8.25"/><rect class="cls-5" x="1048.71" y="1645.47" width="232.48" height="8.25"/><rect class="cls-5" x="1048.71" y="1671.98" width="232.48" height="8.25"/><rect class="cls-5" x="1048.71" y="1698.5" width="232.48" height="8.25"/><rect class="cls-5" x="1048.71" y="1725.02" width="232.48" height="8.25"/><rect class="cls-5" x="1048.71" y="1751.54" width="232.48" height="8.25"/><rect class="cls-6" x="1923.52" y="1411.7" width="20.63" height="79.78"/><rect class="cls-6" x="1064.18" y="902.66" width="14.22" height="120.66"/><rect class="cls-6" x="1092.47" y="902.66" width="14.22" height="120.66"/><rect class="cls-6" x="1120.37" y="902.66" width="14.22" height="120.66"/><rect class="cls-6" x="1149.25" y="902.66" width="14.22" height="120.66"/><polygon class="cls-8" points="687.98 1595.28 649.88 1591.65 625.57 1610.88 616.3 1646.66 627.75 1671.12 602.71 1660.6 544.46 1725.85 533.85 1781.36 553.44 1795.24 722.43 1795.24 746.93 1715.24 746.11 1649.93 687.98 1595.28"/><path class="cls-9" d="M602.71,1660.59s22.14,29,26.85,30.12,19.23-1.09,18.87-3.26-20.68-16.33-20.68-16.33Z"/><path class="cls-9" d="M544.46,1725.85l30.82,23a8.43,8.43,0,0,1,3.21,8.4c-1.37,6.8-3.89,17.84-5.9,18.34C569.69,1776.34,544.46,1725.85,544.46,1725.85Z"/><path class="cls-9" d="M741.14,1721.19s-44.09,22.86-45.72,26.67S709,1782.7,715,1778.34,741.14,1721.19,741.14,1721.19Z"/><path class="cls-8" d="M635.37,1599.27s-31.57-8.34-34.47-6.89-17.42,21.41-16,25S635.37,1599.27,635.37,1599.27Z"/><path class="cls-10" d="M637.55,1579.68l-2.18,19.59,13.42-12S643.71,1577.5,637.55,1579.68Z"/><path class="cls-10" d="M639.63,1600.72c0-.27-.45-4.35-1.18-4.17s-5.62,3.18-5.62,3.72-.91,4.63,1,4.44S639.63,1600.72,639.63,1600.72Z"/><path class="cls-9" d="M637.91,1602.88s-4.72,17-4,18.5,10.52,12.52,11.79,12S637.91,1602.88,637.91,1602.88Z"/><path class="cls-9" d="M639.36,1602s5.44,17.06,6.89,16.88,9.08-13.61,8-14.7S639.36,1602,639.36,1602Z"/><path class="cls-9" d="M640.15,1601.07l4.64-2.38a.8.8,0,0,1,.69,0l1.93.8a.44.44,0,0,1-.12.84Z"/><path class="cls-9" d="M636.4,1603.53l-2.64,2.66a.9.9,0,0,0,.09,1.36l.89.69a.51.51,0,0,0,.81-.31Z"/><path class="cls-10" d="M635.82,1599.27c-.41-.13-20.41-2.17-22-1.36s-9.12,7.76-6.12,8.17S635.82,1599.27,635.82,1599.27Z"/><path class="cls-9" d="M553.44,1795.24s70.32-10.55,77.57-8,32.3,7.62,32.3,7.62,31.2-8,34.47-6.17,7.62,6.53,7.62,6.53Z"/><path class="cls-11" d="M2545.17,1752.67h-53a14.86,14.86,0,0,1-14.84-14.84v-53.5H2560v53.5A14.85,14.85,0,0,1,2545.17,1752.67Zm-57.84-58.34v43.5a4.84,4.84,0,0,0,4.84,4.84h53a4.84,4.84,0,0,0,4.83-4.84v-43.5Z"/><path class="cls-12" d="M1151.71,1102.08l919.75-4.65a23.14,23.14,0,0,1,23.25,23.14V1554.4l-1201,67.7v-67.7L1008,1246.25Z"/><rect class="cls-11" x="956" y="1554.4" width="1549.67" height="128"/><circle class="cls-13" cx="2328.87" cy="1682.4" r="109.3" transform="translate(-507.53 2139.52) rotate(-45)"/><path class="cls-14" d="M2328.87,1614.68a67.72,67.72,0,1,0,67.72,67.72A67.72,67.72,0,0,0,2328.87,1614.68Zm9.28,7.43a60.89,60.89,0,0,1,37,20.61l-23.46,14.49a33.88,33.88,0,0,0-13.56-7.51Zm-18.56,0v27.59a33.88,33.88,0,0,0-13.56,7.51l-23.47-14.49A60.91,60.91,0,0,1,2319.59,1622.11Zm-47,83.94a61.12,61.12,0,0,1,.12-47.58l23.46,14.48a34,34,0,0,0-.09,18.59Zm47,36.65a60.86,60.86,0,0,1-37.23-20.85l23.44-14.48a33.86,33.86,0,0,0,13.79,7.74Zm-6.1-60.3a15.38,15.38,0,1,1,15.38,15.38A15.38,15.38,0,0,1,2313.49,1682.4Zm24.66,60.3v-27.59a33.86,33.86,0,0,0,13.79-7.74l23.44,14.48A60.88,60.88,0,0,1,2338.15,1742.7Zm23.47-51.16a34,34,0,0,0-.09-18.59l23.46-14.48a61.12,61.12,0,0,1,.12,47.58Z"/><circle class="cls-13" cx="1398.87" cy="1682.4" r="109.3" transform="translate(-779.92 1481.91) rotate(-45)"/><path class="cls-14" d="M1398.87,1614.68a67.72,67.72,0,1,0,67.72,67.72A67.72,67.72,0,0,0,1398.87,1614.68Zm9.28,7.42a61,61,0,0,1,37,20.62l-23.47,14.49a33.88,33.88,0,0,0-13.56-7.51Zm-18.56,0v27.6a33.88,33.88,0,0,0-13.56,7.51l-23.47-14.49A60.93,60.93,0,0,1,1389.59,1622.1Zm-47,84a61.15,61.15,0,0,1,.12-47.59l23.46,14.49a34,34,0,0,0-.09,18.59Zm47,36.65a60.86,60.86,0,0,1-37.23-20.85l23.44-14.48a33.86,33.86,0,0,0,13.79,7.74Zm-6.1-60.3a15.38,15.38,0,1,1,15.38,15.38A15.38,15.38,0,0,1,1383.49,1682.4Zm24.66,60.3v-27.59a33.86,33.86,0,0,0,13.79-7.74l23.44,14.48A60.88,60.88,0,0,1,1408.15,1742.7Zm23.47-51.16a34,34,0,0,0-.09-18.59l23.46-14.49a61.15,61.15,0,0,1,.12,47.59Z"/><circle class="cls-13" cx="1637.93" cy="1682.26" r="109.3" transform="translate(-350.6 2930.69) rotate(-77.89)"/><path class="cls-14" d="M1637.93,1614.54a67.72,67.72,0,1,0,67.72,67.72A67.72,67.72,0,0,0,1637.93,1614.54Zm9.28,7.42a60.85,60.85,0,0,1,37,20.62l-23.47,14.49a34,34,0,0,0-13.55-7.52Zm-18.56,0v27.59a34,34,0,0,0-13.56,7.52l-23.47-14.49A60.88,60.88,0,0,1,1628.65,1622Zm-47,84a61.15,61.15,0,0,1,.12-47.59l23.46,14.49a34,34,0,0,0-.09,18.59Zm47,36.65a60.91,60.91,0,0,1-37.23-20.85l23.44-14.48a34,34,0,0,0,13.79,7.74Zm-6.1-60.3a15.38,15.38,0,1,1,15.38,15.37A15.39,15.39,0,0,1,1622.55,1682.26Zm24.66,60.3V1715a34,34,0,0,0,13.79-7.74l23.44,14.48A60.93,60.93,0,0,1,1647.21,1742.56Zm23.47-51.16a34,34,0,0,0-.09-18.59l23.46-14.49a61.15,61.15,0,0,1,.12,47.59Z"/><path class="cls-12" d="M2531.7,1102H2252.34a33.5,33.5,0,0,0-33.47,32l-18.53,405H2197a58,58,0,0,0-58,58v138.31a14.81,14.81,0,0,0,14.81,14.81h40.25a14.81,14.81,0,0,0,14.81-14.81V1682.4a120,120,0,0,1,124.23-119.92c61.76,2.12,112.21,51.5,115.59,113.21a121.69,121.69,0,0,1-.8,22.09h187.44V1342.67L2568.46,1129A38.53,38.53,0,0,0,2531.7,1102Z"/><path class="cls-15" d="M2416.34,1573.1a139.73,139.73,0,0,1,52.53,109.3c0,1.37,0,2.74-.07,4.1h99.45V1573.1Z"/><path class="cls-14" d="M2570.87,1136.73h-74.21a6.31,6.31,0,0,0-5.79,8.85l78.86,180.6a14.93,14.93,0,0,0,11.33,8.77l54.61,8.72Z"/><path class="cls-14" d="M2519.85,1333h-172a11.17,11.17,0,0,1-11.17-11.17V1153.17a11.17,11.17,0,0,1,11.17-11.17h108.44a11.18,11.18,0,0,1,10.46,7.23l63.57,168.66A11.16,11.16,0,0,1,2519.85,1333Z"/><path class="cls-15" d="M2229.36,1333.63h81.12a5.12,5.12,0,0,0,5.11-5.12v-181.4a5.11,5.11,0,0,0-5.11-5.11h-72.6a5.12,5.12,0,0,0-5.11,4.88l-8.52,181.39A5.12,5.12,0,0,0,2229.36,1333.63Z"/><g class="cls-16"><polygon class="cls-5" points="2223.57 1526.17 2156.91 1526.17 2450.46 1008.93 2517.12 1008.93 2223.57 1526.17"/><polygon class="cls-5" points="2264.93 1535.61 2247.36 1535.61 2540.91 1018.38 2558.49 1018.38 2264.93 1535.61"/><polygon class="cls-5" points="2383 1516.72 2349.67 1516.72 2643.22 999.49 2676.55 999.49 2383 1516.72"/></g><path class="cls-17" d="M2519.85,1338h-172a16.18,16.18,0,0,1-16.17-16.17V1153.17a16.18,16.18,0,0,1,16.17-16.17h108.44a16.25,16.25,0,0,1,15.13,10.47L2535,1316.13a16.17,16.17,0,0,1-15.13,21.87Zm-172-191a6.18,6.18,0,0,0-6.17,6.17v168.66a6.18,6.18,0,0,0,6.17,6.17h172a6.17,6.17,0,0,0,5.78-8.35L2462.05,1151a6.21,6.21,0,0,0-5.78-4Z"/><g class="cls-18"><polygon class="cls-5" points="2380.16 1488.61 2313.49 1488.61 2607.05 971.38 2673.71 971.38 2380.16 1488.61"/><polygon class="cls-5" points="2421.52 1498.06 2403.94 1498.06 2697.49 980.82 2715.07 980.82 2421.52 1498.06"/><polygon class="cls-5" points="2539.58 1479.16 2506.25 1479.16 2799.8 961.93 2833.13 961.93 2539.58 1479.16"/></g><path class="cls-17" d="M2635.67,1348.67a4.22,4.22,0,0,1-.79-.07l-54.61-8.71a19.84,19.84,0,0,1-15.12-11.7l-78.87-180.61a11.33,11.33,0,0,1,10.38-15.85h74.21a5,5,0,0,1,4.77,3.5l64.8,206.94a5,5,0,0,1-4.77,6.5Zm-139-206.94a1.27,1.27,0,0,0-1.11.6,1.25,1.25,0,0,0-.1,1.25l78.86,180.6a9.9,9.9,0,0,0,7.54,5.84l46.63,7.44-61.28-195.73Z"/><rect class="cls-19" x="2616" y="1382" width="19.33" height="144"/><rect class="cls-12" x="2579.33" y="1570" width="71" height="154.33" rx="10"/><path class="cls-15" d="M2579.33,1714.33a10,10,0,0,0,10,10h51a10,10,0,0,0,10-10Z"/><path class="cls-15" d="M2540.67,1562.67h0a4,4,0,0,1-4-4V1341.33a4,4,0,0,1,4-4h0a4,4,0,0,1,4,4v217.34A4,4,0,0,1,2540.67,1562.67Z"/><path class="cls-15" d="M2336.66,1469h0a4,4,0,0,1-4-4V1347.67a4,4,0,0,1,4-4h0a4,4,0,0,1,4,4V1465A4,4,0,0,1,2336.66,1469Z"/><rect class="cls-13" x="2336.66" y="1486" width="53.21" height="20.67"/><path class="cls-12" d="M2496.33,1102H2258v-8.67a10,10,0,0,1,10-10h184.52a53.32,53.32,0,0,1,30.09,9.3Z"/><polygon class="cls-15" points="2482.61 1092.63 2258 1093.33 2258 1102 2496.33 1102 2482.61 1092.63"/><path class="cls-12" d="M1180.22,1651H847.11a13.24,13.24,0,0,1-13.24-13.24V1622a13.24,13.24,0,0,1,3.17-8.6l449.89-527a8.8,8.8,0,0,1,6.7-3.09h33a8.8,8.8,0,0,1,8.53,11L1199,1636.34A19.39,19.39,0,0,1,1180.22,1651Z"/><rect class="cls-12" x="802.67" y="1670.19" width="366.33" height="88.81" rx="15"/><path class="cls-15" d="M802.67,1744a15,15,0,0,0,15,15H1154a15,15,0,0,0,15-15Z"/><path class="cls-12" d="M1103.8,1610.89a18.91,18.91,0,0,0-26.41,26l-32.21,48.06a18.92,18.92,0,1,0,12.44,8.34l32.21-48.06a18.91,18.91,0,0,0,14-34.31Z"/><path class="cls-15" d="M1089.61,1608a18.91,18.91,0,1,1,7.34,37.11,19.15,19.15,0,0,1-7.12,0l-32.21,48.06a18.87,18.87,0,1,1-12.44-8.34l32.21-48.06a18.91,18.91,0,0,1,12.22-28.82Zm-.46-2.32a21.29,21.29,0,0,0-14.56,31.07l-30.54,45.58a21.45,21.45,0,0,0-6.44.28,21.28,21.28,0,1,0,22.81,10.69l30.54-45.59a21.28,21.28,0,1,0-1.81-42Z"/><path class="cls-15" d="M1100.64,1631.53a8.87,8.87,0,1,1-2.43-12.3A8.86,8.86,0,0,1,1100.64,1631.53Z"/><path class="cls-15" d="M1049.1,1708.46a8.87,8.87,0,1,1-2.43-12.3A8.87,8.87,0,0,1,1049.1,1708.46Z"/><path class="cls-15" d="M1057.62,1693.26l32.21-48.06a19,19,0,0,1-7.08-2.89l-30.49,45.5A18.78,18.78,0,0,1,1057.62,1693.26Z"/><path class="cls-12" d="M989.13,1610.89a18.91,18.91,0,0,0-26.42,26l-32.2,48.06a18.92,18.92,0,1,0,12.44,8.34l32.2-48.06a18.92,18.92,0,0,0,14-34.31Z"/><path class="cls-15" d="M974.93,1608a18.91,18.91,0,1,1,7.34,37.11,19.15,19.15,0,0,1-7.12,0L943,1693.26a18.92,18.92,0,1,1-19.56-8.29,19.15,19.15,0,0,1,7.12,0l32.2-48.06A18.92,18.92,0,0,1,974.93,1608Zm-.46-2.32a21.28,21.28,0,0,0-14.55,31.07l-30.55,45.58a21.45,21.45,0,0,0-6.44.28,21.28,21.28,0,1,0,22.81,10.69l30.54-45.59a21.28,21.28,0,1,0-1.81-42Z"/><path class="cls-15" d="M986,1631.53a8.87,8.87,0,1,1-2.43-12.3A8.86,8.86,0,0,1,986,1631.53Z"/><path class="cls-15" d="M934.42,1708.46a8.87,8.87,0,1,1-2.43-12.3A8.87,8.87,0,0,1,934.42,1708.46Z"/><path class="cls-15" d="M943,1693.26l32.2-48.06a19,19,0,0,1-7.08-2.89l-30.49,45.5A18.94,18.94,0,0,1,943,1693.26Z"/><path class="cls-15" d="M1292.73,1112.41h26.65a3.6,3.6,0,0,1,3.47,4.54l-107.78,399a21.55,21.55,0,0,1-20.76,15.93l-238.86.51a8.17,8.17,0,0,1-6.27-13.42l340.76-405.23A3.63,3.63,0,0,1,1292.73,1112.41Z"/><polygon class="cls-15" points="1219.6 1554.4 1333.39 1101.16 1342 1101.16 1230 1554.4 1219.6 1554.4"/><path class="cls-15" d="M1886.33,1093.33h-8.66A7.67,7.67,0,0,0,1870,1101v453.4h24V1101A7.67,7.67,0,0,0,1886.33,1093.33Z"/><path class="cls-15" d="M1686.33,1093.33h-8.66A7.67,7.67,0,0,0,1670,1101v453.4h24V1101A7.67,7.67,0,0,0,1686.33,1093.33Z"/><path class="cls-15" d="M1476.33,1093.33h-8.66A7.67,7.67,0,0,0,1460,1101v453.4h24V1101A7.67,7.67,0,0,0,1476.33,1093.33Z"/><path class="cls-12" d="M1876.33,1093.33h-8.66A7.67,7.67,0,0,0,1860,1101v453.4h24V1101A7.67,7.67,0,0,0,1876.33,1093.33Z"/><path class="cls-12" d="M1676.33,1093.33h-8.66A7.67,7.67,0,0,0,1660,1101v453.4h24V1101A7.67,7.67,0,0,0,1676.33,1093.33Z"/><path class="cls-12" d="M1466.33,1093.33h-8.66A7.67,7.67,0,0,0,1450,1101v453.4h24V1101A7.67,7.67,0,0,0,1466.33,1093.33Z"/><path class="cls-12" d="M1759.67,1518H1282.33a29,29,0,0,0-29,29v174.12a29,29,0,0,0,25.55,28.79V1682.4a120,120,0,0,1,221.51-64h35.95a120,120,0,0,1,221.6,63.86l0,67.86h1.76a29,29,0,0,0,29-29V1547A29,29,0,0,0,1759.67,1518Z"/><path class="cls-15" d="M1757.92,1714.33v35.79h1.76a29,29,0,0,0,29-29v-6.79Z"/><path class="cls-15" d="M1253.33,1714.33v6.79a29,29,0,0,0,25.55,28.79v-35.58Z"/><path class="cls-15" d="M1788.67,1547v7.4h20V1547a29,29,0,0,0-29-29h-20A29,29,0,0,1,1788.67,1547Z"/><path class="cls-15" d="M1174,1218.7V1101a7.67,7.67,0,0,0-7.67-7.67h-8.66A7.67,7.67,0,0,0,1150,1101v145.81Z"/><path class="cls-12" d="M1164,1230.41V1101a7.67,7.67,0,0,0-7.67-7.67h-8.66A7.67,7.67,0,0,0,1140,1101v157.52Z"/><path class="cls-19" d="M2339.75,1032h21.5a18.75,18.75,0,0,1,18.75,18.75v32.58a0,0,0,0,1,0,0h-59a0,0,0,0,1,0,0v-32.58A18.75,18.75,0,0,1,2339.75,1032Z"/><path class="cls-20" d="M2336.66,1064.85a18.74,18.74,0,0,1,18.75-18.75h21.5a19.19,19.19,0,0,1,2.53.19,18.74,18.74,0,0,0-18.19-14.29h-21.5a18.74,18.74,0,0,0-18.75,18.75v32.58h15.66Z"/><polygon class="cls-8" points="889.19 1573.1 871.44 1573.1 883.83 1558.83 901.53 1558.81 889.19 1573.1"/><polygon class="cls-19" points="901.53 1558.81 883.83 1558.83 896.13 1544.67 913.78 1544.63 901.53 1558.81"/><polygon class="cls-8" points="913.78 1544.63 896.13 1544.67 908.34 1530.62 925.93 1530.56 913.78 1544.63"/><polygon class="cls-19" points="925.93 1530.56 908.34 1530.62 920.44 1516.67 937.99 1516.6 925.93 1530.56"/><polygon class="cls-8" points="937.99 1516.6 920.44 1516.67 932.46 1502.84 949.95 1502.74 937.99 1516.6"/><polygon class="cls-19" points="949.95 1502.74 932.46 1502.84 944.38 1489.11 961.82 1488.99 949.95 1502.74"/><polygon class="cls-8" points="961.82 1488.99 944.38 1489.11 956.22 1475.48 973.61 1475.35 961.82 1488.99"/><polygon class="cls-19" points="973.61 1475.35 956.22 1475.48 967.96 1461.96 985.3 1461.81 973.61 1475.35"/><polygon class="cls-8" points="985.3 1461.81 967.96 1461.96 979.61 1448.55 996.9 1448.38 985.3 1461.81"/><polygon class="cls-19" points="996.9 1448.38 979.61 1448.55 991.18 1435.23 1008.42 1435.04 996.9 1448.38"/><polygon class="cls-8" points="1008.42 1435.04 991.18 1435.23 1002.65 1422.01 1019.85 1421.81 1008.42 1435.04"/><polygon class="cls-19" points="1019.85 1421.81 1002.65 1422.01 1014.05 1408.89 1031.19 1408.67 1019.85 1421.81"/><polygon class="cls-8" points="1031.19 1408.67 1014.05 1408.89 1025.36 1395.87 1042.45 1395.63 1031.19 1408.67"/><polygon class="cls-19" points="1042.45 1395.63 1025.36 1395.87 1036.58 1382.95 1053.62 1382.69 1042.45 1395.63"/><polygon class="cls-8" points="1053.62 1382.69 1036.58 1382.95 1047.72 1370.12 1064.71 1369.85 1053.62 1382.69"/><polygon class="cls-19" points="1064.71 1369.85 1047.72 1370.12 1058.78 1357.39 1075.72 1357.1 1064.71 1369.85"/><path class="cls-15" d="M2066.67,1454.4H1884v-12h182.67a6,6,0,0,1,6,6h0A6,6,0,0,1,2066.67,1454.4Z"/><path class="cls-15" d="M1866.67,1454.4H1684v-12h182.67a6,6,0,0,1,6,6h0A6,6,0,0,1,1866.67,1454.4Z"/><path class="cls-15" d="M1656.67,1454.4H1474v-12h182.67a6,6,0,0,1,6,6h0A6,6,0,0,1,1656.67,1454.4Z"/><path class="cls-15" d="M1456.67,1454.4H1249l3-12h204.67a6,6,0,0,1,6,6h0A6,6,0,0,1,1456.67,1454.4Z"/><path class="cls-15" d="M2066.67,1354.4H1884v-12h182.67a6,6,0,0,1,6,6h0A6,6,0,0,1,2066.67,1354.4Z"/><path class="cls-15" d="M1866.67,1354.4H1684v-12h182.67a6,6,0,0,1,6,6h0A6,6,0,0,1,1866.67,1354.4Z"/><path class="cls-15" d="M1656.67,1354.4H1474v-12h182.67a6,6,0,0,1,6,6h0A6,6,0,0,1,1656.67,1354.4Z"/><path class="cls-15" d="M1456.67,1354.4H1272l3-12h181.67a6,6,0,0,1,6,6h0A6,6,0,0,1,1456.67,1354.4Z"/><path class="cls-15" d="M2066.67,1254.4H1884v-12h182.67a6,6,0,0,1,6,6h0A6,6,0,0,1,2066.67,1254.4Z"/><path class="cls-15" d="M1866.67,1254.4H1684v-12h182.67a6,6,0,0,1,6,6h0A6,6,0,0,1,1866.67,1254.4Z"/><path class="cls-15" d="M1656.67,1254.4H1474v-12h182.67a6,6,0,0,1,6,6h0A6,6,0,0,1,1656.67,1254.4Z"/><path class="cls-15" d="M1456.67,1254.4H1296l3-12h157.67a6,6,0,0,1,6,6h0A6,6,0,0,1,1456.67,1254.4Z"/><path class="cls-15" d="M2066.67,1154.4H1884v-12h182.67a6,6,0,0,1,6,6h0A6,6,0,0,1,2066.67,1154.4Z"/><path class="cls-15" d="M1866.67,1154.4H1684v-12h182.67a6,6,0,0,1,6,6h0A6,6,0,0,1,1866.67,1154.4Z"/><path class="cls-15" d="M1656.67,1154.4H1474v-12h182.67a6,6,0,0,1,6,6h0A6,6,0,0,1,1656.67,1154.4Z"/><path class="cls-15" d="M1456.67,1154.4H1322.5l3-12h131.17a6,6,0,0,1,6,6h0A6,6,0,0,1,1456.67,1154.4Z"/><rect class="cls-8" x="2559" y="1382" width="22.33" height="32.67" rx="7"/><rect class="cls-12" x="1828" y="1600.5" width="287" height="113.83" rx="20.5"/><path class="cls-15" d="M1828,1693.75v.08a20.5,20.5,0,0,0,20.5,20.5h246a20.5,20.5,0,0,0,20.5-20.5v-.08Z"/><path class="cls-15" d="M1892.17,1597.33h6.67a3,3,0,0,1,3,3v93.42a0,0,0,0,1,0,0h-12.67a0,0,0,0,1,0,0v-93.42a3,3,0,0,1,3-3Z"/><path class="cls-15" d="M2052.17,1597.33h6.67a3,3,0,0,1,3,3v93.42a0,0,0,0,1,0,0h-12.67a0,0,0,0,1,0,0v-93.42A3,3,0,0,1,2052.17,1597.33Z"/><path class="cls-12" d="M1888.17,1597.33h6.67a3,3,0,0,1,3,3v93.42a0,0,0,0,1,0,0h-12.67a0,0,0,0,1,0,0v-93.42A3,3,0,0,1,1888.17,1597.33Z"/><path class="cls-12" d="M2048.17,1597.33h6.67a3,3,0,0,1,3,3v93.42a0,0,0,0,1,0,0h-12.67a0,0,0,0,1,0,0v-93.42A3,3,0,0,1,2048.17,1597.33Z"/><path class="cls-15" d="M1863.29,1640.46h-6.58c-7.37,0-13.33,6.42-13.33,14.33s6,14.34,13.33,14.34h6.58c7.37,0,13.34-6.42,13.34-14.34S1870.66,1640.46,1863.29,1640.46Z"/><path class="cls-12" d="M1865,1654.84c0,7.06-4.4,12.79-9.83,12.79s-9.83-5.73-9.83-12.79,4.4-12.8,9.83-12.8S1865,1647.77,1865,1654.84Z"/><path class="cls-15" d="M2194.19,1750.12h-40.38a14.81,14.81,0,0,1-14.81-14.81h70A14.81,14.81,0,0,1,2194.19,1750.12Z"/><path class="cls-21" d="M596.36,1302.19s26.33,77,38.43,91.58,54.54,36.19,54.91,38.11c.88,4.59-2.63,11.74-6.6,11.77-14.11.07-42.71-10.65-56-23.35-14-13.43-36.2-90.19-36.2-90.19Z"/><path class="cls-22" d="M836.67,1729h-7.83c-10.5,0-19,14-19,31.35s8.5,31.36,19,31.36h7.83c10.49,0,19-14,19-31.36S847.16,1729,836.67,1729Z"/><path class="cls-23" d="M814.51,1772.13H709.33a20.58,20.58,0,0,1-20.56-19.46L669.84,1439.3H854l-18.93,313.37A20.59,20.59,0,0,1,814.51,1772.13Z"/><path class="cls-24" d="M844.51,1772.13H739.33c-10.94,0-20.56-1.64-20.56-19.46L699.84,1439.3H884l-18.93,313.37C865.07,1772.13,855.44,1772.13,844.51,1772.13Z"/><path class="cls-22" d="M673.12,1415.76H846.38a12.12,12.12,0,0,1,12.12,12.12v11.37a0,0,0,0,1,0,0H661a0,0,0,0,1,0,0v-11.37A12.12,12.12,0,0,1,673.12,1415.76Z"/><path class="cls-25" d="M709.12,1415.76H882.38a12.12,12.12,0,0,1,12.12,12.12v11.37a0,0,0,0,1,0,0H697a0,0,0,0,1,0,0v-11.37A12.12,12.12,0,0,1,709.12,1415.76Z"/><path class="cls-25" d="M696.67,1729h-7.83c-10.5,0-19,14-19,31.35s8.5,31.36,19,31.36h7.83c10.49,0,19-14,19-31.36S707.16,1729,696.67,1729Z"/><path class="cls-22" d="M702.78,1760.35c0,12.7-6.24,23-13.94,23s-13.94-10.3-13.94-23,6.24-23,13.94-23S702.78,1747.65,702.78,1760.35Z"/><path class="cls-22" d="M560,1765.9s-3.09,25.18,1.84,26.33c1.92.45,58.83-.12,58.83-.12s0-6.8-9.32-8.31-25.7-7.06-28.47-19.41S560,1765.9,560,1765.9Z"/><path class="cls-25" d="M616.33,1634.69c0,21.48-24.81,134.86-24.81,134.86s-25,4.5-35.85-6.25c0,0,2.36-105.17,6.12-127.54.76-4.53-.45-11.22-2.8-19.34-9.27-32-36.24-86.32-30-118.51,7.75-40.36,62.58,3.12,62.58,3.12s2.39,10.83,5.69,26.41C604.54,1562,616.33,1619.89,616.33,1634.69Z"/><path class="cls-22" d="M597.21,1527.44l-38.22,89c-9.27-32-36.24-86.32-30-118.51,7.75-40.36,62.58,3.12,62.58,3.12S593.91,1511.86,597.21,1527.44Z"/><path class="cls-22" d="M420.88,1743.35s-10.33,9.57-8.31,16.38,11.34,11.34,12.6,19.65,6.3,12.85,10.83,12.85h21.63s3.34-5.85-4.73-7.61-11.1-11.54-10.6-20.61a161.76,161.76,0,0,0-.75-21.17l-17.14-4Z"/><path class="cls-25" d="M592.5,1476.88s-65,125.39-101.31,190.41-47.63,83.16-47.63,83.16-20.79-8.32-22.68-14c0,0,18.66-107.56,48.81-145.55,13.73-17.29,13.11-66.07,17.18-93.34,2.69-18,14.91-49.69,14.91-49.69Z"/><path class="cls-26" d="M618.21,1291.58a51.52,51.52,0,0,1,9.22,16.37c-22.57-1.55-50.58-32.29-50.58-32.29s16.37-4.52,27.91-22.61c.58-.91,1.15-1.86,1.7-2.83a65.92,65.92,0,0,0,4.73-10.44l6.69,11.73L629,1271a142.09,142.09,0,0,1-7.69,15.26Q619.9,1288.77,618.21,1291.58Z"/><path class="cls-27" d="M634.31,1340.47c-.7,11-4,27.57-8.49,46-1.75,7.14-3.67,14.55-5.68,22-3.27,12.1-6.67,24.28-10.18,35.75l-.14.4c-.25,1.17-.64,2.41-1,3.54-3.05,10.12-6,19.49-8.51,27.45-4.87,15.21-4.91,23.69-8.79,25.41-7.82,3.45-38.58-.26-57-8.24-15.57-6.63-39.3-26.63-39.18-36.69.15-11.67,15.8-46.79,26.18-87.8,12.8-50.09,41.2-90.09,64.88-98.34,1.77-.58,3.66,3.14,10.52,9.73,6.35,6.09,14.33,9.88,21.9,10.69l4.5,7.53C629.42,1308.67,635.44,1322.59,634.31,1340.47Z"/><path class="cls-28" d="M625.82,1386.47c-1.75,7.14-3.67,14.55-5.68,22-3.27,12.1-6.67,24.28-10.18,35.75l-.14.4c-.25,1.17-.64,2.41-1,3.54-3.05,10.12-6,19.49-8.51,27.45C551.05,1413.05,566,1329,566,1329Z"/><path class="cls-21" d="M629,1271a142.09,142.09,0,0,1-7.69,15.26c-13.83-10.17-16.19-26.51-16.55-33.23-.11-1.9-.06-3-.06-3l1.76.2,11.42,1.29Z"/><path class="cls-26" d="M635.33,1273s-35.32-7.52-30.3-29.44,3.84-37.66,26.6-33.79,25.21,13.24,25.32,21S644.64,1274.35,635.33,1273Z"/><path class="cls-25" d="M604.69,1245s11.56-27.46,43.52-20c21.88,5.08,16.15-17.13,14.86-20.8,0,0-17-3.19-34.59-6C591.57,1192.29,602.71,1239.5,604.69,1245Z"/><path class="cls-8" d="M623.31,1297.91l-4.5-7.53c-7.57-.81-15.55-4.6-21.9-10.69-6.86-6.59-8.75-10.31-10.52-9.73-23.68,8.25-52.08,48.25-64.88,98.34-10.38,41-26,76.13-26.18,87.8-.12,10.06,23.61,30.06,39.18,36.69,18.43,8,49.19,11.69,57,8.24,3.88-1.72,3.92-10.2,8.79-25.41,2.54-8,5.46-17.33,8.51-27.45.36-1.13.75-2.37,1-3.54l.14-.4c3.51-11.47,6.91-23.65,10.18-35.75,2-7.46,3.93-14.87,5.68-22,4.49-18.43,7.79-35,8.49-46C635.44,1322.59,629.42,1308.67,623.31,1297.91Zm1.37,53.54c-8.72,28.1-34,45.24-56.4,38.28s-33.55-35.38-24.83-63.48,34-45.24,56.4-38.28S633.39,1323.34,624.68,1351.45Z"/><path class="cls-29" d="M609.82,1444.63l.14-.4c2.5-8.18,4.95-16.73,7.34-25.35l-22.23-31.42c-8.57,4-17.9,5-26.79,2.27a32.61,32.61,0,0,1-3.14-1.16c3.34,28,12.57,62.4,36.59,82.58,2.19-6.92,4.59-14.69,7.09-23C609.18,1447,609.57,1445.8,609.82,1444.63Z"/><path class="cls-26" d="M681.44,1444.46s14.43,4.33,23.8,1.91,25.13,2.81,27.56,6.29,1.44,4.78-3.19,5.77-21.14,7.25-31.64,2.81-24.41-5.14-24.41-5.14Z"/><path class="cls-30" d="M607.64,1452.06l1.18-3.89c.36-1.13.75-2.37,1-3.54l.14-.4q1.53-5,3-10.21c-38.12-19.26-72.62-42.12-93.78-57.06-1.58,5.74-3.24,11.35-4.92,16.75C532.43,1406.26,569.86,1431.39,607.64,1452.06Z"/><path class="cls-31" d="M577.31,1434.57c9.84,5.93,20.07,11.88,30.33,17.49l1.18-3.89c.36-1.13.75-2.37,1-3.54l.14-.4q1.53-5,3-10.21c-15.27-7.72-30-16-43.43-24.14A214.71,214.71,0,0,0,577.31,1434.57Z"/><path class="cls-26" d="M560.6,1312.83s11.7,117,38.38,128.51c13.17,5.68,72.79,15.2,90.23,17.08,0,0,3.47,2.44,3-11.75,0,0-61-26.46-69.34-39.18-12.36-18.92,11.14-74.84-4.59-92.78S575.16,1288.23,560.6,1312.83Z"/><path class="cls-27" d="M623.82,1367.4s-44.7.24-55.73,12.14l-12-70.72,31.31-19.17,31.81,20.58S631.23,1324.37,623.82,1367.4Z"/><polygon class="cls-32" points="942.33 1578.59 917.02 1572.06 877 1593.29 846.78 1647.19 859.03 1682.31 834.53 1717.43 833.72 1777.04 823.84 1791.7 984.8 1791.74 1012.57 1743.56 1015.83 1667.61 997.05 1589.21 963.57 1573.69 942.33 1578.59"/><path class="cls-33" d="M940.64,1573.65l-6-19.27a3.4,3.4,0,0,0-3.42-2.38c-5.41.28-17.24,1-17.24,2C914,1555.41,940.64,1573.65,940.64,1573.65Z"/><path class="cls-33" d="M943.91,1574.47l.87-13.26a2.73,2.73,0,0,1,3.45-2.46l5.44,1.49a4.62,4.62,0,0,1,1,8.53Z"/><path class="cls-33" d="M935.72,1574.77l1.22-2.2a3,3,0,0,1,2.56-1.53l7.66-.09a3,3,0,0,1,2.42,1.19l1.19,1.59a3,3,0,0,1,.56,2.26l-.19,1.16a3,3,0,0,1-3.08,2.5l-9.87-.47A3,3,0,0,1,935.72,1574.77Z"/><path class="cls-33" d="M877,1593.29l16,42a2.9,2.9,0,0,0,5.34.17l6.51-14.28a5.78,5.78,0,0,0-1.65-6.91Z"/><path class="cls-33" d="M860.34,1684s19.6,23.86,15.79,27.68-39.14,5.75-39.14,5.75Z"/><path class="cls-33" d="M1012.57,1743.56s-72.84,24.19-68.84,32.91,41.07,15.27,41.07,15.27Z"/><path class="cls-33" d="M926,1662.37l77.74,8.94a2.43,2.43,0,0,1,.57,4.7l-44.47,16.48a8.39,8.39,0,0,1-8.54-1.66l-27-24.59A2.23,2.23,0,0,1,926,1662.37Z"/><path class="cls-33" d="M934.38,1582.36,916.09,1587a4.64,4.64,0,0,0-2.76,7l2.17,3.39a3.51,3.51,0,0,0,5.63.4Z"/><path class="cls-33" d="M943.91,1581.82l18.28-3.21a4.48,4.48,0,0,1,3.4.78l7.29,5.26a1.56,1.56,0,0,1-1.23,2.8Z"/><path class="cls-31" d="M1823.7,1748.27s9.53,8.83,7.67,15.11-10.46,10.46-11.62,18.13-5.82,11.86-10,11.86h-20s-3.08-5.4,4.36-7,10.24-10.64,9.78-19a148.63,148.63,0,0,1,.7-19.53l15.8-3.72Z"/><path class="cls-31" d="M1706.77,1771.12s1.71,20.1-2.47,22.19h-53.6s0-6.39,8.65-7.78,23.71-6.51,26.27-17.9S1706.77,1771.12,1706.77,1771.12Z"/><path class="cls-34" d="M1661.56,1487.14s2.82,35.24,6.14,77.6c4.51,57.54,9.94,128.22,10.48,141.61.93,23.25,4.65,60.44,4.65,60.44s8.83,8.84,26.5,5.11c0,0,15.75-53.09,20.25-109.27.07-.92.14-1.84.2-2.77,4.19-57.19,10.7-177.6,10.7-177.6Z"/><path class="cls-29" d="M1661.56,1487.14s2.82,35.24,6.14,77.6l61.88,97.89c.07-.92.14-1.84.2-2.77,4.19-57.19,10.7-177.6,10.7-177.6Z"/><path class="cls-34" d="M1674.46,1491.32s50.91,127.62,84.38,187.6,43.94,76.71,43.94,76.71,19.18-7.67,20.92-12.9c0,0-12.8-115.78-35.22-144-12.67-16-27.55-63.81-28.24-80.55s-4.54-49.86-4.54-49.86Z"/><path class="cls-35" d="M1741.44,1294.65s-34.45,16.88-54.31,10.61a47.07,47.07,0,0,1,13.45-10.92c-.69-4-1.22-7.56-1.53-10.54a98.8,98.8,0,0,1-.84-10.77l13.29-10.61,12.6-10.16C1723.11,1280.82,1741.44,1294.65,1741.44,1294.65Z"/><path class="cls-24" d="M1759.59,1474.84c.08,2.14-4.43,4.59-6.41,5.5-14.75,6.57-28.49,11.15-44.07,12.68-18.41,1.91-40.18-2.29-47.66-2.14a3,3,0,0,1-2.06-.84c-.54-.38-.92-22.91-.54-51.24,0-1.15,0-2.3.08-3.44V1435c.15-11.08.53-22.69,1.07-34.3,1.07-25.51,3-50.1,6.41-63.69,4-16,13.22-26.66,21.54-34.37l6.87-6.12a32.54,32.54,0,0,0,21.39-2.59c7.94-3.9,16.66-8.42,18-7.36,10.38,7.72,17.25,25.38,21,47.53a248.87,248.87,0,0,1,3.13,42c0,5.5-.15,11.15-.46,16.73-1.83,30.24,0,56.51,1.07,71.71C1759.29,1469,1759.52,1472.4,1759.59,1474.84Z"/><path class="cls-23" d="M1759,1464.53c-166.88-.23-30.78-124.41-30.78-124.41l27-6a248.87,248.87,0,0,1,3.13,42c0,5.5-.15,11.15-.46,16.73C1756.08,1423.06,1757.91,1449.33,1759,1464.53Z"/><path class="cls-32" d="M1684.74,1382.81l-.53,12.68-.54,11.76-1.68,40.17-23.67,41s-17.72,18.79-63.32,18.79c-56.83,0-65.23-31.32-65.23-31.32l.69-50.71,20.85-29.86-10.39-29.87,25.67-45.9,34.06-18,21.54,5.57,18.1-4.2,28.49,13.21Z"/><path class="cls-33" d="M1620.76,1302.89l-5.12-16.39a2.89,2.89,0,0,0-2.91-2c-4.6.23-14.67.85-14.67,1.74C1598.06,1287.37,1620.76,1302.89,1620.76,1302.89Z"/><path class="cls-33" d="M1623.54,1303.59l.74-11.29a2.33,2.33,0,0,1,2.94-2.09l4.63,1.27a3.93,3.93,0,0,1,.81,7.25Z"/><path class="cls-33" d="M1616.58,1303.84l1-1.87a2.55,2.55,0,0,1,2.18-1.3l6.52-.08a2.54,2.54,0,0,1,2.06,1l1,1.35a2.49,2.49,0,0,1,.47,1.92l-.15,1a2.55,2.55,0,0,1-2.63,2.13l-8.39-.4A2.53,2.53,0,0,1,1616.58,1303.84Z"/><path class="cls-33" d="M1566.61,1319.6l13.6,35.76a2.47,2.47,0,0,0,4.55.14l5.54-12.14a4.92,4.92,0,0,0-1.4-5.88Z"/><path class="cls-33" d="M1551.31,1395.34s15.66,21.74,12.41,25-33.3,4.89-33.3,4.89Z"/><path class="cls-33" d="M1682,1447.45s-62,20.59-58.57,28,34.94,13,34.94,13Z"/><path class="cls-33" d="M1684.21,1395.49l-.54,11.76-57.59,5.58a2.17,2.17,0,0,1-1.37-4l35.59-22.61a7.55,7.55,0,0,1,7.72-.15Z"/><path class="cls-33" d="M1615.44,1310.3l-15.56,4a3.94,3.94,0,0,0-2.35,6l1.84,2.89a3,3,0,0,0,4.79.33Z"/><path class="cls-33" d="M1623.54,1309.84l15.56-2.73a3.82,3.82,0,0,1,2.89.66l6.2,4.48a1.33,1.33,0,0,1-1,2.38Z"/><path class="cls-36" d="M1641.86,1413.37l-6.18-2s-4.33-14.3-18.94-7.9c0,0-5.93,3.15-3.32,6.87s2.14,1.76,5.71,7.12,9.22,7.91,13.73,5.88l5.13.15Z"/><path class="cls-24" d="M1741.45,1294.61s37.79,60.1-2.47,129.56c-12.56,21.68-107.48,1.07-107.48,1.07s-3.7-6.68,6.2-13.72c0,0,63.2-10.7,70.73-12.49,6.69-1.59,2.23-63,9.87-80.83A44.93,44.93,0,0,1,1741.45,1294.61Z"/><path class="cls-37" d="M1724.33,1263.18s-8.71,16.11-25.28,20.62a98.8,98.8,0,0,1-.84-10.77l13.29-10.61Z"/><path class="cls-35" d="M1692.15,1272.57s32.86,5.46,35.95-15.06,9.4-33.63-11.45-38-26.11,2.86-28.81,9.46S1683.68,1270.62,1692.15,1272.57Z"/><path class="cls-25" d="M1740,1217.07c.3-.35,1-.63,2.52-.71a6.15,6.15,0,0,0-2.86-.82c-.32-2.16-1.46-6-5.12-6.92a4.65,4.65,0,0,1,2.22,3.37c-4.24-4.43-13.33-7.65-38.52-5.63-33.19,2.66-22.25,24.24-18,26.81s15.11-4.48,23.12-3.84,9.52,12.4,12.24,14,1.65-1.24,5.32-2.92,4,4.49,3,8.51,4,9.33,4,9.33l5.1-5.58c5.11-5.58,9.91-29.22,7.59-34.26Z"/><rect class="cls-38" x="221.05" y="1793.21" width="2578.04" height="25.29" rx="2.07"/><g class="cls-39"><path class="cls-2" d="M813.23,1568.33l17.7,30.6s4.71,7.34,1.68,14.67l15.69-26.4a17,17,0,0,0,2.21-11.61,11.36,11.36,0,0,0-1-3.28c-2-3.77-10.79-18.75-10.79-18.75l14.56-8.18L816.68,1544,800,1575.88Z"/><path class="cls-2" d="M824.85,1593.48H799.08v29.77h17.18s18.44-1.47,13.94-19.5Z"/><path class="cls-2" d="M769.47,1592l-35.34-.81s-8.71.21-13.39-6.2l14.36,27.14a17,17,0,0,0,8.76,7.94,11.73,11.73,0,0,0,3.34.82c4.25.26,21.62.55,21.62.55l-.6,16.69,20.2-30.52-18.52-30.81Z"/><path class="cls-2" d="M742,1588.8l13.41-22L730,1551.3,721,1566s-8.35,16.51,9.38,22Z"/><path class="cls-2" d="M771.45,1541.74l17.85-30.52s4.05-7.72,11.92-8.7l-30.69-.61a17,17,0,0,0-11.19,3.81,11.71,11.71,0,0,0-2.34,2.52c-2.29,3.6-11,18.65-11,18.65l-14.3-8.62,16.88,32.47,35.91-1.25Z"/><path class="cls-2" d="M787.56,1519.2l12.73,22.42,25.87-14.7-8.48-15s-10.39-15.31-23.83-2.49Z"/></g></svg>