<svg width="1217" height="348" viewBox="0 0 1217 348" fill="none" xmlns="http://www.w3.org/2000/svg">
<path fill-rule="evenodd" clip-rule="evenodd" d="M221.611 22.5883C246.129 10.1126 276.116 19.8751 288.593 44.396C301.066 68.9089 291.309 98.9045 266.79 111.38C262.125 113.754 257.264 115.318 252.362 116.136C283.827 150.339 307.838 203.254 292.698 274.919C258.77 138.017 152.504 81.8023 49.0964 147.813C73.4041 79.5143 143.274 57.7409 195.168 75.8013C191.369 54.7339 201.545 32.7984 221.611 22.5883" fill="#A0C570"/>
<path fill-rule="evenodd" clip-rule="evenodd" d="M192.675 280.34C111.844 269.967 49.1839 233.149 39.6175 168.017C182.993 87.5027 271.134 207.859 269.354 300.522C251.045 314.585 230.19 324.614 208.225 330.266C150.004 344.716 85.9207 327.39 43.007 279.672C-18.9157 210.824 -13.3056 104.808 55.5441 42.8873C63.5813 35.6613 72.1219 29.3735 81.0322 23.9777C-28.1742 137.196 26.0719 279.233 192.675 280.34" fill="#36572A"/>
<path d="M377.261 190H411.176C431.076 190 446.772 181.732 446.772 163.092C446.772 150.9 439.905 144.033 426.872 141.65V141.09C437.523 138.287 442.288 129.458 442.288 121.33C442.288 103.811 427.573 98.6262 408.513 98.6262H377.261V190ZM398.002 135.484V114.603H407.812C417.342 114.603 422.107 117.405 422.107 124.273C422.107 131.14 417.622 135.484 407.532 135.484H398.002ZM398.002 174.024V150.059H409.494C420.846 150.059 426.592 153.563 426.592 161.551C426.592 169.819 420.705 174.024 409.494 174.024H398.002ZM464.783 170.66C464.783 182.432 472.771 191.682 485.384 191.682C493.232 191.682 499.819 188.038 505.705 182.853H506.126L507.667 190H524.484V150.199C524.484 128.897 514.674 118.807 496.876 118.807C485.945 118.807 475.995 122.591 467.165 127.916L474.453 141.51C481.18 137.586 487.066 135.204 492.952 135.204C500.38 135.204 503.463 139.128 503.883 145.294C476.415 148.097 464.783 156.085 464.783 170.66ZM484.403 169.119C484.403 163.793 489.168 159.589 503.883 157.627V169.819C500.239 173.463 497.156 175.705 492.391 175.705C487.486 175.705 484.403 173.603 484.403 169.119ZM549.175 190H569.776V149.639C573.42 140.249 579.867 136.885 585.052 136.885C587.995 136.885 590.097 137.306 592.62 138.007L595.983 120.208C594.021 119.367 591.639 118.807 587.715 118.807C580.567 118.807 572.999 123.292 567.954 132.681H567.394L565.992 120.489H549.175V190ZM614.824 164.774C614.824 180.891 621.551 191.682 638.788 191.682C645.515 191.682 650.56 190.28 654.204 189.159L650.981 174.164C649.159 174.865 646.636 175.565 644.394 175.565C638.929 175.565 635.425 172.342 635.425 164.494V136.605H652.102V120.489H635.425V101.99H618.327L615.945 120.489L605.294 121.33V136.605H614.824V164.774ZM667.244 155.244C667.244 178.228 682.52 191.682 702.42 191.682C710.689 191.682 719.938 188.739 727.086 183.834L720.219 171.361C715.173 174.444 710.409 175.986 705.223 175.986C695.974 175.986 688.967 171.361 687.145 160.85H728.767C729.188 159.168 729.608 155.805 729.608 152.161C729.608 133.242 719.798 118.807 700.038 118.807C683.361 118.807 667.244 132.681 667.244 155.244ZM687.005 148.097C688.406 138.848 694.012 134.503 700.458 134.503C708.727 134.503 712.09 140.109 712.09 148.097H687.005ZM750.851 190H771.452V149.639C775.096 140.249 781.543 136.885 786.728 136.885C789.671 136.885 791.773 137.306 794.296 138.007L797.659 120.208C795.697 119.367 793.315 118.807 789.391 118.807C782.243 118.807 774.676 123.292 769.63 132.681H769.07L767.668 120.489H750.851V190ZM815.239 190H849.153C869.054 190 884.75 181.732 884.75 163.092C884.75 150.9 877.883 144.033 864.85 141.65V141.09C875.501 138.287 880.265 129.458 880.265 121.33C880.265 103.811 865.55 98.6262 846.491 98.6262H815.239V190ZM835.98 135.484V114.603H845.79C855.32 114.603 860.085 117.405 860.085 124.273C860.085 131.14 855.6 135.484 845.51 135.484H835.98ZM835.98 174.024V150.059H847.472C858.823 150.059 864.569 153.563 864.569 161.551C864.569 169.819 858.683 174.024 847.472 174.024H835.98ZM902.761 170.66C902.761 182.432 910.749 191.682 923.362 191.682C931.21 191.682 937.797 188.038 943.683 182.853H944.103L945.645 190H962.462V150.199C962.462 128.897 952.652 118.807 934.854 118.807C923.922 118.807 913.972 122.591 905.143 127.916L912.431 141.51C919.158 137.586 925.044 135.204 930.93 135.204C938.357 135.204 941.441 139.128 941.861 145.294C914.393 148.097 902.761 156.085 902.761 170.66ZM922.381 169.119C922.381 163.793 927.146 159.589 941.861 157.627V169.819C938.217 173.463 935.134 175.705 930.369 175.705C925.464 175.705 922.381 173.603 922.381 169.119ZM999.766 198.689C999.766 196.166 1001.03 194.064 1003.55 191.822C1005.79 192.383 1008.59 192.663 1013.36 192.663H1020.51C1027.37 192.663 1031.16 193.784 1031.16 198.128C1031.16 202.893 1024.43 206.677 1015.18 206.677C1005.93 206.677 999.766 203.874 999.766 198.689ZM982.808 201.912C982.808 214.245 995.701 219.571 1011.96 219.571C1035.78 219.571 1050.78 209.06 1050.78 194.625C1050.78 182.152 1041.39 176.967 1024.29 176.967H1013.08C1005.37 176.967 1002.57 175.285 1002.57 171.781C1002.57 169.399 1003.27 168.138 1005.09 166.596C1008.17 167.577 1010.98 167.997 1013.5 167.997C1028.78 167.997 1040.83 160.57 1040.83 144.593C1040.83 140.95 1039.85 137.586 1038.59 135.484H1049.66V120.489H1024.29C1021.21 119.367 1017.42 118.807 1013.5 118.807C998.504 118.807 984.77 127.216 984.77 143.893C984.77 152.021 989.255 158.608 994.16 161.971V162.532C989.675 165.615 986.312 170.52 986.312 175.565C986.312 181.311 989.115 184.955 992.758 187.337V187.898C986.312 191.542 982.808 196.166 982.808 201.912ZM1013.5 155.525C1008.03 155.525 1003.97 151.601 1003.97 143.893C1003.97 136.465 1008.03 132.681 1013.5 132.681C1018.97 132.681 1023.03 136.605 1023.03 143.893C1023.03 151.601 1018.97 155.525 1013.5 155.525ZM1062.49 155.244C1062.49 178.228 1077.77 191.682 1097.67 191.682C1105.94 191.682 1115.19 188.739 1122.34 183.834L1115.47 171.361C1110.42 174.444 1105.66 175.986 1100.47 175.986C1091.22 175.986 1084.22 171.361 1082.39 160.85H1124.02C1124.44 159.168 1124.86 155.805 1124.86 152.161C1124.86 133.242 1115.05 118.807 1095.29 118.807C1078.61 118.807 1062.49 132.681 1062.49 155.244ZM1082.25 148.097C1083.66 138.848 1089.26 134.503 1095.71 134.503C1103.98 134.503 1107.34 140.109 1107.34 148.097H1082.25ZM1145.54 178.789C1145.54 186.076 1150.87 191.682 1158.01 191.682C1165.16 191.682 1170.49 186.076 1170.49 178.789C1170.49 171.361 1165.16 165.755 1158.01 165.755C1150.87 165.755 1145.54 171.361 1145.54 178.789Z" fill="#36572A"/>
<path d="M377.028 257.736H386.634V285H390.332V257.736H399.938V254.455H377.028V257.736ZM416.489 275.634C416.489 279.929 413.208 281.898 410.583 281.898C407.66 281.898 405.572 279.75 405.572 276.409V262.091H402.052V276.648C402.052 282.494 405.154 285.298 409.449 285.298C412.91 285.298 415.177 283.449 416.251 281.122H416.489V285H420.009V262.091H416.489V275.634ZM426.456 285H429.976V276.424L432.437 274.142L441.013 285H445.487L435.092 271.875L444.771 262.091H440.416L430.393 272.293H429.976V254.455H426.456V285ZM456.043 285.537C460.04 285.537 462.128 283.389 462.844 281.898H463.023V285H466.543V269.906C466.543 262.628 460.995 261.793 458.072 261.793C454.611 261.793 450.674 262.986 448.884 267.162L452.225 268.355C453.001 266.685 454.835 264.895 458.191 264.895C461.427 264.895 463.023 266.61 463.023 269.548V269.668C463.023 271.368 461.293 271.219 457.117 271.756C452.866 272.308 448.228 273.247 448.228 278.497C448.228 282.972 451.688 285.537 456.043 285.537ZM456.58 282.375C453.776 282.375 451.748 281.122 451.748 278.676C451.748 275.992 454.194 275.156 456.938 274.798C458.43 274.619 462.427 274.202 463.023 273.486V276.708C463.023 279.571 460.756 282.375 456.58 282.375ZM472.968 285H476.488V270.503C476.488 267.401 478.934 265.134 482.275 265.134C483.214 265.134 484.184 265.313 484.422 265.372V261.793C484.02 261.763 483.095 261.733 482.573 261.733C479.828 261.733 477.442 263.284 476.607 265.551H476.368V262.091H472.968V285ZM517.589 262.091H521.169C521.004 257.482 516.754 254.037 510.847 254.037C505.001 254.037 500.407 257.438 500.407 262.568C500.407 266.685 503.39 269.131 508.163 270.503L511.921 271.577C515.143 272.472 518.007 273.605 518.007 276.648C518.007 279.989 514.785 282.196 510.549 282.196C506.91 282.196 503.688 280.585 503.39 277.125H499.572C499.93 282.136 503.987 285.537 510.549 285.537C517.589 285.537 521.586 281.659 521.586 276.708C521.586 270.98 516.157 269.131 512.995 268.296L509.893 267.46C507.626 266.864 503.987 265.671 503.987 262.389C503.987 259.466 506.671 257.318 510.728 257.318C514.427 257.318 517.231 259.078 517.589 262.091ZM533.932 285.537C537.929 285.537 540.017 283.389 540.733 281.898H540.912V285H544.432V269.906C544.432 262.628 538.884 261.793 535.96 261.793C532.5 261.793 528.562 262.986 526.773 267.162L530.114 268.355C530.889 266.685 532.724 264.895 536.08 264.895C539.316 264.895 540.912 266.61 540.912 269.548V269.668C540.912 271.368 539.182 271.219 535.006 271.756C530.755 272.308 526.116 273.247 526.116 278.497C526.116 282.972 529.577 285.537 533.932 285.537ZM534.469 282.375C531.665 282.375 529.636 281.122 529.636 278.676C529.636 275.992 532.082 275.156 534.827 274.798C536.318 274.619 540.315 274.202 540.912 273.486V276.708C540.912 279.571 538.645 282.375 534.469 282.375ZM550.856 285H554.376V270.682C554.376 267.326 556.822 264.955 559.567 264.955C562.236 264.955 564.101 266.7 564.101 269.31V285H567.68V270.085C567.68 267.132 569.53 264.955 572.751 264.955C575.257 264.955 577.405 266.282 577.405 269.668V285H580.925V269.668C580.925 264.284 578.031 261.793 573.944 261.793C570.663 261.793 568.262 263.299 567.084 265.671H566.845C565.711 263.225 563.713 261.793 560.7 261.793C557.717 261.793 555.51 263.225 554.555 265.671H554.257V262.091H550.856V285ZM587.36 293.591H590.88V281.48H591.178C591.954 282.733 593.445 285.477 597.86 285.477C603.588 285.477 607.585 280.884 607.585 273.605C607.585 266.386 603.588 261.793 597.801 261.793C593.326 261.793 591.954 264.537 591.178 265.73H590.761V262.091H587.36V293.591ZM590.82 273.546C590.82 268.415 593.088 264.955 597.383 264.955C601.857 264.955 604.065 268.713 604.065 273.546C604.065 278.438 601.798 282.315 597.383 282.315C593.147 282.315 590.82 278.736 590.82 273.546ZM619.695 285.537C623.693 285.537 625.781 283.389 626.497 281.898H626.676V285H630.195V269.906C630.195 262.628 624.647 261.793 621.724 261.793C618.264 261.793 614.326 262.986 612.536 267.162L615.877 268.355C616.653 266.685 618.487 264.895 621.843 264.895C625.08 264.895 626.676 266.61 626.676 269.548V269.668C626.676 271.368 624.945 271.219 620.769 271.756C616.519 272.308 611.88 273.247 611.88 278.497C611.88 282.972 615.34 285.537 619.695 285.537ZM620.232 282.375C617.428 282.375 615.4 281.122 615.4 278.676C615.4 275.992 617.846 275.156 620.59 274.798C622.082 274.619 626.079 274.202 626.676 273.486V276.708C626.676 279.571 624.409 282.375 620.232 282.375ZM640.14 271.219C640.14 267.222 642.69 264.955 646.165 264.955C649.477 264.955 651.475 267.043 651.475 270.682V285H654.995V270.443C654.995 264.552 651.863 261.793 647.18 261.793C643.57 261.793 641.512 263.299 640.438 265.671H640.14V254.455H636.62V285H640.14V271.219ZM661.434 285H664.954V270.682C664.954 267.326 667.4 264.955 670.145 264.955C672.814 264.955 674.679 266.7 674.679 269.31V285H678.258V270.085C678.258 267.132 680.108 264.955 683.329 264.955C685.835 264.955 687.983 266.282 687.983 269.668V285H691.503V269.668C691.503 264.284 688.609 261.793 684.523 261.793C681.241 261.793 678.84 263.299 677.662 265.671H677.423C676.29 263.225 674.291 261.793 671.278 261.793C668.295 261.793 666.088 263.225 665.133 265.671H664.835V262.091H661.434V285ZM712.376 275.634C712.376 279.929 709.095 281.898 706.47 281.898C703.546 281.898 701.458 279.75 701.458 276.409V262.091H697.938V276.648C697.938 282.494 701.041 285.298 705.336 285.298C708.796 285.298 711.063 283.449 712.137 281.122H712.376V285H715.896V262.091H712.376V275.634ZM727.593 280.824H723.775L723.596 282.494C723.163 286.536 722.313 290.563 721.925 292.458H724.61C725.326 290.429 726.847 285.835 727.354 282.435L727.593 280.824ZM763.108 262.091H766.688C766.524 257.482 762.273 254.037 756.367 254.037C750.52 254.037 745.927 257.438 745.927 262.568C745.927 266.685 748.91 269.131 753.682 270.503L757.441 271.577C760.662 272.472 763.526 273.605 763.526 276.648C763.526 279.989 760.305 282.196 756.069 282.196C752.43 282.196 749.208 280.585 748.91 277.125H745.091C745.449 282.136 749.506 285.537 756.069 285.537C763.108 285.537 767.106 281.659 767.106 276.708C767.106 270.98 761.677 269.131 758.515 268.296L755.412 267.46C753.145 266.864 749.506 265.671 749.506 262.389C749.506 259.466 752.191 257.318 756.248 257.318C759.947 257.318 762.751 259.078 763.108 262.091ZM782.315 285.477C786.968 285.477 790.369 283.151 791.443 279.69L788.042 278.736C787.147 281.122 785.074 282.315 782.315 282.315C778.184 282.315 775.335 279.646 775.171 274.739H791.801V273.247C791.801 264.716 786.73 261.793 781.957 261.793C775.752 261.793 771.636 266.685 771.636 273.725C771.636 280.764 775.693 285.477 782.315 285.477ZM775.171 271.696C775.409 268.132 777.93 264.955 781.957 264.955C785.775 264.955 788.221 267.818 788.221 271.696H775.171ZM797.155 262.091V286.671C797.155 288.997 796.201 290.31 794.053 290.31H793.397V293.591H794.113C798.527 293.591 800.675 290.906 800.675 286.671V262.091H797.155ZM798.885 258.273C800.257 258.273 801.391 257.199 801.391 255.886C801.391 254.574 800.257 253.5 798.885 253.5C797.513 253.5 796.38 254.574 796.38 255.886C796.38 257.199 797.513 258.273 798.885 258.273ZM813.863 285.537C817.861 285.537 819.949 283.389 820.665 281.898H820.844V285H824.363V269.906C824.363 262.628 818.815 261.793 815.892 261.793C812.432 261.793 808.494 262.986 806.704 267.162L810.045 268.355C810.821 266.685 812.655 264.895 816.011 264.895C819.248 264.895 820.844 266.61 820.844 269.548V269.668C820.844 271.368 819.113 271.219 814.937 271.756C810.687 272.308 806.048 273.247 806.048 278.497C806.048 282.972 809.508 285.537 813.863 285.537ZM814.4 282.375C811.596 282.375 809.568 281.122 809.568 278.676C809.568 275.992 812.014 275.156 814.758 274.798C816.25 274.619 820.247 274.202 820.844 273.486V276.708C820.844 279.571 818.577 282.375 814.4 282.375ZM834.308 271.219C834.308 267.222 836.858 264.955 840.333 264.955C843.645 264.955 845.643 267.043 845.643 270.682V285H849.163V270.443C849.163 264.552 846.031 261.793 841.348 261.793C837.738 261.793 835.68 263.299 834.606 265.671H834.308V254.455H830.788V285H834.308V271.219ZM865.566 262.091H860.673V256.602H857.154V262.091H853.693V265.074H857.154V279.392C857.154 283.389 860.375 285.298 863.358 285.298C864.671 285.298 865.506 285.06 865.983 284.881L865.267 281.719C864.969 281.779 864.492 281.898 863.716 281.898C862.165 281.898 860.673 281.421 860.673 278.438V265.074H865.566V262.091ZM880.219 285.477C884.873 285.477 888.273 283.151 889.347 279.69L885.947 278.736C885.052 281.122 882.979 282.315 880.219 282.315C876.088 282.315 873.239 279.646 873.075 274.739H889.705V273.247C889.705 264.716 884.634 261.793 879.861 261.793C873.657 261.793 869.54 266.685 869.54 273.725C869.54 280.764 873.597 285.477 880.219 285.477ZM873.075 271.696C873.314 268.132 875.834 264.955 879.861 264.955C883.68 264.955 886.126 267.818 886.126 271.696H873.075ZM895.059 285H898.579V270.503C898.579 267.401 901.025 265.134 904.366 265.134C905.306 265.134 906.275 265.313 906.514 265.372V261.793C906.111 261.763 905.187 261.733 904.665 261.733C901.92 261.733 899.534 263.284 898.699 265.551H898.46V262.091H895.059V285ZM917.428 285.537C921.425 285.537 923.513 283.389 924.229 281.898H924.408V285H927.928V269.906C927.928 262.628 922.38 261.793 919.456 261.793C915.996 261.793 912.059 262.986 910.269 267.162L913.61 268.355C914.385 266.685 916.22 264.895 919.576 264.895C922.812 264.895 924.408 266.61 924.408 269.548V269.668C924.408 271.368 922.678 271.219 918.502 271.756C914.251 272.308 909.613 273.247 909.613 278.497C909.613 282.972 913.073 285.537 917.428 285.537ZM917.965 282.375C915.161 282.375 913.132 281.122 913.132 278.676C913.132 275.992 915.578 275.156 918.323 274.798C919.814 274.619 923.811 274.202 924.408 273.486V276.708C924.408 279.571 922.141 282.375 917.965 282.375ZM937.872 271.219C937.872 267.222 940.423 264.955 943.898 264.955C947.209 264.955 949.208 267.043 949.208 270.682V285H952.727V270.443C952.727 264.552 949.595 261.793 944.912 261.793C941.303 261.793 939.244 263.299 938.171 265.671H937.872V254.455H934.352V285H937.872V271.219ZM959.167 285H962.687V276.424L965.148 274.142L973.724 285H978.198L967.803 271.875L977.482 262.091H973.127L963.104 272.293H962.687V254.455H959.167V285ZM988.754 285.537C992.751 285.537 994.839 283.389 995.555 281.898H995.734V285H999.254V269.906C999.254 262.628 993.706 261.793 990.782 261.793C987.322 261.793 983.385 262.986 981.595 267.162L984.936 268.355C985.711 266.685 987.546 264.895 990.902 264.895C994.138 264.895 995.734 266.61 995.734 269.548V269.668C995.734 271.368 994.004 271.219 989.828 271.756C985.577 272.308 980.939 273.247 980.939 278.497C980.939 282.972 984.399 285.537 988.754 285.537ZM989.291 282.375C986.487 282.375 984.459 281.122 984.459 278.676C984.459 275.992 986.905 275.156 989.649 274.798C991.14 274.619 995.138 274.202 995.734 273.486V276.708C995.734 279.571 993.467 282.375 989.291 282.375ZM1009.2 271.219C1009.2 267.222 1011.67 264.955 1015.05 264.955C1018.31 264.955 1020.3 267.087 1020.3 270.682V285H1023.81V270.443C1023.81 264.597 1020.7 261.793 1016.06 261.793C1012.6 261.793 1010.45 263.344 1009.38 265.671H1009.08V262.091H1005.68V285H1009.2V271.219ZM1042.54 285H1046.24V271.338H1062.52V285H1066.22V254.455H1062.52V268.057H1046.24V254.455H1042.54V285ZM1073.15 285H1076.67V262.091H1073.15V285ZM1074.94 258.273C1076.31 258.273 1077.44 257.199 1077.44 255.886C1077.44 254.574 1076.31 253.5 1074.94 253.5C1073.57 253.5 1072.43 254.574 1072.43 255.886C1072.43 257.199 1073.57 258.273 1074.94 258.273ZM1091.77 285.477C1096.18 285.477 1097.67 282.733 1098.45 281.48H1098.87V285H1102.27V254.455H1098.75V265.73H1098.45C1097.67 264.537 1096.3 261.793 1091.83 261.793C1086.04 261.793 1082.04 266.386 1082.04 273.605C1082.04 280.884 1086.04 285.477 1091.77 285.477ZM1092.24 282.315C1087.83 282.315 1085.56 278.438 1085.56 273.546C1085.56 268.713 1087.77 264.955 1092.24 264.955C1096.54 264.955 1098.81 268.415 1098.81 273.546C1098.81 278.736 1096.48 282.315 1092.24 282.315ZM1123.64 275.634C1123.64 279.929 1120.36 281.898 1117.73 281.898C1114.81 281.898 1112.72 279.75 1112.72 276.409V262.091H1109.2V276.648C1109.2 282.494 1112.3 285.298 1116.6 285.298C1120.06 285.298 1122.33 283.449 1123.4 281.122H1123.64V285H1127.16V262.091H1123.64V275.634ZM1133.61 293.591H1137.13V281.48H1137.42C1138.2 282.733 1139.69 285.477 1144.11 285.477C1149.83 285.477 1153.83 280.884 1153.83 273.605C1153.83 266.386 1149.83 261.793 1144.05 261.793C1139.57 261.793 1138.2 264.537 1137.42 265.73H1137.01V262.091H1133.61V293.591ZM1137.07 273.546C1137.07 268.415 1139.33 264.955 1143.63 264.955C1148.1 264.955 1150.31 268.713 1150.31 273.546C1150.31 278.438 1148.04 282.315 1143.63 282.315C1139.39 282.315 1137.07 278.736 1137.07 273.546ZM1159.2 285H1162.72V270.682C1162.72 267.326 1165.17 264.955 1167.91 264.955C1170.58 264.955 1172.44 266.7 1172.44 269.31V285H1176.02V270.085C1176.02 267.132 1177.87 264.955 1181.09 264.955C1183.6 264.955 1185.75 266.282 1185.75 269.668V285H1189.27V269.668C1189.27 264.284 1186.37 261.793 1182.29 261.793C1179.01 261.793 1176.61 263.299 1175.43 265.671H1175.19C1174.06 263.225 1172.06 261.793 1169.04 261.793C1166.06 261.793 1163.85 263.225 1162.9 265.671H1162.6V262.091H1159.2V285ZM1210.14 275.634C1210.14 279.929 1206.86 281.898 1204.24 281.898C1201.31 281.898 1199.22 279.75 1199.22 276.409V262.091H1195.7V276.648C1195.7 282.494 1198.81 285.298 1203.1 285.298C1206.56 285.298 1208.83 283.449 1209.9 281.122H1210.14V285H1213.66V262.091H1210.14V275.634Z" fill="#36572A"/>
</svg>
