<?xml version="1.0" encoding="UTF-8" standalone="no"?>
<svg
   xmlns:dc="http://purl.org/dc/elements/1.1/"
   xmlns:cc="http://creativecommons.org/ns#"
   xmlns:rdf="http://www.w3.org/1999/02/22-rdf-syntax-ns#"
   xmlns:svg="http://www.w3.org/2000/svg"
   xmlns="http://www.w3.org/2000/svg"
   xmlns:sodipodi="http://sodipodi.sourceforge.net/DTD/sodipodi-0.dtd"
   xmlns:inkscape="http://www.inkscape.org/namespaces/inkscape"
   inkscape:export-ydpi="96"
   inkscape:export-xdpi="96"
   inkscape:export-filename="D:\Telkom University\Kuliah\Semester 5\Manajemen Proyek SI\Tubes\barter-bage logo.png"
   width="1080"
   height="1080"
   viewBox="0 0 285.74999 285.75001"
   version="1.1"
   id="svg8"
   inkscape:version="1.0 (4035a4fb49, 2020-05-01)"
   sodipodi:docname="barter-bage logo.svg">
  <defs
     id="defs2" />
  <sodipodi:namedview
     id="base"
     pagecolor="#ffffff"
     bordercolor="#666666"
     borderopacity="1.0"
     inkscape:pageopacity="0.0"
     inkscape:pageshadow="2"
     inkscape:zoom="0.35"
     inkscape:cx="1906.6693"
     inkscape:cy="748.30603"
     inkscape:document-units="mm"
     inkscape:current-layer="layer1"
     inkscape:document-rotation="0"
     showgrid="false"
     inkscape:window-width="1920"
     inkscape:window-height="991"
     inkscape:window-x="-9"
     inkscape:window-y="-9"
     inkscape:window-maximized="1"
     units="px"
     inkscape:snap-page="true" />
  <metadata
     id="metadata5">
    <rdf:RDF>
      <cc:Work
         rdf:about="">
        <dc:format>image/svg+xml</dc:format>
        <dc:type
           rdf:resource="http://purl.org/dc/dcmitype/StillImage" />
        <dc:title />
      </cc:Work>
    </rdf:RDF>
  </metadata>
  <g
     inkscape:label="Layer 1"
     inkscape:groupmode="layer"
     id="layer1">
    <g
       style="stroke-width:0.649177"
       transform="matrix(1.5404122,0,0,1.5404122,-73.960497,-77.472649)"
       id="g863">
      <g
         style="stroke-width:0.649177"
         id="g849">
        <g
           style="stroke-width:2.2457"
           transform="matrix(-0.00891742,-0.01752548,0.01752548,-0.00891742,215.56032,419.96426)"
           id="g953">
          <path
             id="path955"
             style="fill:#bac570;fill-opacity:1;fill-rule:evenodd;stroke:none;stroke-width:2.2457"
             d="m 16117,4792.05 c 0,305.57 -247.7,553.26 -553.3,553.26 -305.5,0 -553.3,-247.69 -553.3,-553.26 0,-58.14 9,-114.15 25.6,-166.79 -497.1,139.2 -1141.9,110.36 -1775.1,-400.52 1526.2,353.74 2618,-415.1 2485.4,-1771.33 553.7,584.68 417.3,1386.05 -22.9,1808.82 227.7,68.51 393.6,279.74 393.6,529.82" />
        </g>
        <path
           d="m 151.2487,149.76032 c -17.65489,-2.26578 -31.34096,-10.30748 -33.43042,-24.5334 31.31578,-17.58568 50.56719,8.7023 50.17849,28.94148 -3.99907,3.07149 -8.55406,5.26216 -13.35177,6.49657 -12.71631,3.15624 -26.7133,-0.62824 -36.0864,-11.05051 -13.52498,-15.03778 -12.29964,-38.19339 2.73833,-51.718009 1.75546,-1.578287 3.62087,-2.951648 5.56704,-4.130186 -23.85257,24.728755 -12.00429,55.752245 24.38473,55.994055"
           style="fill:#49572a;fill-opacity:1;fill-rule:evenodd;stroke:none;stroke-width:0.0454023"
           id="path959" />
      </g>
      <text
         xml:space="preserve"
         style="font-weight:bold;font-size:14.8551px;line-height:1.25;font-family:'Source Sans Pro';-inkscape-font-specification:'Source Sans Pro Bold';letter-spacing:0px;fill:#49572a;fill-opacity:1;stroke-width:0.171761"
         x="98.411606"
         y="182.02415"
         id="text844"><tspan
           sodipodi:role="line"
           id="tspan842"
           x="98.411606"
           y="182.02415"
           style="font-style:normal;font-variant:normal;font-weight:bold;font-stretch:normal;font-family:'Roboto Slab';-inkscape-font-specification:'Roboto Slab Bold';fill:#49572a;fill-opacity:1;stroke-width:0.171761">Barter-Bage</tspan></text>
      <text
         id="text853"
         y="191.53708"
         x="94.427834"
         style="font-weight:bold;font-size:4.5184px;line-height:1.25;font-family:'Source Sans Pro';-inkscape-font-specification:'Source Sans Pro Bold';letter-spacing:0px;fill:#49572a;fill-opacity:1;stroke-width:0.171761"
         xml:space="preserve"><tspan
           style="font-style:normal;font-variant:normal;font-weight:normal;font-stretch:normal;font-family:'Roboto Slab';-inkscape-font-specification:'Roboto Slab';fill:#49572a;fill-opacity:1;stroke-width:0.171761"
           y="191.53708"
           x="94.427834"
           id="tspan851"
           sodipodi:role="line">Tukar Sampahmu, Sejahterahkan Hidupmu</tspan></text>
    </g>
    <g
       transform="matrix(1.5404122,0,0,1.5404122,242.0276,-77.472649)"
       style="stroke-width:0.649177"
       id="g871">
      <g
         style="stroke-width:2.2457"
         transform="matrix(-0.00891742,-0.01752548,0.01752548,-0.00891742,215.56032,419.96426)"
         id="g867">
        <path
           id="path865"
           style="fill:#bac570;fill-opacity:1;fill-rule:evenodd;stroke:none;stroke-width:2.2457"
           d="m 16117,4792.05 c 0,305.57 -247.7,553.26 -553.3,553.26 -305.5,0 -553.3,-247.69 -553.3,-553.26 0,-58.14 9,-114.15 25.6,-166.79 -497.1,139.2 -1141.9,110.36 -1775.1,-400.52 1526.2,353.74 2618,-415.1 2485.4,-1771.33 553.7,584.68 417.3,1386.05 -22.9,1808.82 227.7,68.51 393.6,279.74 393.6,529.82" />
      </g>
      <path
         d="m 151.2487,149.76032 c -17.65489,-2.26578 -31.34096,-10.30748 -33.43042,-24.5334 31.31578,-17.58568 50.56719,8.7023 50.17849,28.94148 -3.99907,3.07149 -8.55406,5.26216 -13.35177,6.49657 -12.71631,3.15624 -26.7133,-0.62824 -36.0864,-11.05051 -13.52498,-15.03778 -12.29964,-38.19339 2.73833,-51.718009 1.75546,-1.578287 3.62087,-2.951648 5.56704,-4.130186 -23.85257,24.728755 -12.00429,55.752245 24.38473,55.994055"
         style="fill:#49572a;fill-opacity:1;fill-rule:evenodd;stroke:none;stroke-width:0.0454023"
         id="path869" />
    </g>
    <text
       xml:space="preserve"
       style="font-weight:bold;font-size:37.0798px;line-height:1.25;font-family:'Source Sans Pro';-inkscape-font-specification:'Source Sans Pro Bold';letter-spacing:0px;fill:#49572a;fill-opacity:1;stroke-width:0.264583"
       x="535.39954"
       y="119.10616"
       id="text875"><tspan
         sodipodi:role="line"
         id="tspan873"
         x="535.39954"
         y="119.10616"
         style="font-style:normal;font-variant:normal;font-weight:bold;font-stretch:normal;font-family:'Roboto Slab';-inkscape-font-specification:'Roboto Slab Bold';fill:#49572a;fill-opacity:1;stroke-width:0.264583">Barter-Bage</tspan></text>
    <text
       id="text879"
       y="143.439"
       x="535.93256"
       style="font-weight:bold;font-size:10.259px;line-height:1.25;font-family:'Source Sans Pro';-inkscape-font-specification:'Source Sans Pro Bold';letter-spacing:0px;fill:#49572a;fill-opacity:1;stroke-width:0.264583"
       xml:space="preserve"><tspan
         style="font-style:normal;font-variant:normal;font-weight:normal;font-stretch:normal;font-family:'Roboto Slab';-inkscape-font-specification:'Roboto Slab';fill:#49572a;fill-opacity:1;stroke-width:0.264583"
         y="143.439"
         x="535.93256"
         id="tspan877"
         sodipodi:role="line">Tukar Sampahmu, Sejahterahkan Hidupmu</tspan></text>
  </g>
</svg>
