<svg xmlns="http://www.w3.org/2000/svg" xmlns:xlink="http://www.w3.org/1999/xlink" viewBox="0 0 2000 2000"><defs><style>.cls-1{fill:url(#Untitled_Gradient);}.cls-2{isolation:isolate;}.cls-20,.cls-3,.cls-39,.cls-5{fill:#fff;}.cls-4{clip-path:url(#clip-path);}.cls-5{mix-blend-mode:screen;}.cls-6{fill:#bfbfbf;}.cls-7{fill:#f78263;}.cls-8{fill:#232323;}.cls-9{fill:#a0c570;}.cls-10,.cls-12{fill:#0d5965;}.cls-10{opacity:0.32;}.cls-11{opacity:0.5;}.cls-13{fill:#36572a;}.cls-14{fill:#531c2e;}.cls-15{fill:#2b501e;}.cls-16{fill:#3f19ff;}.cls-17{fill:#db8a00;}.cls-18{fill:#006837;}.cls-19,.cls-29{fill:#97f0ff;}.cls-19,.cls-20{opacity:0.57;}.cls-21{fill:#9b0a3a;}.cls-22{fill:#44051d;}.cls-23{fill:#bf1657;}.cls-24{fill:#f4e4a2;}.cls-25{fill:#efba50;}.cls-26{fill:#f4c87a;}.cls-27{fill:#fc7a22;}.cls-28{fill:#fc8a3d;}.cls-30{fill:#4b6568;opacity:0.49;}.cls-30,.cls-37{mix-blend-mode:multiply;}.cls-31{fill:#57d0dd;}.cls-32,.cls-33{fill:#427c86;}.cls-32{opacity:0.85;}.cls-34{fill:#fcb500;}.cls-35{fill:#e09d00;}.cls-36{fill:#fcbe21;}.cls-37{fill:#ff7f4c;opacity:0.68;}.cls-38{fill:#ff865e;}.cls-39{opacity:0.2;}.cls-40{opacity:0.6;}</style><linearGradient id="Untitled_Gradient" x1="127.84" y1="993.5" x2="1833.01" y2="993.5" gradientUnits="userSpaceOnUse"><stop offset="0" stop-color="#bce3f1"/><stop offset="1" stop-color="#d0f7ff"/></linearGradient><clipPath id="clip-path" transform="translate(0 0)"><path class="cls-1" d="M430.37,1851.2c-316.48-201-17.8-331-184.51-676.29C24.41,716.21,64.2,136.39,806.8,135.8c488.85-.39,902.44,340.89,986.75,744.19,126,602.56-90,971.21-90,971.21Z"/></clipPath></defs><g class="cls-2"><g id="Layer_1" data-name="Layer 1"><rect class="cls-3" width="2000" height="2000" transform="translate(2000 2000) rotate(180)"/><path class="cls-1" d="M430.37,1851.2c-316.48-201-17.8-331-184.51-676.29C24.41,716.21,64.2,136.39,806.8,135.8c488.85-.39,902.44,340.89,986.75,744.19,126,602.56-90,971.21-90,971.21Z" transform="translate(0 0)"/><g class="cls-4"><path class="cls-5" d="M1023.9,371.77a119.56,119.56,0,0,0-44.43-8.66c-15.1-22.66-50.29-37.78-90.28-37.78-24,0-46.75,5.61-64.3,15.24-19.53-28.15-64.39-47.82-115.21-47.82-33.38,0-65,8.31-88.51,23-3.36-.33-6.76-.5-10.16-.5-36.36,0-66,18.66-66,41.6a28.48,28.48,0,0,0,4.39,14.9Z" transform="translate(0 0)"/><path class="cls-5" d="M565.58,1187.59a77.58,77.58,0,0,0-28.82-5.62c-9.79-14.69-32.61-24.5-58.55-24.5-15.57,0-30.33,3.64-41.71,9.89-12.67-18.26-41.76-31-74.73-31-21.65,0-42.19,5.39-57.41,14.93q-3.27-.32-6.59-.32c-23.59,0-42.77,12.1-42.77,27a18.45,18.45,0,0,0,2.84,9.66Z" transform="translate(0 0)"/><path class="cls-5" d="M1089.38,1582.84a77.78,77.78,0,0,1,28.82-5.61c9.79-14.7,32.61-24.51,58.55-24.51,15.57,0,30.33,3.65,41.71,9.89,12.67-18.26,41.76-31,74.72-31,21.66,0,42.2,5.39,57.42,14.94a65.59,65.59,0,0,1,6.58-.33c23.59,0,42.78,12.1,42.78,27a18.37,18.37,0,0,1-2.85,9.66Z" transform="translate(0 0)"/></g><rect class="cls-6" x="148.21" y="1829.27" width="1745.18" height="25.86" rx="12.93" transform="translate(2041.6 3684.4) rotate(-180)"/><path class="cls-7" d="M723.75,1712.4c-9.33,36.34-18,72.64-18,72.64,43.33,13.33,49.34-14.31,46.67-21,3.28-14.94,16.33-37.31,16.33-37.31C722.09,1724.09,723.75,1712.4,723.75,1712.4Z" transform="translate(0 0)"/><path class="cls-7" d="M472.83,1677.94l-42.34,23.27,17.08,38.23,51.2-16.81C492.41,1693.39,472.83,1677.94,472.83,1677.94Z" transform="translate(0 0)"/><path class="cls-8" d="M708.31,1773.6s-6.68,9.34-8.41,25.12,2.7,30.6,2.7,30.6,76.44,4.3,106.37-1.26,32.59-10.79,31.85-19.27-41.37-5.94-53.52-16.12-29.08-32-36.27-28.47-5.78,17.18-15.49,18S712.64,1768.42,708.31,1773.6Z" transform="translate(0 0)"/><path class="cls-8" d="M447.58,1690.08s-10.75-4-26.45-1.62S392.28,1699,392.28,1699s15.64,75,28.76,102.42,18.86,28.69,26.86,25.77-5-41.49,1.7-55.86,23.41-36.39,18.11-42.41-18.08-1.13-21.43-10.3S453.7,1692.93,447.58,1690.08Z" transform="translate(0 0)"/><path class="cls-9" d="M592.73,1278.66s33.91,231.34,33.91,260-167.81,129.92-167.81,129.92,14.84,59.83,39.94,70.83c8.76,3.84,200.69-123.48,211.09-147.63,11.92-27.7,44.61-223.87,44.61-223.87s73.35,110.3,70.13,133c-5.05,35.69-114.74,227.09-114.74,227.09s15,33.14,68.19,10.25c0,0,149.37-184.14,168.19-208.46,44.54-57.54-157.5-315.73-157.5-315.73Z" transform="translate(0 0)"/><path class="cls-10" d="M859.1,1495.23c0-38.48-97.53-173.06-97.53-173.06l-7.1,45.77s73.35,110.3,70.13,133c-5.05,35.69-114.74,227.09-114.74,227.09s3.41,7.55,12.75,13C776.31,1686.71,859.1,1530,859.1,1495.23Z" transform="translate(0 0)"/><g class="cls-11"><path class="cls-12" d="M686.64,1290.83a318.71,318.71,0,0,0-7-40.77l-86.87,28.6s4.52,30.86,10.26,71.44c17.73,9.43,34.89,15.64,44.62,13.71,16.87-3.35,39.1-29,39.1-73C686.71,1290.82,686.66,1290.82,686.64,1290.83Z" transform="translate(0 0)"/></g><path class="cls-13" d="M677.78,1258.64c-11.26-111.08-131.38-335.13-173-410.07-19.64,1.37-37,7.9-46.77,23.62-33.47,53.79,7.17,282.07,44.22,349A241.79,241.79,0,0,0,548,1280.33c21.82,20.52,72.6,49.72,92.18,46,16.25-3.1,37.66-26.85,37.66-67.7C677.84,1258.63,677.8,1258.63,677.78,1258.64Z" transform="translate(0 0)"/><path class="cls-3" d="M818.92,1233.15c-.46-.82-168.95-345.32-205.6-361-.72-.32-2.68-1.14-3.77-1.58-25.6-10.46-59.2-20.23-86.58-22a128.31,128.31,0,0,0-18.23-.06c41.66,74.94,161.78,299,173,410.07C720.51,1237.74,772.51,1220.69,818.92,1233.15Z" transform="translate(0 0)"/><g class="cls-11"><path class="cls-14" d="M606.13,1047.59c26.32,57.54,50.27,116.9,63,165.67,82.18,13.19,103.42,5.51,138.48-3-17.09-34.37-29.31-58.24-34-67.52Z" transform="translate(0 0)"/></g><path class="cls-15" d="M611.29,1208.16c12.41,3,33.38,4.55,57.81,5.1-12.7-48.77-36.65-108.13-63-165.67L445.69,956.46c0,.41.05.81.08,1.21a288.86,288.86,0,0,0,81.65,183.77C560.13,1175,592.45,1203.54,611.29,1208.16Z" transform="translate(0 0)"/><path class="cls-16" d="M1005.77,1009.47c-2.47-26.33-21.13-85.68-28.64-101.87s19.41-105,19.41-105L656.8,827.34s13.1,52.3,0,64.08C612.86,930.89,645.49,922,640,949.89c-2.9,14.75-26,33.85-27.13,48.52-.45,5.64,13.49,14.23,13.46,19.42-.09,15.59,12.77,48,17.93,55.18l358,0S1007.25,1025.3,1005.77,1009.47Z" transform="translate(0 0)"/><path class="cls-17" d="M989.42,813.6S788,891.06,711.2,870.67s-70.67-83.57,8.19-125.36S1041,762.3,989.42,813.6Z" transform="translate(0 0)"/><path class="cls-18" d="M883.07,761.17V697h20.48v64.22c0,7.45,4,14.38,10.5,19,7.66,5.44,12.57,13.84,12.57,23.27v125H860v-125c0-9.43,4.91-17.83,12.58-23.27C879.11,775.55,883.07,768.62,883.07,761.17Z" transform="translate(0 0)"/><path class="cls-19" d="M772.91,750.2a4.25,4.25,0,0,1-3.52-3.5l-1.28-7.56-24.85,4.27,1.27,7.5a4.24,4.24,0,0,1-2.17,4.46,27.61,27.61,0,0,0-14.35,29l28.84,170.35a27.59,27.59,0,0,0,31.81,22.59l13.6-2.3a27.58,27.58,0,0,0,22.59-31.81L796,772.88A27.6,27.6,0,0,0,772.91,750.2Z" transform="translate(0 0)"/><path class="cls-20" d="M762.14,753.81a4.22,4.22,0,0,1-3.51-3.5L757.06,741l-13.8,2.37,1.27,7.5a4.24,4.24,0,0,1-2.17,4.46,27.61,27.61,0,0,0-14.35,29l28.84,170.35a27.59,27.59,0,0,0,31.81,22.59l12.12-2.05a27.61,27.61,0,0,0,13.31-28.45L785.24,776.49A27.59,27.59,0,0,0,762.14,753.81Z" transform="translate(0 0)"/><polygon class="cls-21" points="746.51 823.61 713.43 908.42 670.43 898.33 671.11 891.86 679.96 806.77 711.31 814.71 746.51 823.61"/><path class="cls-22" d="M745.68,823.29l-32.43,84.79-42.82-9.75,43.18,10.44c3.45-8.68,30.25-76.07,33.74-84.83Z" transform="translate(0 0)"/><path class="cls-23" d="M671.11,891.86,680,806.78l31.35,7.93C707.52,843.83,697.25,892.89,671.11,891.86Z" transform="translate(0 0)"/><path class="cls-24" d="M746.92,810.76l-1.06,4.51-61.45-14.42,1.06-4.51a2.61,2.61,0,0,1,3.14-1.94L745,807.62A2.61,2.61,0,0,1,746.92,810.76Z" transform="translate(0 0)"/><path class="cls-25" d="M746.92,810.76l-1.06,4.51-30.77-7.22a10.87,10.87,0,0,0,.37-3c0-1.35-3.58-3.81-7.53-6.13L745,807.62A2.61,2.61,0,0,1,746.92,810.76Z" transform="translate(0 0)"/><polygon class="cls-24" points="749.32 825.35 674.8 807.87 681.37 802.08 681.95 801.57 747.02 816.84 749.32 825.35"/><path class="cls-25" d="M749.32,825.35l-20.12-4.72c-1-5.83-40.15-16.5-47.84-18.55l.59-.51L747,816.84Z" transform="translate(0 0)"/><rect class="cls-26" x="673.53" y="816.58" width="76.54" height="2.31" transform="translate(205.61 -140.97) rotate(13.2)"/><path class="cls-24" d="M682.55,798.34l65.37,15.34a1.64,1.64,0,0,1,1.22,2h0a1.63,1.63,0,0,1-2,1.22L681.8,801.54a1.64,1.64,0,0,1-1.22-2h0A1.64,1.64,0,0,1,682.55,798.34Z" transform="translate(0 0)"/><polygon class="cls-27" points="746.51 823.61 713.43 908.42 670.43 898.33 671.11 891.86 679.96 806.77 711.31 814.71 746.51 823.61"/><path class="cls-22" d="M745.68,823.29l-32.43,84.79-42.82-9.75,43.18,10.44c3.45-8.68,30.25-76.07,33.74-84.83Z" transform="translate(0 0)"/><path class="cls-28" d="M686.48,882.48l8.86-85.09,31.35,7.93C722.9,834.44,712.63,883.51,686.48,882.48Z" transform="translate(0 0)"/><path class="cls-24" d="M746.92,810.76l-1.06,4.51-61.45-14.42,1.06-4.51a2.61,2.61,0,0,1,3.14-1.94L745,807.62A2.61,2.61,0,0,1,746.92,810.76Z" transform="translate(0 0)"/><polygon class="cls-24" points="749.32 825.35 674.8 807.87 681.37 802.08 681.95 801.57 747.02 816.84 749.32 825.35"/><rect class="cls-26" x="673.53" y="816.58" width="76.54" height="2.31" transform="translate(205.61 -140.97) rotate(13.2)"/><path class="cls-24" d="M682.55,798.34l65.37,15.34a1.64,1.64,0,0,1,1.22,2h0a1.63,1.63,0,0,1-2,1.22L681.8,801.54a1.64,1.64,0,0,1-1.22-2h0A1.64,1.64,0,0,1,682.55,798.34Z" transform="translate(0 0)"/><path class="cls-29" d="M843.6,834.88c1.4-2.41,3.16-4.9,4.77-5.51a31.06,31.06,0,0,0,5.45-2.28,42.77,42.77,0,0,0,13.12-12.53A26.31,26.31,0,0,0,870,792.61a17.32,17.32,0,0,1,1.86-13.93L882.11,762l-17.82-14L850.56,762c-2.31,2.34-6.47,3.28-10.42,3.59-12.11,1-23.34,7.35-29.1,18a45.69,45.69,0,0,0-3.17,7.46,30.1,30.1,0,0,0-.91,5.84c-.21,1.7-2.21,4-4.22,5.94a7.84,7.84,0,0,1-7.64,2,10.05,10.05,0,0,0-10.77,3.43L724.5,884.62a10,10,0,0,0,1.71,14.1l42.6,33.39a10.05,10.05,0,0,0,14.11-1.71l59.83-76.35a10.06,10.06,0,0,0,.76-11.28A7.84,7.84,0,0,1,843.6,834.88Z" transform="translate(0 0)"/><path class="cls-29" d="M843.6,834.88c1.4-2.41,3.16-4.9,4.77-5.51a31.06,31.06,0,0,0,5.45-2.28,42.77,42.77,0,0,0,13.12-12.53A26.31,26.31,0,0,0,870,792.61a17.32,17.32,0,0,1,1.86-13.93L882.11,762l-17.82-14L850.56,762c-2.31,2.34-6.47,3.28-10.42,3.59-12.11,1-23.34,7.35-29.1,18a45.69,45.69,0,0,0-3.17,7.46,30.1,30.1,0,0,0-.91,5.84c-.21,1.7-2.21,4-4.22,5.94a7.84,7.84,0,0,1-7.64,2,10.05,10.05,0,0,0-10.77,3.43L724.5,884.62a10,10,0,0,0,1.71,14.1l42.6,33.39a10.05,10.05,0,0,0,14.11-1.71l59.83-76.35a10.06,10.06,0,0,0,.76-11.28A7.84,7.84,0,0,1,843.6,834.88Z" transform="translate(0 0)"/><path class="cls-30" d="M843.51,842.77a7.84,7.84,0,0,1,.09-7.89c1.4-2.41,3.16-4.9,4.77-5.51a31.06,31.06,0,0,0,5.45-2.28,42.65,42.65,0,0,0,13.12-12.53A26.31,26.31,0,0,0,870,792.61a17.32,17.32,0,0,1,1.86-13.93L882.11,762l-9.51-7.45-10.24,16.66a17.3,17.3,0,0,0-1.86,13.92,26.34,26.34,0,0,1-3.07,22,42.61,42.61,0,0,1-13.13,12.54,30.44,30.44,0,0,1-5.45,2.28c-1.6.6-3.37,3.09-4.76,5.51a7.84,7.84,0,0,0-.09,7.89,10.06,10.06,0,0,1-.76,11.28L773.4,923a10,10,0,0,1-14.1,1.71l9.51,7.45a10.05,10.05,0,0,0,14.11-1.71l59.83-76.35A10.06,10.06,0,0,0,843.51,842.77Z" transform="translate(0 0)"/><path class="cls-29" d="M893,753.88l-8.09,10.33L861,745.47l8.09-10.32a1.51,1.51,0,0,1,2.13-.26l21.52,16.86A1.52,1.52,0,0,1,893,753.88Z" transform="translate(0 0)"/><path class="cls-30" d="M884.9,764.21l-12.3-9.64,9-11.52,11.11,8.7a1.53,1.53,0,0,1,.26,2.14Z" transform="translate(0 0)"/><rect class="cls-31" x="856.58" y="754.44" width="30.38" height="3.8" transform="translate(652.14 -376.71) rotate(38.09)"/><rect class="cls-31" x="864.01" y="744.89" width="31.96" height="1.9" transform="translate(647.42 -384.02) rotate(38.09)"/><rect class="cls-31" x="861.7" y="747.85" width="31.96" height="1.9" transform="translate(648.76 -381.96) rotate(38.09)"/><rect class="cls-31" x="859.39" y="750.8" width="31.96" height="1.9" transform="translate(650.08 -379.9) rotate(38.09)"/><path class="cls-32" d="M812.68,850.76l-35.45-31.65a28.1,28.1,0,0,1-2.17-39.82l7.75-8.6a28.44,28.44,0,0,1,40-2.16l35.44,31.65a3.89,3.89,0,0,1,.3,5.52h0a3.9,3.9,0,0,0,.3,5.52l15,13.38a3.94,3.94,0,0,0,5.55-.3h0A3.94,3.94,0,0,1,885,824l53.62,47.88a3.9,3.9,0,0,1,.3,5.51l-40.36,44.76a3.93,3.93,0,0,1-5.54.3l-53.61-47.87a3.89,3.89,0,0,1-.3-5.52h0a3.91,3.91,0,0,0-.3-5.52l-15-13.38a3.93,3.93,0,0,0-5.54.3h0A3.94,3.94,0,0,1,812.68,850.76Z" transform="translate(0 0)"/><path class="cls-33" d="M938.57,871.88,885,824a3.94,3.94,0,0,0-5.54.3,3.94,3.94,0,0,1-5.55.3l-15-13.38a3.9,3.9,0,0,1-.3-5.52h0a3.89,3.89,0,0,0-.3-5.52l-35.44-31.65a28.31,28.31,0,0,0-16.41-7.1c13,16.17,52.15,66.78,52.15,92.8,0,11.4-3.52,21.78-8,30.37L893,922.45a3.93,3.93,0,0,0,5.54-.3l40.36-44.76A3.9,3.9,0,0,0,938.57,871.88Z" transform="translate(0 0)"/><path class="cls-34" d="M1025.57,1017.88c-2.47-26.33-40.93-94.09-48.44-110.28s19.41-105,19.41-105l-.43,0c-.87,3.64-3,7.28-6.69,10.89,0,0-201.41,76.89-278.22,56.65-32.05-8.44-49.66-24.28-53.57-42.89l-.83.06s13.1,52.3,0,64.08C612.86,930.89,645.49,922,640,949.89c-2.9,14.75-26,33.85-27.13,48.52-.45,5.64,13.49,14.23,13.46,19.42-.09,15.59,12.77,48,17.93,55.18,0,0-5.56,17.59-9.47,49.46s6.38,89.59,101.71,109.11,128.6-21.19,238.86-30.73c52.4-14,28.27-83.8,26.91-127.88C1002.27,1073,1027.05,1033.71,1025.57,1017.88Z" transform="translate(0 0)"/><path class="cls-35" d="M996.05,802.86a18.31,18.31,0,0,1-.69,2.14,18.58,18.58,0,0,1-11,10.4c-31.6,11.67-203.57,73.11-273.19,54.77-32.05-8.44-49.66-24.28-53.57-42.89l-.83.06s-3.27,43.5,40.62,67.51c9.5,5.2,3.35,1.5,9.43,4.1,56.74,22.76,191.33-27.34,271.92-73.73a38.77,38.77,0,0,0,17.71-22.42v0Z" transform="translate(0 0)"/><path class="cls-36" d="M715,922.56a175.07,175.07,0,0,0-74.73,16.66,27.32,27.32,0,0,1-.23,10.67c-2.9,14.75-26,33.85-27.13,48.52-.45,5.64,13.49,14.23,13.46,19.42-.09,15.59,12.77,48,17.93,55.18,0,0-5.56,17.59-9.47,49.46s6.38,89.59,101.71,109.11c68.5,14,105-3,161-17.31C919.06,1009.77,797.28,922.56,715,922.56Z" transform="translate(0 0)"/><path class="cls-34" d="M985,815.27c-65,44.29-210.28,93.67-278.15,69.66-6.08-2.29.41.37-9.43-3.61C647.85,860,639.15,807.1,681.36,772c-3.94,15.12-21.36,52.3-10.89,63.91C686.74,854,721,857,720.84,857l6.53.43C787.84,859.21,908.43,824,985,815.27Z" transform="translate(0 0)"/><path class="cls-7" d="M836.25,1136.34c2.61.19,46.52,17,80.67,5.83,16.28-5.33,31.22-8.45,24.64,6.49s-36.58,8.59-40.76,12.78,51.86,34.83,67.16,37.43-9.79,15.75-15.77,15.75S951,1217,945,1223s-20.45,4.56-27.49,6c-23,4.62-84-37.58-93.23-46.77S836.25,1136.34,836.25,1136.34Z" transform="translate(0 0)"/><path class="cls-13" d="M507,848.43s24.3,27.33,38.2,56c14,29,91.95,171.33,100.56,171.33s200.94,62.63,200.94,62.63-13.45,27.8-13.45,58.87c0,0-206.78-33.46-222.32-33.46s-33.46-27.49-49-43S469.17,1035,446.83,979.87,436.5,836.48,507,848.43Z" transform="translate(0 0)"/><polygon class="cls-7" points="579.53 772.65 604.42 883.02 507.02 848.43 526.08 773.02 579.53 772.65"/><path class="cls-37" d="M579.53,772.65l-53.45.37-4.43,17.52c15.28,15.5,33.65,28,48.62,31.48,5.94,1.39,13.06,1.46,20.52.57Z" transform="translate(0 0)"/><path class="cls-7" d="M539.78,666.55s16.69.15,37,13.48,38.93,50.49,38.93,50.49,9.32,23.6,10.53,37.46-47.8,36.27-72.13,33.13-56.2-30.67-64.32-55.78S528.93,665.15,539.78,666.55Z" transform="translate(0 0)"/><path class="cls-37" d="M584,685.74a54.38,54.38,0,0,0-7.2-5.71c-20.34-13.33-37-13.48-37-13.48-5.14-.66-18.45,11.35-30.16,26.85l8.38-.55s28,7.69,55.72-2.32A64.51,64.51,0,0,0,584,685.74Z" transform="translate(0 0)"/><path class="cls-8" d="M518,692.85a264.58,264.58,0,0,1,15.55,49.24c6.16,28.69,3,57.72,3,57.72-20.35,10.45-53.08,9.46-81-26.72s3.7-65.78,10.77-71.23-4-7.45,1-21.75,13.67-5.3,23.17-15.25-15.41-30.73,2.26-47,40.69,15.16,40.69,15.16,9.75-31.12,27.57-13.39,18.55,30.23,4,49.52S518,692.85,518,692.85Z" transform="translate(0 0)"/><path class="cls-38" d="M533.69,728.89s-22.08-10.67-22.08,8,7.56,28.69,18.49,24S533.69,728.89,533.69,728.89Z" transform="translate(0 0)"/><path class="cls-13" d="M1524.49,1028.84H1230L1308.55,1782a51.62,51.62,0,0,0,51.33,46.27h312.55a51.62,51.62,0,0,0,51.33-46.27l78.51-753.16Z" transform="translate(0 0)"/><rect class="cls-15" x="1201.38" y="1007.05" width="634.37" height="65.04" rx="24.52"/><polygon class="cls-39" points="1368.03 1072.09 1422.81 1828.27 1623.7 1828.27 1674.43 1072.09 1368.03 1072.09"/><g class="cls-40"><path class="cls-3" d="M1578.33,1389.67l41.54,71.8s11.06,17.21,3.94,34.42l36.81-62a39.81,39.81,0,0,0,5.19-27.24,26.47,26.47,0,0,0-2.43-7.69c-4.67-8.85-25.32-44-25.32-44l34.17-19.18-85.79-3.19-39.08,74.75Z" transform="translate(0 0)"/><path class="cls-3" d="M1605.62,1448.68h-60.48v69.84h40.32s43.26-3.44,32.69-45.74Z" transform="translate(0 0)"/><path class="cls-3" d="M1475.65,1445.11l-82.91-1.9s-20.45.49-31.43-14.56l33.71,63.7a39.77,39.77,0,0,0,20.55,18.61,26.53,26.53,0,0,0,7.83,1.93c10,.62,50.75,1.29,50.75,1.29l-1.42,39.17,47.39-71.61-43.45-72.3Z" transform="translate(0 0)"/><path class="cls-3" d="M1411.08,1437.69l31.48-51.64-59.6-36.36-21,34.43s-19.59,38.74,22,51.73Z" transform="translate(0 0)"/><path class="cls-3" d="M1480.3,1327.26l41.89-71.6s9.5-18.12,28-20.42l-72-1.43a39.85,39.85,0,0,0-26.24,8.94,26.87,26.87,0,0,0-5.49,5.92c-5.39,8.43-25.75,43.76-25.75,43.76l-33.55-20.24,39.59,76.19,84.29-2.92Z" transform="translate(0 0)"/><path class="cls-3" d="M1518.12,1274.38,1548,1327l60.7-34.5-19.91-35.06s-24.36-35.93-55.91-5.85Z" transform="translate(0 0)"/></g></g></g></svg>