<svg xmlns="http://www.w3.org/2000/svg" viewBox="0 0 3086 2000"><defs><style>.cls-1{isolation:isolate;}.cls-15,.cls-2,.cls-25,.cls-37,.cls-5{fill:#fff;}.cls-3{fill:#e2fafa;}.cls-31,.cls-4{fill:#cff3ff;}.cls-14,.cls-4{opacity:0.6;}.cls-26,.cls-32,.cls-34,.cls-45,.cls-5{opacity:0.5;}.cls-6{fill:#07085b;}.cls-7{fill:#02ccc0;}.cls-8{fill:#06bfad;}.cls-36,.cls-9{fill:#f7cead;}.cls-10{fill:#57ace5;}.cls-11,.cls-23{fill:#feb546;}.cls-12{fill:#ffc0bb;}.cls-13{fill:#f9c27a;}.cls-14,.cls-47{fill:#fc8d84;}.cls-15{opacity:0.1;mix-blend-mode:color-dodge;}.cls-16{fill:#ff5b7e;}.cls-17,.cls-35{fill:#f4a640;}.cls-18{fill:#8fd0d6;}.cls-19,.cls-20,.cls-34{fill:#74bdc1;}.cls-19{opacity:0.2;}.cls-19,.cls-23,.cls-26,.cls-34,.cls-35{mix-blend-mode:multiply;}.cls-21{fill:#9cdedc;}.cls-22{fill:#e28810;}.cls-23,.cls-25,.cls-33,.cls-36{opacity:0.3;}.cls-24,.cls-26{fill:#8bcdf2;}.cls-27{fill:#e03268;}.cls-28{fill:#026eaf;}.cls-29{fill:#fee4cb;}.cls-30{opacity:0.8;}.cls-37{opacity:0.9;}.cls-38{fill:#f99893;}.cls-39{fill:#333;}.cls-40{fill:#e87b50;}.cls-41,.cls-45{fill:#f3fdff;}.cls-42{fill:#caf0ff;}.cls-43{fill:#6db1b5;}.cls-44{fill:#020530;}.cls-46{fill:#fbf9eb;}</style></defs><g class="cls-1"><g id="Layer_1" data-name="Layer 1"><rect class="cls-2" width="3086" height="2000"/><path class="cls-3" d="M1009.3,1927.82h-745s-342.4-99.21-123.27-482,150.66-493.64,217.18-719,244.58-561.88,688.72-646,254.59,148.7,902.1,23.47,786.43,410.85,786.43,518.48,9.79,418.73,174.14,657.43,186.82,616-159.7,635.63c-194.18,11-496.12,12.7-732,12-190.25-.56-329.25,0-329.25,0Z"/><path class="cls-4" d="M600.05,1126.45l-92.38,344.93-51.89,169.24s-4.56,92.6-4.56,94.6S466.33,1795,466.33,1795s32.89,43,33.11,43.5,32.67,27.17,34.67,28.28,63.87,34.66,65.94,34.66,46.51,12.16,46.51,12.16l167.55,7.26H986.56s28.07-678.08,28.07-679.86,59-148.15,59.44-149.93-58.91-45.63-58.91-45.63L945,938.78H919.81L871.22,976.7,813,1020.76l-58.56,33L680.54,1084l-60,17.19-18.37,11Z"/><path class="cls-5" d="M1199.29,483.88c11.53-21.18.77-48.94-17.84-64.27s-43-21.23-66.5-26.7l-86.7-20.19c-12.8-3-26.89-6.84-33.93-18-10.26-16.21.31-37.27,11.61-52.77s24.23-34,18.05-52.18c-5.74-16.85-25.15-24.26-42.52-28.17A344.16,344.16,0,0,0,838,220.12c-22.56,4.58-44.6,11.41-67.09,16.33-29.49,6.46-59.59,9.6-89.48,13.85q-9.13,1.3-18.23,2.73A837.65,837.65,0,0,0,525.44,393.8c12.53-5.52,24.93-11.36,37.2-17.39,10-4.92,20.16-10,31.15-12.08,10.57-2,21.45-1,32.16,0,5.22.48,11,1.21,14.45,5.12,3.28,3.68,3.56,9.08,3.5,14-.2,16.56-2.95,34.56-15,46-16.53,15.72-43.53,12.81-63.28,24.23-22,12.72-30.59,40.22-49.34,57.36-21.09,19.28-51.11,22.62-80.31,22.69a1048.08,1048.08,0,0,0-50.55,112.33c43.2,5.05,85.74,16.77,128.86,23.51,54.78,8.56,114.51,8,161.12-22,42.55-27.43,67.42-74.91,103.89-110,10.45-10.06,22.21-19.29,36-23.78,12.43-4,25.76-4,38.83-3.93l269.56,1.6C1152,511.61,1185.78,508.68,1199.29,483.88Z"/><path class="cls-5" d="M2738.12,716.05c-20.65.77-43.66-3.46-69.12-14.9-20.74-9.32,26.67-102.51-1.86-159.68-20.93-41.94-76-51.29-122.89-51.27S2444.42,492,2411.09,459c-3-3-5.9-6.36-7.22-10.42-1.84-5.69-.37-12,2.09-17.42,14.13-31.34,53.95-39.69,88.06-44l139.56-17.77c5.6-.71,11.33-1.5,17.05-2.46-31.89-53.69-74.47-107.55-130.46-153.57-11.85,28.52-25.25,55.89-49.21,73.4-31.85,23.26-74.46,23.16-113.91,23a2713.52,2713.52,0,0,0-391,26.46c-24.88,3.5-50.38,7.57-72.1,20.2s-39.13,35.8-37.65,60.88c1.68,28.41,26.26,50.35,52,62.38s54.44,17.62,79.11,31.81c10.33,5.93,20.88,15.61,19.55,27.44-1.22,10.82-11.61,17.73-19.8,24.89-21.09,18.46-31.92,48-27.79,75.67,114.78,46.39,243.21,36,367,38.51,35.33.71,72.34,3,102.52,21.4,10,6.07,19.46,14.65,21.78,26.08,1.7,8.34-.69,16.94-3.59,24.93-18.68,51.46-60.25,99.82-49.59,153.52,11.54,58.09,77.14,86.25,134.78,99.9,28.71,6.8,196.23,43.63,270.1,58.29C2758.85,933.46,2743.44,806.69,2738.12,716.05Z"/><path class="cls-6" d="M2335.28,1019.54s96.67,161.45,107,269.36c8.48,88.9-6.52,87.4-6.52,87.4s-47,28-135-166.31l-5.22-22.83s77.61,164.35,122,176.09-116.74-319.57-116.74-319.57l24.75-36.53Z"/><path class="cls-6" d="M2340.55,1010.65a17.18,17.18,0,1,1-17.18-17.18A17.18,17.18,0,0,1,2340.55,1010.65Z"/><path class="cls-2" d="M1170.85,1078.67l-.08-5.33L1040.61,1080c-8.83-15.33-92.46-144-93.87-145.64a12.27,12.27,0,0,0-5.37-3.56v-.06l-.57-.13a16.17,16.17,0,0,0-2-.45c-13.11-2.9-73.52-16.44-135.89-33.61-9.6-2.64-19.39-5.82-29.76-9.19-41.72-13.55-84.86-27.57-120.91-8.44-24,12.74-41.35,38.53-53,78.85-28.56,98.88-11.71,153.76-5.77,168.46-14.86,57.84-86.42,338.27-116.12,429l-.25.76c-21.92,67-55,168.17-6.81,251.34,33.91,58.44,103.84,99,207.87,120.39l.51.11H986L1180.64,1758Zm-565.27,22c-.54-42.66-2-156,55.3-185.35,51.33-26.29,86.42-13.66,127.06,1C822,928.52,857.8,948.06,910.21,940,897,948.41,879,962.41,855.08,981.14c-15.37,12.06-31.27,24.52-45.48,34.8-42.48,30.72-145.27,64.63-148.48,65.68-10.69,3.19-39.94,12.53-55.48,23.65C605.62,1103.9,605.61,1102.37,605.58,1100.64Zm-1.41,30.7c5.46,2.62,13.41,3.91,24.17,3.91q6.38,0,14.07-.6a319.86,319.86,0,0,0,33.33-4.49l.3-.07,4.5-1.15c-3,12.18-10.28,40.94-19.84,78.8-34.19-22.86-55.68-42.24-63.44-49.64C600.23,1146.62,602.58,1137.52,604.17,1131.34ZM809.63,1176c12.61,6.16,26.87,12.69,42.59,19.25,1.07,31,2.47,65.13,4.29,100.81a702.31,702.31,0,0,1-83.37-28.45c3.28-38.88,6.28-75.68,8.7-105.9C790.43,1166.31,799.71,1171.11,809.63,1176Zm-27.15-22.29c2.29-28.59,4-50.36,4.81-61a611.2,611.2,0,0,0,55.8-26.92c1.62,1.47,3.59,3.2,6,5.15.38,24.45,1.2,65.73,2.89,116.21-14.27-6-27.29-12-38.89-17.67C802,1164.08,791.83,1158.77,782.48,1153.67Zm-7.05-3.89c-25.28-14.14-43.45-26.25-53.07-33,19.15-6.15,38.47-13.17,57.32-20.91C778.82,1106.92,777.34,1125.8,775.43,1149.78Zm-.64,8c-2.42,30.2-5.44,67.37-8.76,106.76-18.42-7.86-35-15.91-49.74-23.69-18.38-9.73-34.75-19.54-49.1-28.87,11.15-44.14,19.24-76.38,21.46-85.23q12.33-3.35,24.94-7.24C721.65,1125.38,742.94,1140.18,774.79,1157.81Zm-109.5,61.72c13.94,9,29.72,18.37,47.28,27.68q25.74,13.65,52.81,25.13c-3.89,45.92-8.13,94.39-12.24,138-19.24-10.73-36.78-21.48-52.41-31.74-24.41-16-45.86-31.86-64.1-46.35C647,1291.72,656.91,1252.64,665.29,1219.53Zm31.22,165.12q27.48,18,55.86,33.77c-5.15,54.07-10,99.8-13.73,122.55-19.87-13.09-38.2-26-54.69-38.19-28.9-21.38-54.38-42.1-75.66-60.39,8.63-33.2,17.63-68.18,26.36-102.32C652.43,1354.09,673.13,1369.29,696.51,1384.65Zm-17,123.93c17.36,12.85,36.76,26.49,57.85,40.3-5.84,35.54-12.08,91.68-7.4,152.65-32.1-20.16-60.84-40.65-85.44-59.59-27.84-21.44-52.39-42.37-73.07-61.1l.42-1.53c8.84-31.6,21.11-77.9,34.41-129C627.05,1468.08,651.69,1488,679.47,1508.58Zm-39.6,139.07a1105.82,1105.82,0,0,0,90.86,63.17c4.78,50.52,17.33,103.75,44,150.9-93.31-33.09-160.3-71.11-205.5-102.63q-7.17-5-13.81-9.91c-7.38-53.63.72-110.26,13.89-160.39C589.45,1607,613.16,1627.07,639.87,1647.65ZM744,1553.24c42.58,27.48,91.77,55.34,145.29,78.79,8.54,46.73,18.27,81.62,29.15,104.4,12.33,25.82,23.61,47.48,33.81,65.64-80.08-21.83-153.24-57.92-214.63-95.72C732.39,1645.88,738.25,1589.58,744,1553.24Zm1.31-7.88a3.06,3.06,0,0,1,0-.32c3.68-21.37,8.69-67.57,14-122.79a818.82,818.82,0,0,0,94.71,43.9c4.86,1.88,9.73,3.68,14.6,5.46q8.19,89,19.1,151.72C835.28,1600,787.05,1572.43,745.35,1545.36Zm14.79-131.11c4.14-43.78,8.42-92.6,12.35-138.94a702.36,702.36,0,0,0,84.42,28.6c.62,11.76,1.28,23.68,2,35.69q4,67,9,123.74A815,815,0,0,1,760.14,1414.25Zm99.59-216A779.19,779.19,0,0,0,1002,1240.85c8.47,23.05,17,47.21,25.48,72.17,1,2.79,1.9,5.62,2.86,8.47A736.28,736.28,0,0,1,864.06,1298C862.24,1262.75,860.83,1229,859.73,1198.3Zm-.28-8c-1.65-48.1-2.52-88-3-113.48a306.77,306.77,0,0,0,33.85,21.93c16.46,9.29,39,20.26,68.18,31,12.54,30.13,26.34,65,40.46,103.06A774.21,774.21,0,0,1,859.45,1190.26Zm-3.11-123q-.09-5.09-.13-9c19.87-11.79,37.55-24.38,51.78-37.51,8.18,13.27,25.35,49.09,46.62,99.62C903.49,1100.76,872.33,1079.94,856.34,1067.26Zm-3.94-20.62s-92.66,52.06-179.08,72c-27.48,5.39-60.88,7-66,.83.7-1.32,4.93-7,28.24-16.43,14.5-5.89,28.83-10.18,29-10.22l.15,0c4.36-1.42,107.36-35.22,151.78-67.34,14.4-10.42,30.39-23,45.85-35.08,25.8-20.23,66.18-54.57,75.6-48.3.06,0,4.69,6-11.56,37.44C915.09,1001.31,888.62,1024.68,852.4,1046.64ZM607.68,960.19c11-37.9,26.86-62,48.66-73.52,32.74-17.37,74.08-3.94,114.06,9,10.46,3.41,20.35,6.62,30.15,9.31,41.86,11.52,82.84,21.42,109.32,27.58-50.77,8.17-84.47-10.66-119.45-23.24-40.48-14.58-78.72-28.34-132.88-.59-61.35,31.42-59.85,148.06-59.29,192,0,4.4.1,8.6,0,11.27l-.12.15C592.06,1089.47,584.89,1039.11,607.68,960.19Zm-12.52,206c10,9.23,31.46,27.79,63.63,49.1-8.28,32.76-18.12,71.56-28.44,112-34-27.55-55.62-49.39-62.56-56.64C578.61,1229.73,588.22,1192.92,595.16,1166.18ZM565.6,1278.89a731.64,731.64,0,0,0,62.75,56.17c-8.67,33.94-17.63,68.8-26.25,102-34.53-30-56.82-52.62-63.07-59.08C548.1,1344.6,557.18,1310.67,565.6,1278.89Zm-28.81,107.28c9.26,9.4,31.29,31.13,63.26,58.8-13.36,51.35-25.73,98.09-34.71,130.33-33.14-30.43-55.33-54.27-63.85-63.69C512,1476,524.34,1431.84,536.79,1386.17Zm-49.95,173,.25-.76c3.53-10.79,7.57-23.84,12-38.58,10.54,11.48,32.65,34.71,64.09,63.41-15.89,59-21.16,112.67-15.75,160-53.26-40.61-79.6-74.59-87.13-85.15C466.38,1621.7,477.63,1587.33,486.84,1559.17Zm-7.68,243c-24.24-41.8-26.7-89-20.47-133.84,11.83,15.46,39.58,47.57,90.06,85.09.71,4.73,1.52,9.4,2.46,14,12.49,61.45,44.9,109.31,96.43,142.58C564.53,1887.92,507.91,1851.74,479.16,1802.16ZM679.7,1917.55c-3.22-.67-6.41-1.35-9.57-2.06l.33-.61C600.32,1877.7,567.87,1821,557,1759.44q3.69,2.67,7.54,5.35c47.61,33.25,102.88,62.71,164.29,87.56q25.17,10.19,51.76,19.32a264,264,0,0,0,35.89,45.88Zm147.21,0a253.24,253.24,0,0,1-35.18-42.1,1293.89,1293.89,0,0,0,162.51,42.1Zm157.46-1.93c-76.33-13.22-142.34-30.75-199-50.18-28-46.21-41.48-99.17-46.82-149.81q32.22,19.63,64.6,36.1c51.66,26.22,103.34,46.08,154.24,59.32,28.47,49.24,47.79,70,57.14,78.25Zm35.79-31.22c-7.74-6.69-25.7-25.21-52.74-70.84q20,4.88,39.82,8.39l1.28-7.23c-15.65-2.76-31.08-6.15-46.28-10-11-19.21-23.43-42.7-37.14-71.41-10.76-22.52-19.85-56.58-27.52-97.68,43.21,18.4,89.1,33.82,136.51,43.72l1.5-7.18C987.05,1662,940.09,1646,896,1627c-8-45-14.4-97.63-19.53-152.58a715.11,715.11,0,0,0,183.31,38.91l.55-7.32c-67.46-5.07-129.53-20.13-184.62-39.78-4.82-53.2-8.48-108.25-11.23-160.28a743.11,743.11,0,0,0,168.29,23c43.27,130.26,92.7,310.69,95.34,461.31Zm115.16-100.46c-3.84-149.31-52.12-326.09-94.76-454.88q5.2.07,10.42.08c5.93,0,11.9-.06,17.86-.2l-.17-7.33q-15.54.35-30.57.07-1.86-5.57-3.71-11c-7.94-23.45-16-46.29-24-68.21,18.68,3.43,38,6.24,58,8.21l.72-7.3c-21.29-2.1-41.89-5.17-61.68-8.93-13.65-37-27.08-71.25-39.43-101.31,29.48,10.28,65.25,20.16,107.92,27.93l1.32-7.22c-45-8.19-82.31-18.74-113-29.87-22.73-54.7-41.37-94.16-50.26-108.93,9.75-9.8,17.54-19.87,22.84-30.11s9-18.8,11.15-26c40.58,50.06,84.84,128.08,85.3,128.9l1.57,2.77,125.84-6.41,9.65,669.27Z"/><path class="cls-7" d="M1065.2,729.27s-58.14-85.41-96.27-120.88-111.81-61.95-128.66-39.87,32.69,47.15,51.1,55.27,94.85,47.28,180,168.29S1065.2,729.27,1065.2,729.27Z"/><path class="cls-8" d="M1108.32,825c.29-2.61-124.49-161.18-326.43-114.53a29.3,29.3,0,0,0-17,10.71c-5.82,7.78-6.93,18.14,25.86,20,53.67,3,178-7.62,284.91,84.66S1108.32,825,1108.32,825Z"/><path class="cls-7" d="M1107.82,839.32c-3,.83-80.79-73.79-210.13-58.82C793,792.61,839.35,816.09,861.84,814s132.54-10.79,217.95,24.78S1107.82,839.32,1107.82,839.32Z"/><path class="cls-9" d="M1214.49,816.48s11.74-286.31,255.66-382.84,405.66,138.27,434.36,382.84l-71.74,30.65L1821,816.48s5.22-376.32-242.94-369.79c-245.35,6.44-293.16,375.66-293.16,375.66s-39.14,99.13-41.75,90S1214.49,816.48,1214.49,816.48Z"/><path class="cls-10" d="M2307.51,998H2049.86a15.86,15.86,0,0,0-15.86,15.86h0a15.86,15.86,0,0,0,15.86,15.86h257.65a15.86,15.86,0,0,0,15.86-15.86h0A15.86,15.86,0,0,0,2307.51,998Z"/><path class="cls-11" d="M1215.52,475.07s-66.58-128.95-172.59-85.42c-104.65,46.72-57.22,183.87-57.22,183.87s165.2,425.29,220.59,514.89c53.07,85.87,145.11,44,152.69,40.39.33-.16.67-.3,1-.44,7.86-3,101.65-40.74,76.1-138.4C1409.45,888.05,1215.52,475.07,1215.52,475.07Z"/><path class="cls-12" d="M1523.53,726.62s21.52,13.3,22.13,12.64,6.21-2.51,6.15-3.32,3-14.36,3-14.36l-16.54-15.83-14.7,20.87Z"/><path class="cls-12" d="M1692.63,669.92s-25.82,8.17-29.82,12.27-5.7,13.25-5.7,13.25l5.77,6.78Z"/><path class="cls-13" d="M1123.06,430.6c-58.68,50.38-75.14,127.64-79.5,175.11-1.49,16.1,18.25,25,29.32,13.19,32.62-34.76,79.51-98.33,78.27-175.66A17,17,0,0,0,1123.06,430.6Z"/><path class="cls-14" d="M1553.17,728.94c-4.07.52-12.75-.09-21.82-13.43l6.88-9.76,16.54,15.83S1554,725.29,1553.17,728.94Z"/><path class="cls-6" d="M972.27,1725s250.53-177.53,176.92-251.21c0,0-7.29-30.38-101.31,37.34,0,0-43.7-.45-30.42-46.79s101.41-93.73,73.71-147.25-73.14,10.35-106.74,14,42-173.42,8.41-206.6-68.93,34.78-94.29,35.48S878.75,926.3,757.76,929s-25.06,123.85,9.86,190.48-62.32,3-94.81,61.92,174.9,73.16,136.91,128.3-80.66,1.82-106.33,43.93c-41.5,68.08,171,61.41,149.52,110.68-17.16,39.3-76.43-10.56-94.36,18.22S820.79,1663.69,972.27,1725Z"/><path class="cls-15" d="M1154,1479.36c-.6-.81-1.23-1.6-1.89-2.38-6.53,8.58-14.12,17.79-22.76,27.12-31.74,34.29-84.52,77.19-156.1,87.71q-6.12-58.47-21.65-125.25c47.51-86.58,97.32-127,130.73-145.72,2.9-1.61,5.71-3.09,8.46-4.46-.47-.89-1-1.75-1.44-2.58-2.68,1.34-5.41,2.77-8.23,4.34-33.44,18.65-83.07,58.77-130.52,144.13,0-.18-.08-.37-.13-.56-10.8-45.61-24.86-94-42-144.78a703.9,703.9,0,0,1,24.88-91.29c11.61-33.35,29.34-74.83,53.51-106-.86-.55-1.72-1-2.58-1.48-24.29,31.49-42.07,73.07-53.71,106.53a720.68,720.68,0,0,0-24,86.69q-19.8-58-44.9-119.8c-46.62-114.77-95.94-211.77-122.11-261-1,.16-2.06.34-3.06.53,26,48.89,75.59,146.24,122.44,261.58,7.87,19.39,15.88,39.82,23.8,61A711.61,711.61,0,0,0,803.16,1217c-33.76-13.2-80.27-28.43-130.1-36l-.25.42c-.43.79-.81,1.57-1.16,2.35,49.92,7.45,96.57,22.72,130.38,35.94,45.85,17.93,78,35.79,82.27,38.23,17.48,47.06,34.53,97.86,49,149.86C869.92,1377,756.74,1364,700.52,1359.16c-.42,1-.79,1.92-1.1,2.86,56.43,4.78,172.16,18,235,49.61,20.4,74,35.48,150.33,39.06,221.5-58.46-9.85-115.84-56.82-153.85-94.73a707,707,0,0,1-55-62,17.31,17.31,0,0,0-2.37,1.76,711.2,711.2,0,0,0,55.23,62.29c38.46,38.36,96.65,85.94,156.12,95.69,1.4,30.6.65,60.22-2.74,88.28l1.42.59,1.61-1.16c4.58-38.56,4.46-81.72-.33-129.1q7-1,13.93-2.47a245.59,245.59,0,0,0,77.73-31.19c23.49-14.34,45.82-32.86,66.35-55.06C1140.05,1496.87,1147.52,1487.82,1154,1479.36Z"/><path class="cls-8" d="M578,1255.09c53.73-28.75,73.72,56.23,78.08,79.31a426.4,426.4,0,0,1,61.37,13.48c-16.81-24.14-46-32-51.46-50-6.09-20.2,2.18-44.79,38.11-24.52,28.47,16.07,23.67,59.43,20.45,76.76a361.69,361.69,0,0,1,73.11,32.37c-14.94-30.36-47.59-42.93-51.33-64-4.09-23,8.23-49.09,45.19-22.07,30.55,22.34,17.35,72.71,11.84,89.52,15.52,9.62,23.88,16.84,24.77,17.62a617,617,0,0,1,46.55,44.13c-12.49-27-38-42.87-38.64-62.37-.82-23.4,15-47.45,47.84-15.52,26,25.26,8.63,70.34.26,88.08a571,571,0,0,1,69.56,94.5c-1.74-27.46-24.56-65.36-17.16-90.94,4.86-16.78,16.78-20.84,26-21.27a25.94,25.94,0,0,1,20.61,8.73c29.77,33.16-12.51,92.09-26.08,109.27a540.7,540.7,0,0,1,46.13,105c-.77-14.21-2.05-35.65-3.21-46.75-1.85-17.51,4.9-42.08,18.56-52,.57-.42,1.14-.8,1.71-1.16,10.85-6.87,25.07-4.1,33.67,5.44,33.62,37.33-32.51,94.37-47.16,106.24l.19.64c22.62,78.33,19.21,133.58,19.06,135.89l-8.56-.58c0-.53,3.24-53.13-17-126.61-80.28-8.72-102.54-54.64-91.66-71.76,11.24-17.68,42.45-24.17,56.74,9,8.29,19.23,21.46,37.52,31.08,49.49a531.9,531.9,0,0,0-46.37-107.39c-104.84,24.44-114-41.68-92.66-57.15,21.63-15.66,39-6.11,56.13,18.93a127.77,127.77,0,0,0,33.59,33.1,562.14,562.14,0,0,0-67.93-93c-12.71,14.35-47.86,48.82-81.63,34.62-42.21-17.76-26.24-41.72-4.37-50.1,20.1-7.7,47.91,14.1,81.9,11A605.91,605.91,0,0,0,822.53,1410c-.31-.27-17.08-14.75-48.88-30.62-10.94,16-41.32,54.2-76.45,44.42-44.11-12.28-31.3-38.07-10.66-49.14,18.41-9.88,47.53,6.89,79.69,1.11-27.3-12.83-64.24-25.91-110.05-32.71-11.47,16.51-41.37,53-75.79,43.47-44.11-12.28-31.3-38.07-10.67-49.15,18.67-10,48.35,7.39,81,.88l.12-.9c-11.37-4.87-35.53-15.12-47.34-19.43-15.77-5.76-33.46-22-35.45-38.09A27.37,27.37,0,0,1,578,1255.09Z"/><path class="cls-16" d="M1030.34,1792.29s-42.75-186.15-255.57-291.87l8.75,69.64-33.11-77.59s-126.18-56.21-224.58-71.87c0,0,125.66,190.08,165.8,222.74l69.28,15-56.69,26.81s67.58,107.42,173.68,151.25S1030.34,1792.29,1030.34,1792.29Z"/><path class="cls-11" d="M512.48,1726.32c27.8,59.64,64.51,102.61,105.6,133.14,23.87-14.54,52.62-31.29,52.62-31.29l-23.33,50.6c167.51,97.57,385.92,20.35,385.92,20.35C974.35,1767,900.38,1701.29,826.85,1673.2,814,1688.51,795,1711.5,795,1711.5l7.77-46.21c-36.9-10.18-73.26-11.63-107.1-8-3.9,24-8.94,51.21-8.94,51.21l-23.44-46.18C576.12,1680,512.48,1726.32,512.48,1726.32Z"/><path class="cls-17" d="M826.85,1673.2C814,1688.51,795,1711.5,795,1711.5l7.77-46.21c-36.9-10.18-73.26-11.63-107.1-8-3.9,24-8.94,51.21-8.94,51.21l-23.44-46.18c-87.19,17.75-150.83,64-150.83,64,186,131.9,520.81,172.8,520.81,172.8C974.35,1767,900.38,1701.29,826.85,1673.2Z"/><path class="cls-13" d="M1193,590.28c-58.69,50.37-75.15,127.63-79.51,175.1-1.48,16.11,18.25,25,29.32,13.19,32.62-34.75,79.51-98.33,78.28-175.66A17,17,0,0,0,1193,590.28Z"/><path class="cls-13" d="M1276,766c-58.68,50.38-75.15,127.64-79.51,175.1-1.48,16.11,18.25,25,29.32,13.2,32.62-34.76,79.51-98.34,78.28-175.66A17,17,0,0,0,1276,766Z"/><path class="cls-18" d="M1864.91,757c-6.43,5.34-12.33,16.44-18.58,28.2-9.31,17.51-19.86,37.36-38.9,53.68-21.07,18.05-45.79,25.55-65.66,31.58-4.85,1.47-9.53,2.9-13.89,4.38L1620,843.71a179.57,179.57,0,0,1,65.63-47.3A319.29,319.29,0,0,1,1716.12,786c13.81-4.19,26.85-8.15,33.84-14.13,6.36-5.46,12.2-16.44,18.38-28.07,9.05-17,20.32-38.23,40.13-54.68,26.74-22.22,59-27.85,84.94-32.36,18.14-3.16,35.27-6.15,43.74-13.44,4.56-3.93,9.44-11.55,14.61-19.62,3.26-5.09,6.62-10.36,10.56-15.81a191.11,191.11,0,0,1,69.91-59l10.57,36.29,3-42.38a188.86,188.86,0,0,1,56.93-13.37c3.15-.23,6.07-.36,8.9-.5,4.55-.21,46.7-5.47,59.8,5.1h0a43.77,43.77,0,0,1,9.71,57.09l-39.54-7.88L2167,605c-1.08.65-2.18,1.27-3.34,1.84a89,89,0,0,1-10.3,4.31c-14.09,4.89-27.14,5.51-37.63,6-2.37.11-4.61.22-6.61.37-29.24,2.13-58,18.22-75.2,42-2.5,3.46-5.07,7.49-7.8,11.75a261.7,261.7,0,0,1-15,21.7L1965,688.76l34.65,17c-1.56,1.51-3.17,3-4.86,4.45-26.93,23.2-59.8,28.92-86.21,33.52C1890.56,746.86,1873.55,749.82,1864.91,757Z"/><path class="cls-19" d="M2041.09,598.7c-116.66,92.16-82.76,85.45-187.21,123.2-79.48,28.73-83.73,122.29-150.44,145.89l24.44,7.06c4.36-1.48,9-2.91,13.89-4.38,19.87-6,44.59-13.53,65.66-31.58,19-16.32,29.59-36.17,38.9-53.68,6.25-11.76,12.15-22.86,18.58-28.2,8.64-7.19,25.65-10.15,43.66-13.29,26.41-4.6,59.28-10.32,86.21-33.52,1.69-1.45,3.3-2.94,4.86-4.45l-34.65-17,46.13,4.21a261.7,261.7,0,0,0,15-21.7c2.73-4.26,5.3-8.29,7.8-11.75,17.15-23.77,46-39.86,75.2-42,2-.15,4.24-.26,6.61-.37,10.49-.49,23.54-1.11,37.63-6a89,89,0,0,0,10.3-4.31c1.16-.57,2.26-1.19,3.34-1.84l-25.45-21.76,39.54,7.88a44,44,0,0,0,2.94-40.51C2148.22,545.27,2099.31,552.71,2041.09,598.7Z"/><path class="cls-20" d="M1969.27,518.08c-3.17,14.14-7,31.34-15.36,48.44-26.1,6.17-77.09,18.22-71.32,17,5.4-1.14,39.9.69,60.07,1.89-20.47,28.6-49.59,45.31-73.54,59.06-18.52,10.62-36,20.66-42.64,32-4.92,8.42-7,23-9.14,38.36-3.24,22.93-6.91,48.92-21.3,74.42-15.93,28.21-40.07,46.3-59.47,60.84-7.91,5.92-15.37,11.51-21.38,17-1.11,1-2.18,2.06-3.24,3.13l-105.5-30.45a207.42,207.42,0,0,1,39-48.63c9.81-9,20.17-16.78,29.31-23.63,13.48-10.1,26.22-19.64,31.5-29,4.81-8.52,6.84-22.9,9-38.13,3.14-22.3,7.06-50,22.24-76,20.5-35,53.67-54.09,80.33-69.38,18.65-10.7,36.26-20.81,42.65-32.18,3.44-6.14,5.76-16.45,8.21-27.37,1.55-6.89,3.15-14,5.29-21.56,16.56-58.33,57.77-108.52,111.43-136.49l16.89,14.13-4.56-20.07c3-1.33,5.87-2.53,8.63-3.69,4.91-2,49.08-24.62,67.67-18.24h0c34.95,12,46.15,56.35,20.55,83a107,107,0,0,1-9.58,8.84c-13.51,11-27.6,16.86-38.91,21.59-2.56,1.07-5,2.07-7.11,3-31.24,14-56.45,43.15-65.8,76.07C1971.79,506.87,1970.57,512.31,1969.27,518.08Z"/><path class="cls-19" d="M1945.77,437.76c-76,114.56-37.21,118.09-103.55,172.59s-79.48,44.58-88.51,124.83c-4.21,37.5-46.45,83.11-90.26,121.07l48.5,14c1.06-1.07,2.13-2.12,3.24-3.13,6-5.53,13.47-11.12,21.38-17,19.4-14.54,43.54-32.63,59.47-60.84,14.39-25.5,18.06-51.49,21.3-74.42,2.17-15.4,4.22-29.94,9.14-38.36,6.63-11.33,24.12-21.37,42.64-32,24-13.75,53.07-30.46,73.54-59.06-20.17-1.2-54.67-3-60.07-1.89-5.77,1.22,45.22-10.83,71.32-17,8.31-17.1,12.19-34.3,15.36-48.44,1.3-5.77,2.52-11.21,3.88-16,9.35-32.92,34.56-62.07,65.8-76.07,2.13-1,4.55-2,7.11-3,11.31-4.72,25.4-10.6,38.91-21.59a107,107,0,0,0,9.58-8.84,50,50,0,0,0,10.82-52.23C2056.33,348.44,1989.43,372,1945.77,437.76Z"/><path class="cls-21" d="M1878.15,832.28c-5.67,3-11.84,10.45-18.37,18.33a214.68,214.68,0,0,1-17.8,19.67l-116.16-33.53c3.72-1.06,7.48-2,11.29-2.72a242.94,242.94,0,0,1,24.57-3.12c11-1,21.47-1.95,27.66-5.37,5.64-3.11,11.74-10.47,18.21-18.26,9.46-11.41,21.23-25.6,38.7-34.91,23.59-12.55,48.75-11.76,69-11.13,14.14.45,27.5.87,35-3.3,4-2.25,8.91-7.23,14-12.5,3.25-3.32,6.6-6.76,10.41-10.25A147.84,147.84,0,0,1,2092.52,698c2.4.32,4.62.67,6.77,1,3.45.55,36,3.15,44.2,13.15h0c15.44,18.78,6.41,47.49-17.13,53.58a68.15,68.15,0,0,1-8.42,1.64c-11.37,1.5-21.29-.07-29.26-1.33-1.8-.29-3.5-.56-5-.76a80.24,80.24,0,0,0-63.12,19.9c-2.42,2.22-5,4.85-7.7,7.63l-2.64,2.69-29-7.32,17.12,18.47a95.94,95.94,0,0,1-15.16,10.58c-23.88,13.26-49.5,12.45-70.09,11.81C1899,828.63,1885.78,828.22,1878.15,832.28Z"/><path class="cls-19" d="M2021.65,746.63c-85.16,39.86-96.56,48-138.92,54.69-30,4.74-65.1,37.81-83.07,56.74L1842,870.28a214.68,214.68,0,0,0,17.8-19.67c6.53-7.88,12.7-15.31,18.37-18.33,7.63-4.06,20.89-3.65,34.93-3.2,20.59.64,46.21,1.45,70.09-11.81a95.94,95.94,0,0,0,15.16-10.58l-17.12-18.47,29,7.33,2.64-2.7c2.71-2.78,5.28-5.41,7.7-7.63a80.24,80.24,0,0,1,63.12-19.9c1.53.2,3.23.47,5,.76,8,1.26,17.89,2.83,29.26,1.33a68.15,68.15,0,0,0,8.42-1.64,32.84,32.84,0,0,0,23.94-24.9C2112,731.37,2063.58,727,2021.65,746.63Z"/><path class="cls-16" d="M1657.5,684.3s-58.93,55.64-82.43,49.57c0,0-6.36-.48-18.66-4.39,0,0-12.49,10.07-31.84-9.32l-13.1-2.87s-16.55-3.89-37.27,19.47c-4.69,6.13-8.88,11.82-12.62,17.12-.39.56-.77,1.1-1.15,1.62-44.23,63.17-23.27,68.19-23,68L1551.76,839l4-16.62,5.32-27.15s75.06-23.71,114.91-90Z"/><path class="cls-2" d="M1551.76,839c1.06-3.47,2-7,2.91-10.5s1.71-7.07,2.51-10.61,1.51-7.12,2.18-10.69,1.28-7.16,1.83-10.75a211.11,211.11,0,0,0,2.13-21.73c.21-7.26.11-14.63-1.67-21.71a64.33,64.33,0,0,1,1,10.81c.1,3.62,0,7.25-.22,10.86s-.55,7.22-1,10.82-.9,7.19-1.44,10.78c-1,7.17-2.34,14.31-3.74,21.43q-1,5.34-2.2,10.66C1553.38,832,1552.57,835.49,1551.76,839Z"/><path class="cls-11" d="M1998.43,651.48s-51.52-4.57-80.22,24.78-83.48,110.22-99.13,195S1606,828,1606,828s74.79-234.79,227-265.22c0,0,40.22-8.48,72.18,5.87s53.48,31.3,88,20.87C1993.22,589.52,1987.78,625.39,1998.43,651.48Z"/><path class="cls-22" d="M1998.43,651.48s39.35-1.31,58-23.48c0,0,7-59.14-2.61-60.87s-16.47,3-25.19,6.08-34.49,6.58-35.46,16.31C1993.22,589.52,1988.65,621.48,1998.43,651.48Z"/><path class="cls-23" d="M1886,605c41.38,4.51,81.06,7.33,106,12.18a163.45,163.45,0,0,1,1.27-27.66c-34.57,10.43-56.09-6.52-88-20.87s-72.18-5.87-72.18-5.87C1680.82,593.21,1606,828,1606,828s25.63,16.63,59.15,33.93C1723.71,648.76,1831.68,599.07,1886,605Z"/><path class="cls-13" d="M1998.43,651.48a85.54,85.54,0,0,1-5.06-19.07c-14.13-2.44-55.2-6.63-89.37,18.59-41.65,30.74-111.82,59.54-176.37,238.48,44,15.32,84.69,18.41,91.45-18.21,15.65-84.79,70.44-165.66,99.13-195S1998.43,651.48,1998.43,651.48Z"/><rect class="cls-24" x="2025.54" y="1023.27" width="306.3" height="867.71" rx="11.69"/><path class="cls-25" d="M2282.51,1375.38h0a24,24,0,0,1-24-24V1076.41a24,24,0,0,1,24-24h0a24,24,0,0,1,24,24v274.93A24,24,0,0,1,2282.51,1375.38Z"/><path class="cls-26" d="M2104.64,1023.27h-67.41a11.69,11.69,0,0,0-11.69,11.69v844.33a11.69,11.69,0,0,0,11.69,11.69h282.91a11.69,11.69,0,0,0,11.69-11.69V1458.82C2167.47,1465,2118.18,1216.48,2104.64,1023.27Z"/><path class="cls-11" d="M2398.13,1227.65c-41,16.34-71.09,39.27-93.08,65.6,8.83,16.52,18.94,36.39,18.94,36.39l-33-17.53c-71.63,108.36-28.26,257.4-28.26,257.4,90.65-34.41,137.39-81.41,159-129.54-9.75-9.21-24.42-22.74-24.42-22.74l30.62,7a192.31,192.31,0,0,0,9.44-71.34c-15.93-3.52-33.92-7.93-33.92-7.93l31.78-13.93C2426.67,1272,2398.13,1227.65,2398.13,1227.65Z"/><path class="cls-17" d="M2421.74,1440c-9.75-9.21-24.42-22.74-24.42-22.74l30.62,7a192.31,192.31,0,0,0,9.44-71.34c-15.93-3.52-33.92-7.93-33.92-7.93l31.78-13.93c-8.57-59-37.11-103.33-37.11-103.33-95.3,119.43-135.36,341.86-135.36,341.86C2353.42,1535.1,2400.16,1488.1,2421.74,1440Z"/><path class="cls-7" d="M2749.72,1322.13c-91.81-13.91-171-4.33-239,20.12-1.55,39.41-4.32,86.29-4.32,86.29l-41.24-67c-245.53,120.66-325.36,437.66-325.36,437.66,201.36,34,336.31-1.67,426.76-66.16-7.91-27.11-20.14-67.32-20.14-67.32l48.23,45.23c40.79-35.41,70.89-77,93.1-119.6-25.21-23.36-53.21-50.51-53.21-50.51l72.59,8.52C2754.4,1433.08,2749.72,1322.13,2749.72,1322.13Z"/><path class="cls-8" d="M2566.59,1733.09c-7.91-27.11-20.14-67.32-20.14-67.32l48.23,45.23c40.79-35.41,70.89-77,93.1-119.6-25.21-23.36-53.21-50.51-53.21-50.51l72.59,8.52c47.24-116.33,42.56-227.28,42.56-227.28-300.31,115.58-609.89,477.12-609.89,477.12C2341.19,1833.22,2476.14,1797.58,2566.59,1733.09Z"/><path class="cls-6" d="M2809.47,1518.64c-31.41-40.74-76.22,17.76-87.57,34a359,359,0,0,0-51.92-10.87c21.31-12.77,46.52-8.7,56.94-20.69,11.69-13.44,13.84-35.24-20.84-32.07-27.48,2.51-38.8,37.55-42.33,52a305.92,305.92,0,0,0-67.49-.4c22-18.19,51.51-16.56,61.68-31.49,11.13-16.33,10.67-40.63-27.15-32.63-31.25,6.61-38.53,50-40.11,64.8a169.42,169.42,0,0,0-25.17,5,523.23,523.23,0,0,0-51.12,17.86c19-16.47,44.07-19.86,51.35-34.64,8.73-17.73,4.87-41.73-31.45-28.51-28.73,10.45-31,51.16-30.7,67.71a482,482,0,0,0-86.28,48.66c10.85-20.53,41.54-41.81,44.7-64.06,2.07-14.6-5.7-21.85-12.65-25.38a21.94,21.94,0,0,0-18.89-.42c-34.39,15.22-22.25,75.23-17.76,93.15a456.62,456.62,0,0,0-71.88,64.88c5.52-10.67,13.92-26.73,18.67-34.88,7.48-12.84,10.79-34.08,3.72-46.48-.29-.52-.6-1-.91-1.48-6-9-17.88-11.84-27.8-7.47-38.81,17.09-7.66,83.9-.49,98.11l-.37.43c-44.53,52.46-61.05,96.17-61.73,98l6.79,2.52c.15-.42,15.91-42,56.9-91.59,64.82,21.09,97.85-6.56,95.41-23.5-2.53-17.5-24.31-33.31-46.79-12.73-13,11.93-29.51,21.44-41.06,27.33a449.47,449.47,0,0,1,72.88-66.61c72.24,55.12,102.22,7.4,91.12-11.91-11.23-19.54-27.93-18.22-49.76-4.86a108.19,108.19,0,0,1-37.32,13.85,475,475,0,0,1,84.49-48.07c4.82,15.45,19.94,54.17,50.85,54.92,38.64,1,34.65-23,20.72-37-12.81-12.89-41.77-5.73-66.85-19.93a512.77,512.77,0,0,1,58.29-20.92c.34-.1,18.26-5.44,48.24-6.64,2.88,16.09,13,56,43.46,60.67,38.21,5.82,37.28-18.47,25.23-34.14-10.75-14-39-11.15-61.73-26.74a333.62,333.62,0,0,1,96,12.93c3.12,16.68,13.48,55.16,43.29,59.71,38.21,5.82,37.28-18.47,25.23-34.14-10.9-14.18-39.77-11.06-62.69-27.4l.22-.73c10.44.19,32.59.66,43.17,1.44,14.13,1,33.37-5.33,40.48-17A23.1,23.1,0,0,0,2809.47,1518.64Z"/><path class="cls-16" d="M2683.93,1745.71c-48.53-38-97.42-58.26-144.69-66.3-13.75,22.27-30.64,48.46-30.64,48.46l-2-52.14c-181.27-10.33-330.8,146.88-330.8,146.88,105.31,85.3,194.95,108.71,268.26,100.93,4.27-18.25,10.31-45.48,10.31-45.48l13.13,41.87c35.13-7.17,66.09-21.4,92.82-38.77-7-21.72-14.28-46.55-14.28-46.55l39.17,28.6C2650.45,1811.37,2683.93,1745.71,2683.93,1745.71Z"/><path class="cls-27" d="M2444.06,1923.54c4.27-18.25,10.31-45.48,10.31-45.48l13.13,41.87c35.13-7.17,66.09-21.4,92.82-38.77-7-21.72-14.28-46.55-14.28-46.55l39.17,28.6c65.24-51.84,98.72-117.5,98.72-117.5-211.28-31.13-508.13,76.9-508.13,76.9C2281.11,1907.91,2370.75,1931.32,2444.06,1923.54Z"/><path class="cls-16" d="M2109.51,878.43h138.36a12.9,12.9,0,0,1,12.9,12.9v8a4.31,4.31,0,0,1-4.31,4.31H2100.92a4.31,4.31,0,0,1-4.31-4.31v-8A12.9,12.9,0,0,1,2109.51,878.43Z"/><rect class="cls-28" x="2025.54" y="903.67" width="306.3" height="103.48" rx="23.27"/><path class="cls-29" d="M1949.67,816.48H1053.91a26.19,26.19,0,0,0-26.15,24.59L962.51,1900a26.2,26.2,0,0,0,26.15,27.81H2014.92a26.2,26.2,0,0,0,26.15-27.81L1975.82,841.07A26.2,26.2,0,0,0,1949.67,816.48Z"/><g class="cls-30"><path class="cls-31" d="M2231.68,1528.79v5.57a24.77,24.77,0,0,1-7.29,17.61L2214,1562.35h0a46.72,46.72,0,0,0-13.77,33.25v269.9a56.64,56.64,0,0,0,56.57,56.59h120.13a56.64,56.64,0,0,0,56.57-56.59V1595.6a46.72,46.72,0,0,0-13.77-33.25L2409.36,1552a24.77,24.77,0,0,1-7.29-17.61v-5.57Z"/></g><path class="cls-11" d="M2420.87,1632.07v220.2c0,29.25-23.27,53-52,53h-103.3c-28.71,0-52-23.72-52-53V1630.35Z"/><path class="cls-17" d="M2230.23,1614.15c21.86-.78,73.76,16,94.45,16.79s42.93-14,71.81-11.71c20.43,1.65,24.16,8.78,24.59,12.81a4.24,4.24,0,0,1-2.11,4.11c-3.71,2.15-13.25,6.08-32.23,4.93-25.76-1.56-66,18.74-87.82,20.69-20.25,1.81-59.36-2.08-80.63-21.92a15.14,15.14,0,0,1-4.06-16.58C2216,1618.73,2220.39,1614.5,2230.23,1614.15Z"/><path class="cls-2" d="M2194,1864.11V1596.94a53.89,53.89,0,0,1,15.89-38.36l10.28-10.28a16.85,16.85,0,0,0,5-12v-13.2H2409.3v13.2a16.84,16.84,0,0,0,5,12l10.28,10.28a53.89,53.89,0,0,1,15.89,38.36v267.17a63.78,63.78,0,0,1-63.71,63.71h-119A63.78,63.78,0,0,1,2194,1864.11Zm38.83-333.31v5.51a24.53,24.53,0,0,1-7.22,17.43L2215.37,1564h0a46.21,46.21,0,0,0-13.64,32.92v267.17a56.08,56.08,0,0,0,56,56h119a56.08,56.08,0,0,0,56-56V1596.94a46.25,46.25,0,0,0-13.63-32.92l-10.28-10.28a24.49,24.49,0,0,1-7.22-17.43v-5.51Z"/><g class="cls-32"><path class="cls-2" d="M2399.88,1752.51a6.72,6.72,0,0,0,6.78-6.67c.21-29,1-139.9-.08-151.47s-11.72-18.46-19.26-21.94a6.73,6.73,0,0,0-9.25,4.25v0a6.74,6.74,0,0,0,3.63,8c5.21,2.43,11.08,6.39,11.48,10.88.84,9.5.41,98.75,0,150.18a6.73,6.73,0,0,0,6.68,6.77Z"/></g><circle class="cls-17" cx="2371.12" cy="1863.14" r="13.67"/><path class="cls-17" d="M2344.92,1822.7a7.12,7.12,0,1,0,7.12-7.12A7.12,7.12,0,0,0,2344.92,1822.7Z"/><path class="cls-17" d="M2296.9,1867.13A7.12,7.12,0,1,0,2304,1860,7.12,7.12,0,0,0,2296.9,1867.13Z"/><path class="cls-17" d="M2368,1820.48a1.83,1.83,0,1,0,1.83-1.82A1.82,1.82,0,0,0,2368,1820.48Z"/><path class="cls-17" d="M2265.28,1839.85a2.38,2.38,0,1,0,2.38-2.38A2.39,2.39,0,0,0,2265.28,1839.85Z"/><path class="cls-17" d="M2285.39,1799.92a4.28,4.28,0,1,0,4.28-4.28A4.28,4.28,0,0,0,2285.39,1799.92Z"/><path class="cls-17" d="M2365.53,1772.07a4.28,4.28,0,1,0,4.28-4.27A4.28,4.28,0,0,0,2365.53,1772.07Z"/><path class="cls-17" d="M2356.53,1780.63a1.63,1.63,0,1,0,1.63-1.63A1.63,1.63,0,0,0,2356.53,1780.63Z"/><path class="cls-17" d="M2373.78,1790.33a4.57,4.57,0,1,0,4.57-4.57A4.56,4.56,0,0,0,2373.78,1790.33Z"/><path class="cls-17" d="M2231.77,1835.89a13.58,13.58,0,1,0,13.58-13.59A13.58,13.58,0,0,0,2231.77,1835.89Z"/><circle class="cls-17" cx="2268.42" cy="1812.91" r="5.94"/><path class="cls-17" d="M2231.77,1782.38a9.61,9.61,0,1,0,9.6-9.6A9.6,9.6,0,0,0,2231.77,1782.38Z"/><path class="cls-21" d="M2221,1497.09h194a14,14,0,0,1,14,14v5.62a14,14,0,0,1-14,14H2221a14,14,0,0,1-14-14v-5.62a14,14,0,0,1,14-14Z" transform="translate(4636.01 3027.89) rotate(180)"/><path class="cls-19" d="M2218.46,1521.31h199.08a11.48,11.48,0,0,0,11.49-11.49v9.5a11.48,11.48,0,0,1-11.49,11.48H2218.46a11.48,11.48,0,0,1-11.48-11.48v-9.5A11.48,11.48,0,0,0,2218.46,1521.31Z"/><g class="cls-33"><rect class="cls-34" x="2414.41" y="1497.09" width="3.14" height="33.71" transform="translate(4831.95 3027.89) rotate(180)"/><rect class="cls-34" x="2396.56" y="1497.09" width="3.14" height="33.71" transform="translate(4796.25 3027.89) rotate(180)"/><rect class="cls-34" x="2378.71" y="1497.09" width="3.14" height="33.71" transform="translate(4760.56 3027.89) rotate(180)"/><rect class="cls-34" x="2360.86" y="1497.09" width="3.14" height="33.71" transform="translate(4724.87 3027.89) rotate(180)"/><rect class="cls-34" x="2343.02" y="1497.09" width="3.14" height="33.71" transform="translate(4689.17 3027.89) rotate(180)"/><rect class="cls-34" x="2325.17" y="1497.09" width="3.14" height="33.71" transform="translate(4653.48 3027.89) rotate(180)"/><rect class="cls-34" x="2307.32" y="1497.09" width="3.14" height="33.71" transform="translate(4617.78 3027.89) rotate(180)"/><rect class="cls-34" x="2289.48" y="1497.09" width="3.14" height="33.71" transform="translate(4582.09 3027.89) rotate(180)"/><rect class="cls-34" x="2271.63" y="1497.09" width="3.14" height="33.71" transform="translate(4546.39 3027.89) rotate(180)"/><rect class="cls-35" x="2253.78" y="1497.09" width="3.14" height="33.71" transform="translate(4510.7 3027.89) rotate(180)"/><rect class="cls-35" x="2235.94" y="1497.09" width="3.14" height="33.71" transform="translate(4475.01 3027.89) rotate(180)"/><rect class="cls-35" x="2218.09" y="1497.09" width="3.14" height="33.71" transform="translate(4439.31 3027.89) rotate(180)"/></g><path class="cls-29" d="M1138.19,816.48s11.74-286.31,255.66-382.84,405.67,138.27,434.36,382.84l-71.74,30.65-11.74-30.65s5.22-376.32-242.94-369.79c-245.35,6.44-293.16,375.66-293.16,375.66s-39.14,99.13-41.74,90S1138.19,816.48,1138.19,816.48Z"/><path class="cls-36" d="M2032.58,1762.21c-806.94,18.74-810.92-715-792.3-945.73H1053.91a26.19,26.19,0,0,0-26.15,24.59L962.51,1900a26.2,26.2,0,0,0,26.15,27.81H2014.92a26.2,26.2,0,0,0,26.15-27.81Z"/><g class="cls-30"><path class="cls-31" d="M1988.16,1399v7.38a32.78,32.78,0,0,1-9.66,23.33l-13.76,13.76a62,62,0,0,0-18.25,44.07v357.68a75.08,75.08,0,0,0,75,75h159.2a75.07,75.07,0,0,0,75-75V1487.55a62,62,0,0,0-18.25-44.07h0l-13.75-13.76a32.79,32.79,0,0,1-9.67-23.33V1399Z"/></g><path class="cls-16" d="M1963.24,1535.88v291.81c0,38.77,30.85,70.21,68.89,70.21H2169c38.05,0,68.89-31.44,68.89-70.21V1533.6Z"/><path class="cls-27" d="M2215.89,1512.14c-29-1-97.76,21.2-125.17,22.24s-56.9-18.62-95.17-15.52c-27.08,2.19-32,11.64-32.58,17a5.6,5.6,0,0,0,2.8,5.45c4.91,2.85,17.55,8.07,42.71,6.54,34.14-2.06,87.41,24.83,116.37,27.42,26.85,2.39,78.67-2.76,106.86-29,6-5.62,8.44-14.32,5.38-22C2234.69,1518.2,2228.92,1512.6,2215.89,1512.14Z"/><path class="cls-2" d="M2179.41,1927.82H2021.75a84.53,84.53,0,0,1-84.43-84.43V1489.32a71.45,71.45,0,0,1,21-50.83l13.63-13.62a22.36,22.36,0,0,0,6.58-15.9v-17.49h244V1409a22.33,22.33,0,0,0,6.59,15.9l13.62,13.62a71.4,71.4,0,0,1,21.05,50.83v354.07A84.52,84.52,0,0,1,2179.41,1927.82Zm-190.64-526.15v7.3a32.45,32.45,0,0,1-9.57,23.1l-13.62,13.63a61.28,61.28,0,0,0-18.07,43.62v354.07a74.32,74.32,0,0,0,74.24,74.24h157.66a74.32,74.32,0,0,0,74.24-74.24V1489.32a61.24,61.24,0,0,0-18.07-43.62h0L2222,1432.07a32.45,32.45,0,0,1-9.57-23.1v-7.3Z"/><g class="cls-32"><path class="cls-2" d="M1991.06,1695.5a8.92,8.92,0,0,1-9-8.85c-.28-38.45-1.25-185.39.11-200.73s15.53-24.46,25.52-29.07a8.9,8.9,0,0,1,12.26,5.62v0a8.91,8.91,0,0,1-4.81,10.57c-6.9,3.23-14.69,8.48-15.21,14.42-1.11,12.59-.54,130.88,0,199a8.93,8.93,0,0,1-8.85,9Z"/></g><circle class="cls-27" cx="2029.18" cy="1842.1" r="18.12"/><path class="cls-27" d="M2063.9,1788.51a9.44,9.44,0,1,1-9.44-9.43A9.44,9.44,0,0,1,2063.9,1788.51Z"/><circle class="cls-27" cx="2118.1" cy="1847.39" r="9.44" transform="translate(-685.92 2038.81) rotate(-45)"/><path class="cls-27" d="M2033.33,1785.57a2.42,2.42,0,1,1-2.41-2.41A2.41,2.41,0,0,1,2033.33,1785.57Z"/><path class="cls-27" d="M2169.44,1811.23a3.16,3.16,0,1,1-3.16-3.15A3.16,3.16,0,0,1,2169.44,1811.23Z"/><path class="cls-27" d="M2142.78,1758.32a5.66,5.66,0,1,1-5.66-5.66A5.66,5.66,0,0,1,2142.78,1758.32Z"/><path class="cls-27" d="M2036.58,1721.41a5.67,5.67,0,1,1-5.66-5.66A5.66,5.66,0,0,1,2036.58,1721.41Z"/><path class="cls-27" d="M2048.51,1732.76a2.16,2.16,0,1,1-2.16-2.16A2.17,2.17,0,0,1,2048.51,1732.76Z"/><path class="cls-27" d="M2025.65,1745.62a6.06,6.06,0,1,1-6.06-6.06A6.05,6.05,0,0,1,2025.65,1745.62Z"/><path class="cls-27" d="M2213.85,1806a18,18,0,1,1-18-18A18,18,0,0,1,2213.85,1806Z"/><path class="cls-27" d="M2173.14,1775.54a7.87,7.87,0,1,1-7.86-7.87A7.86,7.86,0,0,1,2173.14,1775.54Z"/><path class="cls-27" d="M2213.85,1735.08a12.73,12.73,0,1,1-12.73-12.73A12.73,12.73,0,0,1,2213.85,1735.08Z"/><rect class="cls-11" x="1952.43" y="1357" width="294.27" height="44.68" rx="17.93"/><path class="cls-17" d="M2231.48,1389.09H1967.65a15.22,15.22,0,0,1-15.22-15.22v12.58a15.22,15.22,0,0,0,15.22,15.22h263.83a15.21,15.21,0,0,0,15.22-15.22v-12.58A15.21,15.21,0,0,1,2231.48,1389.09Z"/><g class="cls-33"><rect class="cls-35" x="1967.65" y="1357" width="4.16" height="44.68"/><rect class="cls-35" x="1991.3" y="1357" width="4.16" height="44.68"/><rect class="cls-35" x="2014.96" y="1357" width="4.16" height="44.68"/><rect class="cls-35" x="2038.61" y="1357" width="4.16" height="44.68"/><rect class="cls-35" x="2062.26" y="1357" width="4.16" height="44.68"/><rect class="cls-35" x="2085.91" y="1357" width="4.16" height="44.68"/><rect class="cls-35" x="2109.56" y="1357" width="4.16" height="44.68"/><rect class="cls-35" x="2133.21" y="1357" width="4.16" height="44.68"/><rect class="cls-35" x="2156.87" y="1357" width="4.16" height="44.68"/><rect class="cls-35" x="2180.52" y="1357" width="4.16" height="44.68"/><rect class="cls-35" x="2204.17" y="1357" width="4.16" height="44.68"/><rect class="cls-35" x="2227.82" y="1357" width="4.16" height="44.68"/></g><polygon class="cls-27" points="1632.77 1333.06 1760.49 1273.11 1825.65 1391.7 1830.22 1419.73 1798.29 1494.66 1703.85 1476.72 1632.77 1333.06"/><path class="cls-16" d="M1587.16,1467.29h161.71c28.19,0,54.86-14.68,68.37-39.42a67,67,0,0,0,8.41-36.16s59.95,181.15-80.8,204.61H1587.16V1623l-87.32-84.71,88-94.48Z"/><polygon class="cls-27" points="1435.66 1470.77 1427.72 1611.64 1292.4 1612.61 1265.58 1603.31 1214.82 1539.61 1275.48 1465.04 1435.66 1470.77"/><path class="cls-16" d="M1339.23,1366.85l-76.85,142.28c-13.39,24.81-13.15,55.25,2.2,78.9a67,67,0,0,0,27.82,24.58s-187.88-33.34-141.63-168.33l74.94-138.75-23.51-12.69,116-36.58,41.33,122.31Z"/><polygon class="cls-27" points="1427.73 1257.1 1306.51 1184.91 1368.23 1064.48 1388.88 1045 1468.84 1029.46 1506.9 1117.73 1427.73 1257.1"/><path class="cls-16" d="M1564.48,1219.66l-90.62-133.94c-15.8-23.35-42.9-37.2-71-34.53a67,67,0,0,0-34.66,13.29s116.44-151.16,214.75-47.73l88.36,130.61,22.13-15-21.24,119.79-127.55-19.91Z"/><path class="cls-6" d="M2806.77,1928.12H221.89a7.26,7.26,0,0,1-7.26-7.26h0a7.26,7.26,0,0,1,7.26-7.26H2806.77a7.26,7.26,0,0,1,7.27,7.26h0A7.26,7.26,0,0,1,2806.77,1928.12Z"/><path class="cls-37" d="M967.48,223.78a32.07,32.07,0,0,1,39.3-23.8,47.15,47.15,0,0,1,56.73-25.06,58.13,58.13,0,0,1,104.41,10.15,39.87,39.87,0,0,1,59.25,34.85c0,1.3-.07,2.59-.19,3.86Z"/><path class="cls-37" d="M2384.81,598.64A31.92,31.92,0,0,1,2424,574.92a47,47,0,0,1,56.53-25,57.9,57.9,0,0,1,104,10.12,39.73,39.73,0,0,1,59,34.71c0,1.3-.07,2.59-.19,3.86Z"/><path class="cls-37" d="M454.32,662.66a31.93,31.93,0,0,1,39.16-23.72A47,47,0,0,1,550,614a57.91,57.91,0,0,1,104,10.12,39.73,39.73,0,0,1,59,34.71c0,1.3-.07,2.59-.19,3.86Z"/><path class="cls-37" d="M2281.1,441.51a12.52,12.52,0,0,1,12.2-9.7,12.67,12.67,0,0,1,3.16.4,18.43,18.43,0,0,1,22.16-9.79,22.72,22.72,0,0,1,40.8,4A15.57,15.57,0,0,1,2382.57,440a15.11,15.11,0,0,1-.08,1.51Z"/><path class="cls-37" d="M687.82,502.33a12.53,12.53,0,0,1,12.2-9.7,12.67,12.67,0,0,1,3.16.4,18.43,18.43,0,0,1,22.16-9.79,22.71,22.71,0,0,1,40.79,4,15.58,15.58,0,0,1,23.16,13.61,15,15,0,0,1-.08,1.51Z"/><path class="cls-37" d="M1461.89,306a17.77,17.77,0,0,1,17.32-13.78,17.41,17.41,0,0,1,4.48.58,26.17,26.17,0,0,1,31.48-13.91,32.25,32.25,0,0,1,57.93,5.63A22.12,22.12,0,0,1,1606,303.84c0,.72,0,1.44-.11,2.14Z"/><path class="cls-12" d="M1660.74,686.6l-.72.07v.39l3.87,4.55,1.09.22s7.51-.3,12,1.95S1676.57,685.25,1660.74,686.6Z"/><path class="cls-2" d="M1503.59,747.52q-3,6.54-6.15,13c-2.09,4.32-4.23,8.6-6.37,12.89l-6.48,12.82-3.25,6.41c-1.09,2.13-2.16,4.27-3.15,6.45,1.6-4.52,3.62-8.89,5.63-13.23s4.13-8.65,6.27-12.94,4.34-8.55,6.59-12.78S1501.21,751.68,1503.59,747.52Z"/><path class="cls-2" d="M1469.13,799.42a111.18,111.18,0,0,1,18.15-1,129.59,129.59,0,0,1,18.12,1.68,122.28,122.28,0,0,1,17.69,4.3l4.3,1.53a10.7,10.7,0,0,1,1.07.41l1,.48,2,1q2,1,4,2.08c1.34.72,2.65,1.48,3.91,2.32-2.65-1.46-5.4-2.71-8.17-3.91l-2.08-.9-1-.44a11,11,0,0,0-1.06-.36l-4.3-1.38a147.19,147.19,0,0,0-17.61-4,152.43,152.43,0,0,0-18-1.91c-3-.12-6-.23-9-.2S1472.15,799.19,1469.13,799.42Z"/><path class="cls-12" d="M1551.37,815.36c-6.26-3.73-14.25-3.74-20.77-2.8l-.95.2c-5.11,1.07-4.92,3.87-4.54,5.14a1,1,0,0,0,.92.67c.79,0,1.81.09,3.18.24,8,.92,0,10.14,3.08,10.29,4,.2,3.2-8.46,5.26-8.23,3.87.43-1.07,7.93,1.48,8.46,2.79.59.82-8.73,5.27-8.3,2.38.22-.93,8.58,1.89,8.07s.74-8.07,3.46-7.85c4,.34-1.24,7.57,1.72,8.08C1553.15,829.64,1555.81,818,1551.37,815.36Z"/><path class="cls-38" d="M1579.52,688.1c-1.72,3.75-.68,7.91,2.32,9.28s6.83-.55,8.55-4.3.68-7.91-2.32-9.28S1581.24,684.34,1579.52,688.1Z"/><path class="cls-12" d="M1577.46,710.39a30.53,30.53,0,0,0,2.63-5.12,58.69,58.69,0,0,0,3.82-14.54c.14-1,.33-1.93.54-2.89a31.93,31.93,0,1,0-63.08-8.24,6.87,6.87,0,0,0-6.19-.75c-3.86,1.53-5.44,6.67-3.53,11.5s6.58,7.49,10.44,6a5.91,5.91,0,0,0,1.47-.84c.92,15.69,13.2,28.3,28.56,28.7a28.67,28.67,0,0,0,19.77-7.25,14.51,14.51,0,0,0,1.12-1A27.24,27.24,0,0,0,1577.46,710.39Z"/><path class="cls-39" d="M1549.89,683.6a2.79,2.79,0,1,1-2.71-2.86A2.78,2.78,0,0,1,1549.89,683.6Z"/><path class="cls-39" d="M1573.78,685.8a2.79,2.79,0,1,1-2.72-2.86A2.78,2.78,0,0,1,1573.78,685.8Z"/><path class="cls-6" d="M1553.4,678.16a26.82,26.82,0,0,0-3.94-1.42,13.58,13.58,0,0,0-3.87-.47,12.42,12.42,0,0,0-3.83.65l-.48.13c-.16.05-.31.13-.47.19l-1,.38c-.65.26-1.26.61-2,.86a12.87,12.87,0,0,1,1.43-1.7,10.38,10.38,0,0,1,1.83-1.32,9,9,0,0,1,4.43-1.22,9.53,9.53,0,0,1,4.48,1A8.82,8.82,0,0,1,1553.4,678.16Z"/><path class="cls-6" d="M1564.6,679a8.72,8.72,0,0,1,3.77-2.35,9.49,9.49,0,0,1,4.59-.32,9.05,9.05,0,0,1,4.19,1.89,10.46,10.46,0,0,1,1.6,1.59,12.81,12.81,0,0,1,1.15,1.9c-.67-.36-1.22-.8-1.82-1.16l-.9-.52c-.15-.08-.28-.18-.43-.26l-.46-.21a12.87,12.87,0,0,0-3.68-1.23,14.08,14.08,0,0,0-3.9-.13A26.56,26.56,0,0,0,1564.6,679Z"/><path class="cls-38" d="M1559.07,681.29a40.41,40.41,0,0,1,2.59,4.69,38,38,0,0,1,2,5,14.8,14.8,0,0,1,.57,2.71,4.85,4.85,0,0,1,0,.76,2.79,2.79,0,0,1-.07.4,1.64,1.64,0,0,1-.18.44l-.17.22-.13.12a3.22,3.22,0,0,1-.28.24c-.19.14-.38.29-.58.41a12.39,12.39,0,0,1-2.46,1.19,16.64,16.64,0,0,1-2.59.74,28.45,28.45,0,0,0,4.55-2.63,4.91,4.91,0,0,0,.48-.41l.22-.21.1-.11,0-.05a2.12,2.12,0,0,0,0-1,14.43,14.43,0,0,0-.58-2.49c-.5-1.67-1.13-3.32-1.73-5S1559.64,683,1559.07,681.29Z"/><path class="cls-6" d="M1533.71,640.09s9.65-7.14,30-4.17,23.42,14.34,23.31,30.21l-1.9,17.25s-5.67-4.66-11.35-20.91c0,0-12.54,12.36-17.42,10.37s2.79-11,2.79-11-24.07,19.13-37.84,18c0,0-6.33-25.2,4.62-33.28,0,0-7.74-.26-8-1.86s4-3.6,11.33-2.11c0,0-4.43-11.1-1.39-12S1533.71,640.09,1533.71,640.09Z"/><path class="cls-2" d="M1565.7,704.94c-1.27,3.26-5.53,5.32-10.27,4.74s-8.39-3.6-8.83-7.07Z"/><polygon class="cls-12" points="1891.03 1894.2 1891.03 1879.27 1873.94 1874.54 1870.14 1876.2 1869.49 1894.2 1874.87 1909.88 1891.03 1894.2"/><polygon class="cls-12" points="1781.85 1894.2 1781.85 1879.27 1764.76 1874.54 1760.96 1876.2 1760.31 1894.2 1765.69 1909.88 1781.85 1894.2"/><path class="cls-8" d="M1766.83,1409s-22.42,26.63-75.21,31.33-13.27,32.58-13.27,32.58,63.62,9.16,85.85-5.77S1766.83,1409,1766.83,1409Z"/><polygon class="cls-39" points="1744.69 1587.92 1756.81 1883.39 1785.05 1883.39 1809.92 1660.06 1777.31 1560.01 1744.69 1587.92"/><path class="cls-39" d="M1756.81,1588.55l110.6,294.84,27.09-2.21s-33.72-270.32-53.9-296-64.4-20.18-64.4-20.18Z"/><path class="cls-6" d="M1818.52,1358.87s5.88-30.51-11.3-41.24-34.9-8.83-46.73-1.61-18.18,31.16-12.24,44.48l39.65-14.35Z"/><path class="cls-12" d="M1769.09,1409.26s13.66,8.1,24.3,0h0l-2.51-19.77-21.17-4.36-.62,24.13Z"/><path class="cls-38" d="M1755.07,1358.24c1.22,3.72-.28,7.5-3.35,8.45s-6.56-1.3-7.78-5,.28-7.5,3.35-8.45S1753.85,1354.52,1755.07,1358.24Z"/><path class="cls-12" d="M1754.41,1379.4a28.8,28.8,0,0,1-1.94-5.11,54.3,54.3,0,0,1-2-14.08c0-.93-.09-1.85-.18-2.78a29.43,29.43,0,0,1,1.19-11.58c3.93-12.69,16.23-21.53,29.91-21.47,18.42.09,32.41,15.25,31,32.57a6.9,6.9,0,0,1,6.08,0c3.56,1.87,4.47,6.89,2,11.2s-7.27,6.27-10.83,4.39a6,6,0,0,1-1.32-1,29.07,29.07,0,0,1-31.08,23.65,28.26,28.26,0,0,1-18.29-9.08c-.31-.29-.63-.64-1-1A25.73,25.73,0,0,1,1754.41,1379.4Z"/><path class="cls-39" d="M1782.26,1357.79a2.66,2.66,0,0,0,2.45,2.87,2.7,2.7,0,0,0,3-2.37,2.67,2.67,0,0,0-2.45-2.88A2.7,2.7,0,0,0,1782.26,1357.79Z"/><path class="cls-39" d="M1760.91,1356.75a2.65,2.65,0,0,0,2.44,2.87,2.69,2.69,0,0,0,3-2.37,2.65,2.65,0,0,0-2.45-2.87A2.69,2.69,0,0,0,1760.91,1356.75Z"/><path class="cls-6" d="M1779.51,1352.28a26.74,26.74,0,0,1,4-.88,13.51,13.51,0,0,1,3.81,0,12.56,12.56,0,0,1,3.63,1.06l.45.18c.16.07.29.16.44.23l.89.46c.6.33,1.15.72,1.81,1a12,12,0,0,0-1.18-1.76,9.76,9.76,0,0,0-1.62-1.45,9,9,0,0,0-4.14-1.66,9.72,9.72,0,0,0-4.46.44A8.67,8.67,0,0,0,1779.51,1352.28Z"/><path class="cls-6" d="M1770.6,1351.45a8.43,8.43,0,0,0-3.38-2.64,9.35,9.35,0,0,0-4.39-.82,9,9,0,0,0-4.29,1.29,9.74,9.74,0,0,0-1.74,1.3,12.25,12.25,0,0,0-1.34,1.65c.69-.26,1.27-.61,1.9-.88l.93-.38c.15-.06.29-.14.45-.19l.47-.15a13.07,13.07,0,0,1,3.71-.74,14.08,14.08,0,0,1,3.8.33A26.24,26.24,0,0,1,1770.6,1351.45Z"/><path class="cls-38" d="M1774.86,1351.38a19.6,19.6,0,0,1,.38,5.67,15.2,15.2,0,0,1-.48,2.88,7.28,7.28,0,0,1-1.4,2.83l-.33.32-.29.27a2.77,2.77,0,0,0-.39.37,2.13,2.13,0,0,0-.49.86,2.47,2.47,0,0,0,.4,2,8.11,8.11,0,0,0,4.43,2.87,6.74,6.74,0,0,1-5.6-2,3.81,3.81,0,0,1-.95-3.23,2.93,2.93,0,0,1,.3-.86,3.43,3.43,0,0,1,.48-.75,4.54,4.54,0,0,1,.62-.62,2.65,2.65,0,0,0,.23-.22l.18-.18a6.88,6.88,0,0,0,1.13-2.14,21.81,21.81,0,0,0,.72-2.58C1774.2,1355.08,1774.51,1353.25,1774.86,1351.38Z"/><path class="cls-2" d="M1766.46,1373.14c.91,3.23,4.89,5.62,9.62,5.54s8.62-2.61,9.41-5.87Z"/><path class="cls-6" d="M1811.62,1357.89a4.92,4.92,0,0,1,3.2-1.6l-1.22-9.74-3.26-5.78s-12.53-15.38-13-15.76-9.72-5.15-10.29-5.39-13.22,2.17-13.22,2.17-22.56-3.7-18.33,7.86,20.82,17,21.64,16.5c-2.76-2.52-3.32-10-3.32-10C1785.92,1348.29,1808.16,1356.64,1811.62,1357.89Z"/><path class="cls-2" d="M1736.21,1913.6l47.13,0a2.57,2.57,0,0,0,2.57-2.57v-.13a2.56,2.56,0,0,0-2.57-2.56l-47.13,0a2.57,2.57,0,0,0-2.57,2.56v.13A2.57,2.57,0,0,0,1736.21,1913.6Z"/><path class="cls-39" d="M1783.5,1892.33l1.74,14.63c.22,1.8-.79,3.44-2.11,3.44l-46.06,0a3.36,3.36,0,0,1-3-2.15c-.64-1.44-.77-3.61,1.29-6.52,4-5.67,16.91-7.18,23.71-11.84a2.45,2.45,0,0,1,1.33-.41h20.7C1782.29,1889.5,1783.31,1890.7,1783.5,1892.33Z"/><path class="cls-2" d="M1844.8,1913.6l47.14,0a2.57,2.57,0,0,0,2.56-2.57v-.13a2.56,2.56,0,0,0-2.57-2.56l-47.13,0a2.55,2.55,0,0,0-2.56,2.56v.13A2.57,2.57,0,0,0,1844.8,1913.6Z"/><path class="cls-39" d="M1892.09,1892.33l1.75,14.63c.21,1.8-.8,3.44-2.12,3.44l-46.06,0a3.37,3.37,0,0,1-3-2.15c-.64-1.44-.77-3.61,1.29-6.52,4-5.67,16.91-7.18,23.72-11.84a2.4,2.4,0,0,1,1.33-.41h20.69C1890.88,1889.5,1891.9,1890.7,1892.09,1892.33Z"/><path class="cls-11" d="M1599.85,1430.83l1.68-.33,94.18-18.3a18,18,0,0,1,21.33,15.44L1745.85,1655a18,18,0,0,1-9.74,18.36c-15.59,7.86-46,21.39-82.7,28.53s-70,6-87.36,4.53a18,18,0,0,1-15.91-13.37l-58.46-221.56a18,18,0,0,1,14-22.31Z"/><path class="cls-39" d="M1476.83,1423.62c.71-9.51,5.83-16.72,12.84-18.08l101.43-19.72,1.68-.32,101.43-19.72c7-1.37,14.46,3.4,18.68,12l14.06,28.51a13.53,13.53,0,0,1-9.55,19.26l-112.58,21.88-1.69.33-112.59,21.89a13.52,13.52,0,0,1-16.06-14.28Z"/><path class="cls-39" d="M1486.65,1389.2a7.75,7.75,0,0,1,6.12-9.08l93.68-18.21,1.69-.33,93.67-18.21a7.74,7.74,0,0,1,9.07,6.12l4.43,22.79L1592,1385.71,1491.08,1412Z"/><path class="cls-40" d="M1730,1467.75l11.27,103.69a4.22,4.22,0,0,1-2.32,4.24,421.2,421.2,0,0,1-212.16,41.24,4.21,4.21,0,0,1-3.74-3.06l-28.4-100.36a4.21,4.21,0,0,1,4.1-5.36c52.11.82,177.44-23.55,225.44-43.83A4.21,4.21,0,0,1,1730,1467.75Z"/><path class="cls-41" d="M1590.91,1548.58a41.37,41.37,0,1,0,41.37-41.37A41.37,41.37,0,0,0,1590.91,1548.58Z"/><path class="cls-12" d="M1669.89,1509.34a.84.84,0,0,1-.33,1.44c-5,1.35-20.64,5.7-20.59,7,.07,1.6,14.15-1.94,15-.7s-13,4.35-12.66,6.05,12.86-1.56,13.26-.9-11.26,5.07-11.66,6.19,12.62-2.06,13.33-1.39-7.54,5.86-7.18,6.62.48,1.32,22.4-5l8.52-2.87,5.69-6.1-4.26-9.08s-27.45-10.43-28.44-9.73S1662.21,1502.53,1669.89,1509.34Z"/><path class="cls-7" d="M1686.92,1499.47c10.83,2.59,36.3,1.3,55.6-.22.16-16,.77-30.81,2.17-41.24,5-37,22.14-49,22.14-49a42.66,42.66,0,0,0,29-7.09c23,.28,36.21,12.72,36.21,12.72,35.25,30.4,8.57,92.59,8.57,92.59l9.68,82.17c-21.84,7.46-111.12,3-111.12,3s4.37-26.17,3.73-52.8c-28.3-1.59-56-6.09-56-6.09C1685.82,1527.39,1686.92,1499.47,1686.92,1499.47Z"/><path class="cls-42" d="M1804.76,1444.1a46.31,46.31,0,0,1-13.84,32.61,60,60,0,0,1-14.52,10.62,83.2,83.2,0,0,1-16.8,6.74c-.72.21-1.44.47-2.17.65l-2.21.54c-1.48.36-2.94.75-4.43,1.07l-4.48.84-2.24.42-2.26.31c-3,.43-6,.89-9.06,1.11l-4.56.42c-1.52.12-3,.18-4.56.26a356.87,356.87,0,0,1-36.71-.22,237.81,237.81,0,0,0,36.78,2.16c12.3-.33,24.69-1.65,36.6-5.18a83.26,83.26,0,0,0,17.23-7.06,59.32,59.32,0,0,0,14.79-11.34,46.79,46.79,0,0,0,9.85-15.75,47.46,47.46,0,0,0,2.3-9A35.11,35.11,0,0,0,1804.76,1444.1Z"/><path class="cls-42" d="M1686.92,1533.47a310.3,310.3,0,0,0,40.61,6.19,275.68,275.68,0,0,0,41.15.73c13.69-.94,27.47-3,40.46-7.8a70.46,70.46,0,0,0,18.22-9.75,45.38,45.38,0,0,0,13.24-15.63,46.94,46.94,0,0,1-14,14.64,73.32,73.32,0,0,1-18.16,8.91,125.39,125.39,0,0,1-19.72,4.87,195.78,195.78,0,0,1-20.24,2.28,331.45,331.45,0,0,1-40.85-.17q-10.22-.65-20.4-1.71C1700.47,1535.37,1693.69,1534.48,1686.92,1533.47Z"/><path class="cls-43" d="M647,543.91,660.91,602l28.2-43.76,96.46-107.6L696,494.89s-42.89,29.72-44.56,33S647,543.91,647,543.91Z"/><polygon class="cls-18" points="594.83 526.38 785.59 451.31 648.29 543.73 594.83 526.38"/><polygon class="cls-18" points="730.45 575.57 664.19 554.41 785.57 450.61 730.45 575.57"/><path class="cls-43" d="M525.58,930.57l1.08-4.71a55.08,55.08,0,0,1-14.19-5.47l-2.33,4.22A59.72,59.72,0,0,0,525.58,930.57Z"/><path class="cls-43" d="M469.62,876.6l4.36-2.08a135.22,135.22,0,0,0,15.92,26.07l-3.77,3A140,140,0,0,1,469.62,876.6ZM457.4,843.08a130.78,130.78,0,0,1-2.56-14c-.55-4.36-.89-8.83-1-13.28l4.83-.13c.11,4.3.44,8.6,1,12.8A126.05,126.05,0,0,0,462.1,842q.47,1.95,1,3.87l-4.66,1.27C458.06,845.74,457.71,844.39,457.4,843.08Zm-1-58.81a184.05,184.05,0,0,1,8.44-30.39l4.53,1.68a178.74,178.74,0,0,0-8.22,29.58Zm139.4-64-1-.21,1.06-4.71.81.17a2.09,2.09,0,0,0,.5,0c2.68-.34,9.13-2.83,11.92-6.38a20.42,20.42,0,0,0,4.1-11.07l4.81.43a25.57,25.57,0,0,1-5.12,13.63c-3.86,4.92-11.74,7.75-15.1,8.18A6.3,6.3,0,0,1,595.76,720.27Zm-117.89,5a252.6,252.6,0,0,1,16.76-26.62l3.92,2.82a246.51,246.51,0,0,0-16.44,26.1Zm86.36-33.19a58.63,58.63,0,0,1-3.45-13.86,69.48,69.48,0,0,1-.54-8.12l4.83,0a64,64,0,0,0,.5,7.55,53.62,53.62,0,0,0,3.16,12.72,44.52,44.52,0,0,0,4.13,8.07L568.81,701A49.71,49.71,0,0,1,564.23,692.05ZM577,660.77l-.68,0,.34-4.82.74.06c11,.92,21.58,5.45,28.95,12.41l-3.32,3.51C596.48,665.65,587,661.6,577,660.77Zm-59.46,15.89C522,673.21,530.1,667.1,534.8,665c3.65-1.61,7-3,10.37-4.13l1.6,4.56c-3.21,1.13-6.49,2.43-10,4-3.08,1.36-9,5.37-16.19,11Zm48.27-37.94a107.7,107.7,0,0,1,14.87-28.06l3.89,2.86a102.87,102.87,0,0,0-14.21,26.81Z"/><path class="cls-43" d="M606,592a92.86,92.86,0,0,1,13.19-8.16L617,579.56a98,98,0,0,0-13.87,8.58Z"/><path class="cls-16" d="M1051.13,1305.14c-9.9,0-26.69-6.58-45,5.32-5.17,3.37-8.5,8.86-10.58,14.67a94.17,94.17,0,0,0-4,15.89c-1.8,10.48-26.9,7.83-35.5,26.19-11.18,23.86,8.52,45.4,22.84,61.89,31.12,35.83,71.28,26.34,81.15,31.08,7.1,3.41,1.86-11,9.72-10.49s17,.35,21.39-6c2.53-3.65,2.72-8.41,4.51-12.47,2.51-5.69,7.87-9.5,13-13,6.45-4.45,12.94-8.92,20-12.27,7.53-3.56,49.6-7.9,37-62.14-4.87-21-17.29-33.5-30.19-42.52-9.26-6.48-17.84-8.81-30.78-9.16C1075.13,1291.27,1077.23,1305.14,1051.13,1305.14Z"/><polygon class="cls-12" points="1162.18 1646.9 1158.33 1892.09 1152.07 1909.78 1133.28 1892.09 1115.46 1640.62 1162.18 1646.9"/><path class="cls-12" d="M1050,1655.2h47s-22.12,235.43-22,236.89-7.93,12-7.93,12l-17.11-12Z"/><path class="cls-8" d="M1173.42,1854.74c-13.36,5.35-34.1,10.71-57,5.81l-4.27-195.81-3.17-34.47c-2.4,2.09-3.83,3.09-3.83,3.09l-11.44,223.71s-25.39,9.27-56.44,3.54c-.1-13.46,8.24-218.83,8.33-228.36.61-68.87,21.89-79,21.89-79l36.25-9.17,8,1.37c12.67-4.16,35.59-8.91,45,6.9,13.37,22.41,12.58,91.48,12.58,91.48S1173.52,1845.26,1173.42,1854.74Z"/><path class="cls-12" d="M1144.91,1483.3l34-15.74-3.09,36s64.36-29.22,67.61-32.16c1.08-1,2.32-3.55,3.5-6.56a66.56,66.56,0,0,0,2.84-9.77c1.13-5,5.4-9,6.84-10.3a20.36,20.36,0,0,0,2.87-5.53,1,1,0,0,1,2,.11l.34,2.25a11.34,11.34,0,0,1-.93,5.71l.9-.35,1.48,15.14-1.81,13.24-10.19,7.67s-89.66,64.54-97.86,56.11C1144.62,1530.06,1144.91,1483.3,1144.91,1483.3Z"/><path class="cls-44" d="M1152.64,1407.16s7,1.65,17,14.12,19,46.93,19,46.93l-32.15,17.56-20.92-41.63Z"/><path class="cls-45" d="M1061.55,1605.91q5.09,1.88,10,4c3.3,1.44,6.57,3,9.81,4.52s6.47,3.17,9.66,4.83,6.37,3.35,9.5,5.11l.25-.6a69.21,69.21,0,0,0-14.34-1.43,57.56,57.56,0,0,0-7.19.41l-1.79.23-1.77.32-.88.16-.88.21-1.74.42,1.76-.34.88-.17.89-.13,1.77-.25,1.79-.17c.59-.07,1.19-.1,1.79-.12s1.19-.09,1.78-.09l1.79,0c.6,0,1.2,0,1.8,0q3.57.08,7.13.48a66.34,66.34,0,0,1,7.05,1.13l2.14.47-1.89-1.07c-3.14-1.79-6.3-3.51-9.51-5.15s-6.45-3.23-9.72-4.77-6.59-3-9.93-4.34c-1.68-.66-3.36-1.33-5.06-1.93S1063.27,1606.47,1061.55,1605.91Z"/><path class="cls-45" d="M1156.71,1604.54c-1.72.56-3.44,1.11-5.13,1.74s-3.39,1.27-5.07,1.94c-3.34,1.37-6.66,2.8-9.93,4.33s-6.51,3.13-9.71,4.78-6.38,3.36-9.52,5.14l-1.89,1.07,2.14-.47a66.34,66.34,0,0,1,7.05-1.13c2.37-.26,4.75-.43,7.14-.48.59,0,1.19,0,1.79,0l1.79,0c.59,0,1.19.06,1.79.09s1.19.06,1.78.12l1.79.17,1.77.26.89.12.88.17,1.76.34-1.74-.42-.88-.21-.88-.16-1.77-.31-1.79-.24a57.56,57.56,0,0,0-7.19-.41c-2.4,0-4.81.1-7.2.34a67,67,0,0,0-7.14,1.1l.25.6c3.13-1.76,6.32-3.44,9.51-5.11s6.4-3.28,9.65-4.84,6.51-3.08,9.82-4.52S1153.32,1605.79,1156.71,1604.54Z"/><path class="cls-41" d="M1082.17,1575.88a9.91,9.91,0,0,1-.47,1l-.52,1-1,2-1.74,3.24-5,8.63c-.68,1.31-7.21,12.66-8.75,15.2,1.92-2.3,4.24-4.56,5.8-7.09.79-1.26,1.52-2.55,2.27-3.84s1.43-2.59,2.14-3.9c1.37-2.63,2.7-5.28,3.94-8,.62-1.34,1.22-2.69,1.8-4.06.28-.68.57-1.36.83-2A18,18,0,0,0,1082.17,1575.88Z"/><path class="cls-6" d="M1018.91,1447.28c14.62-17.63,31.5-36.78,46.27-44.23,5.66-2.85,19.06-3.41,26.86-4.69,0,0,20.33-2.51,40.38.14,10.82,4,29.72,10.66,30,17.07,1.24,32,1.6,56.56,1.42,75.37,0,.06.54,68.22,0,82.78,0,0-74.1,16-112,6.37,0,0-6.26-89.15,2.73-113.23l-3.83,4.88S1035.49,1468.27,1018.91,1447.28Z"/><path class="cls-12" d="M1021.14,1450.06c10.06,12.22,21.19,18.71,26.76,20.75l-35.84,42.93,65.56,70.67-11.54,20.1c-9.12-4.43-11.17-21.2-11.17-21.2s-81.13-54.24-81.13-67.22C973.78,1498.71,1021.14,1450.06,1021.14,1450.06Z"/><path class="cls-46" d="M1020.57,1449.21c.56.63,1.07,1.3,1.66,1.91L1024,1453l.86.93.91.88,1.82,1.75c.61.58,1.26,1.12,1.89,1.68,1.23,1.14,2.62,2.12,3.91,3.19a70.49,70.49,0,0,0,8.48,5.43l1.11.59,1.13.55c.75.37,1.52.7,2.29,1,.38.17.77.31,1.16.47s.78.31,1.17.44,1.08.37,1.62.53l3.92-4.69,4.46-5.24c3-3.5,6-6.94,9-10.41s6.07-6.88,9.15-10.28,6.19-6.79,9.38-10.11c-2.72,3.69-5.54,7.31-8.37,10.92s-5.7,7.17-8.58,10.73-5.79,7.1-8.75,10.61l-4.41,5.27-4.46,5.23-.48.58-.7-.19a25.38,25.38,0,0,1-2.59-.83c-.83-.3-1.65-.64-2.44-1s-1.6-.74-2.37-1.15c-.39-.2-.78-.39-1.16-.6l-1.14-.65a61,61,0,0,1-8.5-5.94l-1.93-1.71c-.66-.56-1.26-1.17-1.86-1.78s-1.23-1.2-1.81-1.82l-1.7-1.92-.84-1-.79-1-1.57-2c-1-1.36-1.91-2.79-2.86-4.19Z"/><path class="cls-12" d="M1124.75,1397.78s-14.71,8.72-26.17,0h0l2.7-21.29,22.81-4.7.66,26Z"/><path class="cls-47" d="M1124.44,1385.67l-.35-13.88L1101,1379l-.65,5.2C1105.43,1386.05,1115.19,1388.32,1124.44,1385.67Z"/><path class="cls-38" d="M1141.07,1337.1c-.61,4.17,1.67,7.92,5.1,8.36s6.72-2.57,7.34-6.74-1.67-7.91-5.1-8.36S1141.69,1332.93,1141.07,1337.1Z"/><path class="cls-12" d="M1145.63,1359.44a31,31,0,0,0,1.12-5.77,58.49,58.49,0,0,0-.47-15.31c-.15-1-.24-2-.32-3a31.36,31.36,0,0,0-3.37-12.07c-6.48-12.76-21.15-19.91-35.65-17.35-19.54,3.45-31.63,22.09-27,40.22a7.46,7.46,0,0,0-6.46,1.11c-3.43,2.64-3.49,8.13-.14,12.26s8.87,5.34,12.3,2.7a6.38,6.38,0,0,0,1.23-1.26,31.3,31.3,0,0,0,37.3,19.45,30.42,30.42,0,0,0,17.75-13,14.7,14.7,0,0,0,.85-1.27A28.23,28.23,0,0,0,1145.63,1359.44Z"/><path class="cls-39" d="M1109.89,1341.56a2.86,2.86,0,0,1-2.07,3.5,2.92,2.92,0,0,1-3.59-2,2.86,2.86,0,0,1,2.08-3.49A2.9,2.9,0,0,1,1109.89,1341.56Z"/><path class="cls-39" d="M1134.61,1336.58a2.93,2.93,0,1,1-3.59-2A2.92,2.92,0,0,1,1134.61,1336.58Z"/><path class="cls-16" d="M1111.81,1335.22a28.88,28.88,0,0,0-4.39-.22,14.94,14.94,0,0,0-4,.7,13.39,13.39,0,0,0-3.67,1.78l-.44.27c-.15.1-.28.22-.42.33l-.86.65c-.58.45-1.09,1-1.74,1.44a13,13,0,0,1,.94-2.09,11,11,0,0,1,1.45-1.83,9.68,9.68,0,0,1,4.1-2.51,10.23,10.23,0,0,1,4.81-.34A9.21,9.21,0,0,1,1111.81,1335.22Z"/><path class="cls-16" d="M1123.35,1332.72a9.12,9.12,0,0,1,3.1-3.41,10.29,10.29,0,0,1,4.52-1.68,9.79,9.79,0,0,1,4.78.59,10.83,10.83,0,0,1,2.09,1.07,12.48,12.48,0,0,1,1.72,1.51c-.78-.16-1.46-.42-2.17-.59l-1.06-.24c-.17,0-.34-.09-.52-.12l-.52-.07a14,14,0,0,0-4.08-.11,15.35,15.35,0,0,0-4,1A29.51,29.51,0,0,0,1123.35,1332.72Z"/><path class="cls-38" d="M1118.81,1333.43a21.22,21.22,0,0,0,.64,6.09,16.11,16.11,0,0,0,1,3,7.87,7.87,0,0,0,2,2.74l.41.28.36.24a2.67,2.67,0,0,1,.48.32,2.27,2.27,0,0,1,.67.82,2.66,2.66,0,0,1-.05,2.22,8.78,8.78,0,0,1-4.18,3.85,7.27,7.27,0,0,0,5.57-3.17,4.08,4.08,0,0,0,.42-3.6,3,3,0,0,0-.47-.86,4.07,4.07,0,0,0-.65-.72,5.63,5.63,0,0,0-.77-.54,2.09,2.09,0,0,1-.28-.19l-.23-.16a7.5,7.5,0,0,1-1.59-2.07,27.15,27.15,0,0,1-1.24-2.6C1120.19,1337.23,1119.53,1335.34,1118.81,1333.43Z"/><path class="cls-2" d="M1131.7,1355c-.38,3.6-4.17,6.86-9.21,7.63s-9.62-1.19-11.06-4.51Z"/><path class="cls-12" d="M1269.49,1456.65a23.58,23.58,0,0,0-.27-3.53,3.89,3.89,0,0,0-2.71-2.91l-1.57-.47-.14,3.53h0c.13,2.7.18,2.51-3.56,4.14-5.33,2.31-3.1,5.11-3.1,5.11s1.48,2,8-1.28C1266.15,1461.24,1269.28,1459.6,1269.49,1456.65Z"/><path class="cls-2" d="M1104.87,1913.6l-55.94,0a3.11,3.11,0,0,1-3.12-3.13h0a3.13,3.13,0,0,1,3.13-3.13l55.94,0a3.13,3.13,0,0,1,3.13,3.13h0A3.14,3.14,0,0,1,1104.87,1913.6Z"/><path class="cls-6" d="M1048.67,1888.28l-2.08,17.41c-.25,2.15,1,4.1,2.53,4.1l54.81,0a4,4,0,0,0,3.58-2.55c.77-1.72.92-4.3-1.53-7.77-4.76-6.74-20.13-8.54-28.23-14.08a2.86,2.86,0,0,0-1.58-.49h-24.63C1050.11,1884.92,1048.9,1886.34,1048.67,1888.28Z"/><path class="cls-2" d="M1073.19,1895h0a1.17,1.17,0,0,1-.31-1.42c1.08-2.38,4.44-8.19,11.29-7,.39.07.66.6.59,1.14h0c-.06.53-.42.87-.8.81-6.14-1-9,4.06-9.87,6.06C1073.9,1895.08,1073.52,1895.25,1073.19,1895Z"/><path class="cls-2" d="M1078.88,1897.29h0a1.19,1.19,0,0,1-.31-1.42c1.08-2.39,4.45-8.19,11.29-7,.39.06.66.59.6,1.13v0c-.06.52-.42.87-.8.8-6.14-1-9,4.07-9.87,6.07C1079.59,1897.32,1079.21,1897.49,1078.88,1897.29Z"/><path class="cls-2" d="M1084.17,1899.38h0a1.18,1.18,0,0,1-.31-1.42c1.08-2.38,4.45-8.19,11.29-7a1,1,0,0,1,.6,1.14h0c-.07.53-.43.87-.81.8-6.13-1-9,4.07-9.87,6.07A.62.62,0,0,1,1084.17,1899.38Z"/><path class="cls-2" d="M1186.26,1913.6l-55.94,0a3.13,3.13,0,0,1-3.13-3.13h0a3.13,3.13,0,0,1,3.13-3.13l55.94,0a3.13,3.13,0,0,1,3.13,3.13h0A3.13,3.13,0,0,1,1186.26,1913.6Z"/><path class="cls-6" d="M1130.05,1888.28l-2.07,17.41c-.25,2.15,1,4.1,2.52,4.1l54.82,0a4,4,0,0,0,3.58-2.55c.76-1.72.92-4.3-1.53-7.77-4.77-6.74-20.14-8.54-28.23-14.08a2.89,2.89,0,0,0-1.58-.49h-24.63C1131.5,1884.92,1130.28,1886.34,1130.05,1888.28Z"/><path class="cls-2" d="M1154.58,1895h0a1.17,1.17,0,0,1-.31-1.42c1.07-2.38,4.44-8.19,11.28-7,.4.07.67.6.6,1.14h0c-.07.53-.42.87-.81.81-6.13-1-9,4.06-9.87,6.06C1155.29,1895.08,1154.91,1895.25,1154.58,1895Z"/><path class="cls-2" d="M1160.27,1897.29h0a1.17,1.17,0,0,1-.31-1.42c1.07-2.39,4.44-8.19,11.29-7,.39.06.66.59.59,1.13v0c-.07.52-.42.87-.81.8-6.13-1-9,4.07-9.86,6.07C1161,1897.32,1160.6,1897.49,1160.27,1897.29Z"/><path class="cls-2" d="M1165.56,1899.38h0a1.17,1.17,0,0,1-.31-1.42c1.08-2.38,4.45-8.19,11.29-7,.39.07.66.59.59,1.14h0c-.06.53-.42.87-.8.8-6.14-1-9,4.07-9.87,6.07C1166.27,1899.42,1165.89,1899.58,1165.56,1899.38Z"/><path class="cls-12" d="M1250.06,1451.09s-.56.47-1,3.45-1.93,12.52-1.28,12.85,5.13-.54,5.13-.54.39-10.11-.63-11.68A40.6,40.6,0,0,1,1250.06,1451.09Z"/><path class="cls-6" d="M1259.72,1293.77l100.65-71.21,11.16,15.77-94.9,67.14a17.19,17.19,0,0,0-7.29,14.75,1.24,1.24,0,0,0,0,.37v539.73h-19.32v-550.8a17.29,17.29,0,0,1,7.44-14.21Z"/><path class="cls-12" d="M1270.65,1461a23.68,23.68,0,0,0-.27-3.53,3.89,3.89,0,0,0-2.71-2.9l-1.57-.48-.14,3.54h0c.13,2.7.18,2.51-3.56,4.13-5.34,2.32-3.1,5.11-3.1,5.11s1.48,2,8-1.28C1267.31,1465.58,1270.44,1463.94,1270.65,1461Z"/><path class="cls-12" d="M1271.2,1464a22.79,22.79,0,0,0-.25-3.36,3.69,3.69,0,0,0-2.58-2.76l-1.5-.46-.13,3.37h0c.12,2.57.17,2.39-3.39,3.93-5.08,2.21-2.95,4.87-2.95,4.87s1.41,1.89,7.62-1.22C1268,1468.39,1271,1466.83,1271.2,1464Z"/><path class="cls-12" d="M1270.38,1468.06a20.35,20.35,0,0,0-.21-2.85,3.13,3.13,0,0,0-2.19-2.34l-1.26-.38-.12,2.85h0c.11,2.17.15,2-2.86,3.33-4.3,1.86-2.5,4.11-2.5,4.11s1.19,1.6,6.45-1C1267.69,1471.76,1270.22,1470.43,1270.38,1468.06Z"/><path class="cls-38" d="M1260.13,1463.08a3.21,3.21,0,0,0-1.44,2.34,2.65,2.65,0,0,0,.35,1.4,1.11,1.11,0,0,0,.26.32l.33.21a3.1,3.1,0,0,0,.72.26,6.94,6.94,0,0,0,2.91-.15,17.92,17.92,0,0,0,2.7-.93c.45-.18.86-.4,1.29-.6a6.38,6.38,0,0,0,1.22-.79,6.7,6.7,0,0,0,1.83-2.2,5,5,0,0,0,.46-1.35,5.65,5.65,0,0,0,0-.71l0-.69a20.89,20.89,0,0,0-.4-2.73c.07.91.11,1.83.11,2.74l0,.67a4.84,4.84,0,0,1-.09.65,5,5,0,0,1-.49,1.22,7,7,0,0,1-1.78,2,6.69,6.69,0,0,1-1.13.71c-.42.19-.83.4-1.26.57a17.93,17.93,0,0,1-2.6.93,7,7,0,0,1-2.68.24,1.55,1.55,0,0,1-1.07-.53,2.35,2.35,0,0,1-.08-2.47A5.07,5.07,0,0,1,1260.13,1463.08Z"/><path class="cls-12" d="M1270.38,1471.38a20.2,20.2,0,0,0-.21-2.84,3.12,3.12,0,0,0-2.19-2.34l-1.26-.39-.12,2.85h0c.11,2.17.15,2-2.86,3.33-4.3,1.87-2.5,4.12-2.5,4.12s1.19,1.6,6.45-1C1267.69,1475.08,1270.22,1473.75,1270.38,1471.38Z"/><path class="cls-38" d="M1261.51,1473.45a2.26,2.26,0,0,0-.79,1.62,2.1,2.1,0,0,0,.23.94,1.64,1.64,0,0,0,.12.22,1.88,1.88,0,0,0,.21.2,2.47,2.47,0,0,0,.46.23,4,4,0,0,0,1.94.13,10.21,10.21,0,0,0,1.83-.46,16.22,16.22,0,0,0,1.71-.72c.27-.15.56-.26.84-.44a7,7,0,0,0,.74-.58,4.25,4.25,0,0,0,1.58-3.21,4.73,4.73,0,0,1-1.89,2.86,7,7,0,0,1-.72.49,8.46,8.46,0,0,1-.8.38,16.93,16.93,0,0,1-1.66.67,10.4,10.4,0,0,1-1.72.46,4,4,0,0,1-1.69,0,1.3,1.3,0,0,1-.36-.15.49.49,0,0,1-.13-.1s-.08-.1-.12-.15a2,2,0,0,1-.27-.77,1.86,1.86,0,0,1,.08-.84A3.18,3.18,0,0,1,1261.51,1473.45Z"/><path class="cls-38" d="M1260.12,1467.4a2.34,2.34,0,0,0,0,2,1.24,1.24,0,0,0,.31.47,2.29,2.29,0,0,0,.47.29,3.24,3.24,0,0,0,1.05.26,9.63,9.63,0,0,0,4.06-.76c.63-.26,1.26-.53,1.86-.84a6.17,6.17,0,0,0,1.69-1.2,6.3,6.3,0,0,0,1.23-1.63,4.25,4.25,0,0,0,.45-1.94,5.45,5.45,0,0,1-2,3.24,6.6,6.6,0,0,1-1.63,1c-.6.29-1.21.55-1.82.79a14.34,14.34,0,0,1-1.89.61,7,7,0,0,1-1.92.25,2.88,2.88,0,0,1-.93-.15,1.87,1.87,0,0,1-.4-.2,1,1,0,0,1-.26-.34A2.33,2.33,0,0,1,1260.12,1467.4Z"/><path class="cls-38" d="M1261.51,1470.12a2.26,2.26,0,0,0-.79,1.63,2,2,0,0,0,.23.93.94.94,0,0,0,.12.22,1,1,0,0,0,.21.2,2,2,0,0,0,.46.24,4.28,4.28,0,0,0,1.94.13,10.21,10.21,0,0,0,1.83-.46,16.22,16.22,0,0,0,1.71-.72c.27-.15.56-.26.84-.45a5.1,5.1,0,0,0,.74-.58,4.22,4.22,0,0,0,1.58-3.2,4.76,4.76,0,0,1-1.89,2.86,7,7,0,0,1-.72.49,8.46,8.46,0,0,1-.8.38c-.54.24-1.1.48-1.66.67a10.4,10.4,0,0,1-1.72.46,4,4,0,0,1-1.69,0,1.69,1.69,0,0,1-.36-.15l-.13-.1a1.11,1.11,0,0,1-.12-.16,1.87,1.87,0,0,1-.27-.77,1.83,1.83,0,0,1,.08-.83A3.24,3.24,0,0,1,1261.51,1470.12Z"/><path class="cls-6" d="M1264.74,1460.7s4.41-1.82,4.64-5.11v-2l-4.83-.79-.73,2.12Z"/><path class="cls-16" d="M1075.89,1342l.77-.18-.15-7,2.25-6.65s9.61-18.25,10-18.72,8.42-6.83,8.92-7.16,12.75.62,12.75.62,20.71-7,18.36,6.08-17.18,21.13-18,20.64c2.24-3.08,1.72-11.18,1.72-11.18-10.47,15.9-31.93,27.77-31.93,27.77s-2.53-1.69-6.45.33Z"/></g></g></svg>