<svg width="96" height="96" viewBox="0 0 96 96" fill="none" xmlns="http://www.w3.org/2000/svg">
<path d="M76 12H20C15.58 12 12 15.58 12 20V76C12 80.42 15.58 84 20 84H76C80.42 84 84 80.42 84 76V20C84 15.58 80.42 12 76 12ZM30.952 68C28.164 68 25.904 65.74 25.904 62.952V45.044C25.908 42.26 28.168 40 30.952 40C33.74 40 36 42.26 36 45.048V62.956C36 65.74 33.74 68 30.952 68ZM30.776 34.868C27.692 34.868 25.632 32.812 25.632 30.068C25.632 27.324 27.688 25.268 31.116 25.268C34.2 25.268 36.26 27.324 36.26 30.068C36.26 32.812 34.204 34.868 30.776 34.868ZM67.116 68C64.42 68 62.232 65.812 62.232 63.116V52.696C62.232 48.464 59.628 48 58.652 48C57.676 48 54.42 48.14 54.42 52.696V63.116C54.42 65.812 52.232 68 49.536 68H49.212C46.516 68 44.328 65.812 44.328 63.116V45.048C44.328 42.26 46.588 40 49.376 40C52.164 40 54.424 42.26 54.424 45.048C54.424 45.048 55.552 40 63.216 40C68.092 40 72 43.908 72 52.696V63.116C72 65.812 69.812 68 67.116 68Z" fill="black"/>
</svg>
