<svg width="24" height="24" viewBox="0 0 24 24" fill="none" xmlns="http://www.w3.org/2000/svg">
<path d="M7.9978 1.95325C5.8175 1.95325 3.9978 3.96622 3.9978 6.17821V6.96123C3.9978 7.51423 4.4455 7.9622 4.9979 7.9622L4.9978 17.9532C4.9978 20.1462 6.8025 21.9532 8.9978 21.9532H14.9978C17.1928 21.9532 18.9978 20.1522 18.9978 17.9532L18.9988 7.9622C19.5508 7.9622 19.9988 7.51423 19.9988 6.96123V5.95922C19.9988 3.76322 18.1908 1.95325 15.9978 1.95325H7.9978ZM7.9978 3.95324L16.0298 3.98724C17.1178 3.98724 17.9978 4.86324 17.9978 5.95323C16.1938 5.95323 7.9242 5.95323 5.9978 5.95323C6.1218 4.91424 7.0325 3.95324 7.9978 3.95324ZM6.9978 7.95323H16.9978V17.9532C16.9978 19.0522 16.0768 19.9532 14.9978 19.9532H8.9978C7.896 19.9532 6.9978 19.0342 6.9978 17.9532V7.95323ZM9.9977 9.94022C9.4454 9.94022 8.9976 10.3892 8.9977 10.9422V16.9512C8.9977 17.5052 9.4454 17.9532 9.9977 17.9532C10.5498 17.9532 10.9978 17.5052 10.9978 16.9512V10.9422C10.9978 10.3892 10.5498 9.94022 9.9977 9.94022ZM13.9978 9.94022C13.4458 9.94022 12.9978 10.3892 12.9978 10.9422V16.9512C12.9978 17.5052 13.4458 17.9532 13.9978 17.9532C14.5498 17.9532 14.9978 17.5052 14.9978 16.9512V10.9422C14.9978 10.3892 14.5498 9.94022 13.9978 9.94022Z" fill="black"/>
</svg>
