<svg width="24" height="24" viewBox="0 0 24 24" fill="none" xmlns="http://www.w3.org/2000/svg">
<path d="M4.9989 3.90637C3.342 3.90637 1.9989 5.24947 1.9989 6.90637V16.6564C1.9989 18.4513 3.454 19.9064 5.2489 19.9064H18.7489C20.5438 19.9064 21.9989 18.4513 21.9989 16.6564V8.90637C21.9989 8.35407 21.5512 7.90637 20.9989 7.90637H19.9989V4.90637C19.9989 4.35407 19.5512 3.90637 18.9989 3.90637H4.9989ZM4.9989 5.90637H17.9989V7.90637H4.9989C4.4466 7.90637 3.9989 7.45867 3.9989 6.90637C3.9989 6.35407 4.4466 5.90637 4.9989 5.90637ZM4.9989 9.90637H19.9989V16.6564C19.9989 17.3468 19.4392 17.9064 18.7489 17.9064H5.2489C4.5585 17.9064 3.9989 17.3468 3.9989 16.6564L4.0047 9.73047C4.0047 9.73047 4.3627 9.90947 4.9989 9.90637ZM16.9989 12.9064C16.4466 12.9064 15.9989 13.3541 15.9989 13.9064C15.9989 14.4587 16.4466 14.9064 16.9989 14.9064C17.5512 14.9064 17.9989 14.4587 17.9989 13.9064C17.9989 13.3541 17.5512 12.9064 16.9989 12.9064Z" fill="black"/>
</svg>
